<svg xmlns="http://www.w3.org/2000/svg" xmlns:xlink="http://www.w3.org/1999/xlink" width="140" zoomAndPan="magnify" viewBox="0 0 104.88 104.999996" height="140" preserveAspectRatio="xMidYMid meet" version="1.0"><defs><clipPath id="ae88dab26f"><path d="M 0.359375 0.777344 L 104.523438 0.777344 L 104.523438 104.9375 L 0.359375 104.9375 Z M 0.359375 0.777344 " clip-rule="nonzero"/></clipPath><clipPath id="3376a8dfa4"><path d="M 52.441406 0.777344 C 23.675781 0.777344 0.359375 24.09375 0.359375 52.859375 C 0.359375 81.621094 23.675781 104.941406 52.441406 104.941406 C 81.203125 104.941406 104.523438 81.621094 104.523438 52.859375 C 104.523438 24.09375 81.203125 0.777344 52.441406 0.777344 Z M 52.441406 0.777344 " clip-rule="nonzero"/></clipPath><clipPath id="6334df0228"><path d="M 3.832031 4.25 L 101.046875 4.25 L 101.046875 101.46875 L 3.832031 101.46875 Z M 3.832031 4.25 " clip-rule="nonzero"/></clipPath><clipPath id="0181b6f362"><path d="M 52.441406 4.25 C 25.59375 4.25 3.832031 26.011719 3.832031 52.859375 C 3.832031 79.703125 25.59375 101.46875 52.441406 101.46875 C 79.285156 101.46875 101.046875 79.703125 101.046875 52.859375 C 101.046875 26.011719 79.285156 4.25 52.441406 4.25 Z M 52.441406 4.25 " clip-rule="nonzero"/></clipPath><clipPath id="1ffce5cbf4"><path d="M 33.648438 21.011719 L 71.109375 21.011719 L 71.109375 84.6875 L 33.648438 84.6875 Z M 33.648438 21.011719 " clip-rule="nonzero"/></clipPath><clipPath id="f670b49b32"><path d="M 38.773438 29.875 L 66.105469 29.875 L 66.105469 72.105469 L 38.773438 72.105469 Z M 38.773438 29.875 " clip-rule="nonzero"/></clipPath></defs><g clip-path="url(#ae88dab26f)"><g clip-path="url(#3376a8dfa4)"><path fill="#2d8cfe" d="M 0.359375 0.777344 L 104.523438 0.777344 L 104.523438 104.941406 L 0.359375 104.941406 Z M 0.359375 0.777344 " fill-opacity="1" fill-rule="nonzero"/></g></g><g clip-path="url(#6334df0228)"><g clip-path="url(#0181b6f362)"><path fill="#2d8cfe" d="M 3.832031 4.25 L 101.046875 4.25 L 101.046875 101.46875 L 3.832031 101.46875 Z M 3.832031 4.25 " fill-opacity="1" fill-rule="nonzero"/></g></g><g clip-path="url(#1ffce5cbf4)"><path fill="#000000" d="M 39.414062 21.011719 C 39.414062 21.011719 33.648438 21.011719 33.648438 26.800781 L 33.648438 78.898438 C 33.648438 84.6875 39.414062 84.6875 39.414062 84.6875 L 65.34375 84.6875 C 65.34375 84.6875 71.109375 84.6875 71.109375 78.898438 L 71.109375 26.800781 C 71.109375 21.011719 65.34375 21.011719 65.34375 21.011719 Z M 36.824219 28.015625 L 36.824219 73.863281 L 67.933594 73.863281 L 67.933594 28.015625 Z M 52.378906 81.792969 C 53.574219 81.792969 54.539062 80.820312 54.539062 79.621094 C 54.539062 78.421875 53.574219 77.449219 52.378906 77.449219 C 51.183594 77.449219 50.21875 78.421875 50.21875 79.621094 C 50.21875 80.820312 51.183594 81.792969 52.378906 81.792969 Z M 45.8125 23.90625 C 45.460938 23.90625 45.175781 24.1875 45.175781 24.546875 L 45.175781 24.714844 C 45.175781 25.070312 45.464844 25.355469 45.8125 25.355469 L 58.945312 25.355469 C 59.296875 25.355469 59.582031 25.074219 59.582031 24.714844 L 59.582031 24.546875 C 59.582031 24.195312 59.292969 23.90625 58.945312 23.90625 Z M 45.8125 23.90625 " fill-opacity="1" fill-rule="evenodd"/></g><g clip-path="url(#f670b49b32)"><path fill="#ffffff" d="M 38.773438 29.875 L 66.105469 29.875 L 66.105469 72.15625 L 38.773438 72.15625 Z M 38.773438 29.875 " fill-opacity="1" fill-rule="nonzero"/></g></svg>