<svg xmlns="http://www.w3.org/2000/svg" xmlns:xlink="http://www.w3.org/1999/xlink" width="140" zoomAndPan="magnify" viewBox="0 0 104.88 104.999996" height="140" preserveAspectRatio="xMidYMid meet" version="1.0"><defs><clipPath id="5d68905a00"><path d="M 0.542969 0.605469 L 104.335938 0.605469 L 104.335938 104.394531 L 0.542969 104.394531 Z M 0.542969 0.605469 " clip-rule="nonzero"/></clipPath><clipPath id="ed553fac67"><path d="M 52.441406 0.605469 C 23.777344 0.605469 0.542969 23.839844 0.542969 52.5 C 0.542969 81.160156 23.777344 104.394531 52.441406 104.394531 C 81.101562 104.394531 104.335938 81.160156 104.335938 52.5 C 104.335938 23.839844 81.101562 0.605469 52.441406 0.605469 Z M 52.441406 0.605469 " clip-rule="nonzero"/></clipPath><clipPath id="c1f156b6f9"><path d="M 13.074219 35 L 55 35 L 55 68 L 13.074219 68 Z M 13.074219 35 " clip-rule="nonzero"/></clipPath><clipPath id="38114b4b92"><path d="M 13.074219 27.351562 L 29 27.351562 L 29 57 L 13.074219 57 Z M 13.074219 27.351562 " clip-rule="nonzero"/></clipPath><clipPath id="8fb5b76983"><path d="M 58 41 L 91.734375 41 L 91.734375 72 L 58 72 Z M 58 41 " clip-rule="nonzero"/></clipPath><clipPath id="880e3d5f7c"><path d="M 33 59 L 49 59 L 49 74.546875 L 33 74.546875 Z M 33 59 " clip-rule="nonzero"/></clipPath><clipPath id="bbc4d209aa"><path d="M 52.441406 21.753906 L 73.003906 21.753906 L 73.003906 44.941406 L 52.441406 44.941406 Z M 52.441406 21.753906 " clip-rule="nonzero"/></clipPath><clipPath id="5c49738509"><path d="M 52 26 L 71.671875 26 L 71.671875 47.507812 L 52 47.507812 Z M 52 26 " clip-rule="nonzero"/></clipPath><clipPath id="17fdd6db9d"><path d="M 58 24.285156 L 61 24.285156 L 61 29 L 58 29 Z M 58 24.285156 " clip-rule="nonzero"/></clipPath><clipPath id="72d6f5657a"><path d="M 61 24.285156 L 63 24.285156 L 63 29 L 61 29 Z M 61 24.285156 " clip-rule="nonzero"/></clipPath><clipPath id="9c440ae831"><path d="M 57 24.285156 L 64 24.285156 L 64 26 L 57 26 Z M 57 24.285156 " clip-rule="nonzero"/></clipPath><clipPath id="6b4792f2e1"><path d="M 49.195312 35 L 58 35 L 58 38 L 49.195312 38 Z M 49.195312 35 " clip-rule="nonzero"/></clipPath></defs><g clip-path="url(#5d68905a00)"><g clip-path="url(#ed553fac67)"><path fill="#2d8cfe" d="M 0.542969 0.605469 L 104.335938 0.605469 L 104.335938 104.394531 L 0.542969 104.394531 Z M 0.542969 0.605469 " fill-opacity="1" fill-rule="nonzero"/></g></g><g clip-path="url(#c1f156b6f9)"><path fill="#000000" d="M 32.300781 66.226562 L 13.292969 64.773438 L 13.292969 57.394531 L 29.488281 58.636719 L 31.242188 35.714844 L 50.054688 38.578125 L 54.464844 52.78125 L 53.414062 66.480469 C 53.3125 67.800781 51.890625 67.820312 51.890625 67.820312 L 50.355469 67.664062 C 50.355469 67.664062 50.246094 58.730469 41.902344 58.089844 C 32.902344 57.402344 32.300781 66.226562 32.300781 66.226562 Z M 37.703125 50.078125 L 51.824219 52.582031 L 48.664062 41.808594 L 38.460938 40.195312 Z M 37.703125 50.078125 " fill-opacity="1" fill-rule="evenodd"/></g><g clip-path="url(#38114b4b92)"><path fill="#000000" d="M 26.328125 56.550781 L 13.292969 55.554688 L 13.292969 27.335938 L 28.472656 28.5 Z M 26.328125 56.550781 " fill-opacity="1" fill-rule="nonzero"/></g><g clip-path="url(#8fb5b76983)"><path fill="#000000" d="M 91.515625 41.050781 L 73.753906 43.671875 L 58.835938 57.105469 L 60.457031 68.101562 L 65.824219 71.054688 C 65.039062 70.074219 64.5 68.875 64.300781 67.535156 C 63.722656 63.601562 66.464844 59.90625 70.398438 59.328125 C 74.332031 58.746094 78.023438 61.492188 78.605469 65.425781 C 78.800781 66.765625 78.628906 68.070312 78.160156 69.234375 L 91.515625 67.265625 L 91.515625 50.460938 L 86.109375 51.257812 L 85.027344 43.925781 L 91.515625 42.96875 Z M 83.238281 44.191406 L 84.320312 51.519531 L 69.65625 53.683594 L 75.910156 45.269531 Z M 83.238281 44.191406 " fill-opacity="1" fill-rule="evenodd"/></g><path fill="#000000" d="M 66.089844 67.269531 C 65.652344 64.320312 67.699219 61.460938 70.738281 61.011719 C 73.777344 60.566406 76.5625 62.710938 76.996094 65.664062 C 77.429688 68.613281 75.386719 71.472656 72.347656 71.921875 C 69.394531 72.355469 66.523438 70.21875 66.089844 67.269531 Z M 74.136719 66.085938 C 73.925781 64.652344 72.589844 63.664062 71.160156 63.875 C 69.730469 64.085938 68.738281 65.417969 68.949219 66.847656 C 69.160156 68.277344 70.492188 69.269531 71.925781 69.058594 C 73.355469 68.847656 74.347656 67.515625 74.136719 66.085938 Z M 74.136719 66.085938 " fill-opacity="1" fill-rule="evenodd"/><g clip-path="url(#880e3d5f7c)"><path fill="#000000" d="M 40.675781 74.265625 C 36.664062 73.957031 33.664062 70.457031 33.96875 66.445312 C 34.277344 62.4375 37.777344 59.433594 41.785156 59.742188 C 45.796875 60.050781 48.796875 63.546875 48.492188 67.558594 C 48.183594 71.570312 44.683594 74.570312 40.675781 74.265625 Z M 44.683594 67.265625 C 44.535156 69.175781 42.871094 70.601562 40.964844 70.457031 C 39.054688 70.3125 37.628906 68.644531 37.773438 66.738281 C 37.917969 64.832031 39.585938 63.402344 41.492188 63.546875 C 43.398438 63.695312 44.828125 65.359375 44.683594 67.265625 Z M 44.683594 67.265625 " fill-opacity="1" fill-rule="evenodd"/></g><path fill="#000000" d="M 66.847656 32.453125 L 61.546875 39.429688 C 61.039062 40.101562 59.976562 39.847656 59.824219 39.019531 L 58.890625 33.996094 L 58.542969 41.175781 C 58.5 42.058594 57.394531 42.429688 56.828125 41.75 L 53.953125 38.296875 L 56.25 44.863281 C 56.351562 45.152344 56.199219 45.472656 55.90625 45.574219 C 55.617188 45.675781 55.296875 45.523438 55.195312 45.230469 L 52.628906 37.898438 C 52.273438 36.878906 53.597656 36.125 54.289062 36.957031 L 57.445312 40.742188 L 57.835938 32.675781 C 57.894531 31.523438 59.550781 31.414062 59.761719 32.546875 L 60.859375 38.488281 L 66.453125 31.125 C 67.109375 30.265625 68.46875 30.957031 68.15625 31.992188 L 66.097656 38.800781 L 70.871094 36.585938 C 71.820312 36.144531 72.699219 37.316406 72.007812 38.105469 L 65.621094 45.414062 C 65.417969 45.644531 65.066406 45.671875 64.832031 45.46875 C 64.601562 45.265625 64.578125 44.910156 64.78125 44.679688 L 70.710938 37.890625 L 66.269531 39.953125 C 65.507812 40.304688 64.691406 39.59375 64.933594 38.792969 Z M 66.847656 32.453125 " fill-opacity="1" fill-rule="nonzero"/><g clip-path="url(#bbc4d209aa)"><path fill="#2d8cfe" d="M 52.441406 21.753906 L 73.003906 21.753906 L 73.003906 44.96875 L 52.441406 44.96875 Z M 52.441406 21.753906 " fill-opacity="1" fill-rule="nonzero"/></g><g clip-path="url(#5c49738509)"><path fill="#ffffff" d="M 55.207031 30.023438 C 56.746094 28.78125 58.703125 28.035156 60.835938 28.035156 C 65.78125 28.035156 69.796875 32.050781 69.796875 36.996094 C 69.796875 41.9375 65.78125 45.953125 60.835938 45.953125 C 58.183594 45.953125 55.800781 44.800781 54.160156 42.96875 C 53.859375 42.632812 53.34375 42.605469 53.007812 42.902344 C 52.671875 43.203125 52.644531 43.71875 52.945312 44.054688 C 54.882812 46.222656 57.703125 47.585938 60.835938 47.585938 C 66.679688 47.585938 71.425781 42.839844 71.425781 36.996094 C 71.425781 31.148438 66.679688 26.402344 60.835938 26.402344 C 58.316406 26.402344 56 27.285156 54.179688 28.757812 C 53.832031 29.039062 53.777344 29.554688 54.058594 29.902344 C 54.34375 30.253906 54.855469 30.308594 55.207031 30.023438 Z M 55.207031 30.023438 " fill-opacity="1" fill-rule="evenodd"/></g><g clip-path="url(#17fdd6db9d)"><path fill="#ffffff" d="M 60.5625 27.21875 L 60.5625 25.046875 C 60.5625 24.597656 60.199219 24.230469 59.75 24.230469 C 59.300781 24.230469 58.933594 24.597656 58.933594 25.046875 L 58.933594 27.21875 C 58.933594 27.667969 59.300781 28.035156 59.75 28.035156 C 60.199219 28.035156 60.5625 27.667969 60.5625 27.21875 Z M 60.5625 27.21875 " fill-opacity="1" fill-rule="evenodd"/></g><g clip-path="url(#72d6f5657a)"><path fill="#ffffff" d="M 62.734375 27.21875 L 62.734375 25.046875 C 62.734375 24.597656 62.371094 24.230469 61.921875 24.230469 C 61.472656 24.230469 61.105469 24.597656 61.105469 25.046875 L 61.105469 27.21875 C 61.105469 27.667969 61.472656 28.035156 61.921875 28.035156 C 62.371094 28.035156 62.734375 27.667969 62.734375 27.21875 Z M 62.734375 27.21875 " fill-opacity="1" fill-rule="evenodd"/></g><path fill="#ffffff" d="M 67.925781 29.96875 L 69.464844 28.429688 C 69.78125 28.113281 69.78125 27.597656 69.464844 27.277344 C 69.144531 26.960938 68.628906 26.960938 68.3125 27.277344 L 66.777344 28.816406 C 66.457031 29.132812 66.457031 29.648438 66.777344 29.96875 C 67.09375 30.285156 67.609375 30.285156 67.925781 29.96875 Z M 67.925781 29.96875 " fill-opacity="1" fill-rule="evenodd"/><path fill="#ffffff" d="M 70.644531 28.273438 L 68.46875 26.101562 C 68.152344 25.78125 67.636719 25.78125 67.320312 26.101562 C 67 26.417969 67 26.933594 67.320312 27.25 L 69.492188 29.421875 C 69.808594 29.742188 70.324219 29.742188 70.644531 29.421875 C 70.960938 29.105469 70.960938 28.589844 70.644531 28.273438 Z M 70.644531 28.273438 " fill-opacity="1" fill-rule="evenodd"/><g clip-path="url(#9c440ae831)"><path fill="#ffffff" d="M 58.664062 25.859375 L 63.007812 25.859375 C 63.457031 25.859375 63.820312 25.496094 63.820312 25.046875 C 63.820312 24.597656 63.457031 24.230469 63.007812 24.230469 L 58.664062 24.230469 C 58.214844 24.230469 57.847656 24.597656 57.847656 25.046875 C 57.847656 25.496094 58.214844 25.859375 58.664062 25.859375 Z M 58.664062 25.859375 " fill-opacity="1" fill-rule="evenodd"/></g><path fill="#ffffff" d="M 60.019531 31.019531 L 60.019531 36.449219 C 60.019531 36.667969 60.105469 36.875 60.257812 37.027344 L 63.519531 40.285156 C 63.835938 40.601562 64.351562 40.601562 64.667969 40.285156 C 64.988281 39.96875 64.988281 39.449219 64.667969 39.132812 L 61.648438 36.113281 C 61.648438 36.113281 61.648438 31.019531 61.648438 31.019531 C 61.648438 30.570312 61.285156 30.207031 60.835938 30.207031 C 60.386719 30.207031 60.019531 30.570312 60.019531 31.019531 Z M 60.019531 31.019531 " fill-opacity="1" fill-rule="evenodd"/><g clip-path="url(#6b4792f2e1)"><path fill="#ffffff" d="M 49.972656 37.265625 L 56.492188 37.265625 C 56.941406 37.265625 57.304688 36.902344 57.304688 36.449219 C 57.304688 36 56.941406 35.636719 56.492188 35.636719 L 49.972656 35.636719 C 49.523438 35.636719 49.160156 36 49.160156 36.449219 C 49.160156 36.902344 49.523438 37.265625 49.972656 37.265625 Z M 49.972656 37.265625 " fill-opacity="1" fill-rule="evenodd"/></g><path fill="#ffffff" d="M 53.230469 33.464844 L 56.492188 33.464844 C 56.941406 33.464844 57.304688 33.097656 57.304688 32.648438 C 57.304688 32.199219 56.941406 31.835938 56.492188 31.835938 L 53.230469 31.835938 C 52.78125 31.835938 52.417969 32.199219 52.417969 32.648438 C 52.417969 33.097656 52.78125 33.464844 53.230469 33.464844 Z M 53.230469 33.464844 " fill-opacity="1" fill-rule="evenodd"/><path fill="#ffffff" d="M 53.230469 41.066406 L 56.492188 41.066406 C 56.941406 41.066406 57.304688 40.703125 57.304688 40.253906 C 57.304688 39.804688 56.941406 39.4375 56.492188 39.4375 L 53.230469 39.4375 C 52.78125 39.4375 52.417969 39.804688 52.417969 40.253906 C 52.417969 40.703125 52.78125 41.066406 53.230469 41.066406 Z M 53.230469 41.066406 " fill-opacity="1" fill-rule="evenodd"/></svg>