<svg xmlns="http://www.w3.org/2000/svg" xmlns:xlink="http://www.w3.org/1999/xlink" width="140" zoomAndPan="magnify" viewBox="0 0 104.88 104.999996" height="140" preserveAspectRatio="xMidYMid meet" version="1.0"><defs><clipPath id="9775188793"><path d="M 0.460938 3 L 104.59375 3 L 104.59375 101.8125 L 0.460938 101.8125 Z M 0.460938 3 " clip-rule="nonzero"/></clipPath></defs><path fill="#2d8cfe" d="M 56.023438 6.792969 C 57.550781 6.792969 59.074219 6.867188 60.59375 7.019531 C 62.109375 7.167969 63.617188 7.390625 65.117188 7.691406 C 66.613281 7.988281 68.089844 8.359375 69.550781 8.800781 C 71.011719 9.242188 72.449219 9.757812 73.859375 10.339844 C 75.269531 10.925781 76.644531 11.578125 77.992188 12.296875 C 79.335938 13.015625 80.644531 13.800781 81.914062 14.648438 C 83.183594 15.496094 84.40625 16.402344 85.585938 17.371094 C 86.765625 18.339844 87.898438 19.363281 88.976562 20.441406 C 90.054688 21.523438 91.078125 22.652344 92.046875 23.832031 C 93.015625 25.011719 93.921875 26.234375 94.769531 27.503906 C 95.621094 28.773438 96.402344 30.082031 97.121094 31.425781 C 97.839844 32.773438 98.492188 34.152344 99.078125 35.5625 C 99.660156 36.972656 100.175781 38.40625 100.617188 39.867188 C 101.0625 41.328125 101.433594 42.804688 101.730469 44.304688 C 102.027344 45.800781 102.25 47.308594 102.402344 48.828125 C 102.550781 50.347656 102.625 51.867188 102.625 53.394531 C 102.625 54.921875 102.550781 56.445312 102.402344 57.960938 C 102.25 59.480469 102.027344 60.988281 101.730469 62.484375 C 101.433594 63.984375 101.0625 65.460938 100.617188 66.921875 C 100.175781 68.382812 99.660156 69.816406 99.078125 71.226562 C 98.492188 72.636719 97.839844 74.015625 97.121094 75.363281 C 96.402344 76.707031 95.621094 78.015625 94.769531 79.285156 C 93.921875 80.554688 93.015625 81.777344 92.046875 82.957031 C 91.078125 84.136719 90.054688 85.265625 88.976562 86.347656 C 87.898438 87.425781 86.765625 88.449219 85.585938 89.417969 C 84.40625 90.386719 83.183594 91.292969 81.914062 92.140625 C 80.644531 92.988281 79.335938 93.773438 77.992188 94.492188 C 76.644531 95.210938 75.269531 95.863281 73.859375 96.449219 C 72.449219 97.03125 71.011719 97.546875 69.550781 97.988281 C 68.089844 98.433594 66.613281 98.800781 65.117188 99.101562 C 63.617188 99.398438 62.109375 99.621094 60.59375 99.769531 C 59.074219 99.921875 57.550781 99.996094 56.023438 99.996094 C 54.496094 99.996094 52.976562 99.921875 51.457031 99.769531 C 49.9375 99.621094 48.429688 99.398438 46.933594 99.101562 C 45.4375 98.800781 43.957031 98.433594 42.496094 97.988281 C 41.035156 97.546875 39.601562 97.03125 38.191406 96.449219 C 36.78125 95.863281 35.402344 95.210938 34.058594 94.492188 C 32.710938 93.773438 31.402344 92.988281 30.132812 92.140625 C 28.867188 91.292969 27.640625 90.386719 26.460938 89.417969 C 25.28125 88.449219 24.152344 87.425781 23.074219 86.347656 C 21.992188 85.265625 20.96875 84.136719 20 82.957031 C 19.035156 81.777344 18.125 80.554688 17.277344 79.285156 C 16.429688 78.015625 15.644531 76.707031 14.925781 75.363281 C 14.207031 74.015625 13.554688 72.636719 12.972656 71.226562 C 12.386719 69.816406 11.875 68.382812 11.429688 66.921875 C 10.988281 65.460938 10.617188 63.984375 10.320312 62.484375 C 10.019531 60.988281 9.796875 59.480469 9.648438 57.960938 C 9.5 56.445312 9.421875 54.921875 9.421875 53.394531 C 9.421875 51.867188 9.5 50.347656 9.648438 48.828125 C 9.796875 47.308594 10.019531 45.800781 10.320312 44.304688 C 10.617188 42.804688 10.988281 41.328125 11.429688 39.867188 C 11.875 38.40625 12.386719 36.972656 12.972656 35.5625 C 13.554688 34.152344 14.207031 32.773438 14.925781 31.425781 C 15.644531 30.082031 16.429688 28.773438 17.277344 27.503906 C 18.125 26.234375 19.035156 25.011719 20 23.832031 C 20.96875 22.652344 21.992188 21.523438 23.074219 20.441406 C 24.152344 19.363281 25.28125 18.339844 26.460938 17.371094 C 27.640625 16.402344 28.867188 15.496094 30.132812 14.648438 C 31.402344 13.800781 32.710938 13.015625 34.058594 12.296875 C 35.402344 11.578125 36.78125 10.925781 38.191406 10.339844 C 39.601562 9.757812 41.035156 9.242188 42.496094 8.800781 C 43.957031 8.359375 45.4375 7.988281 46.933594 7.691406 C 48.429688 7.390625 49.9375 7.167969 51.457031 7.019531 C 52.976562 6.867188 54.496094 6.792969 56.023438 6.792969 Z M 56.023438 6.792969 " fill-opacity="1" fill-rule="nonzero"/><path fill="#ffffff" d="M 56.023438 28.300781 C 56.847656 28.300781 57.664062 28.34375 58.484375 28.421875 C 59.300781 28.503906 60.113281 28.625 60.917969 28.785156 C 61.726562 28.945312 62.523438 29.144531 63.308594 29.382812 C 64.09375 29.621094 64.867188 29.898438 65.625 30.210938 C 66.386719 30.527344 67.128906 30.878906 67.851562 31.265625 C 68.578125 31.652344 69.28125 32.074219 69.964844 32.53125 C 70.648438 32.988281 71.308594 33.476562 71.941406 33.996094 C 72.578125 34.519531 73.1875 35.070312 73.765625 35.652344 C 74.347656 36.234375 74.898438 36.839844 75.421875 37.476562 C 75.941406 38.113281 76.429688 38.769531 76.886719 39.453125 C 77.34375 40.136719 77.765625 40.839844 78.152344 41.566406 C 78.542969 42.289062 78.890625 43.03125 79.207031 43.792969 C 79.519531 44.550781 79.796875 45.324219 80.035156 46.109375 C 80.273438 46.898438 80.472656 47.695312 80.632812 48.5 C 80.796875 49.304688 80.914062 50.117188 80.996094 50.933594 C 81.078125 51.753906 81.117188 52.574219 81.117188 53.394531 C 81.117188 54.214844 81.078125 55.035156 80.996094 55.855469 C 80.914062 56.671875 80.796875 57.484375 80.632812 58.289062 C 80.472656 59.097656 80.273438 59.890625 80.035156 60.679688 C 79.796875 61.464844 79.519531 62.238281 79.207031 62.996094 C 78.890625 63.757812 78.542969 64.5 78.152344 65.222656 C 77.765625 65.949219 77.34375 66.652344 76.886719 67.335938 C 76.429688 68.019531 75.941406 68.679688 75.421875 69.3125 C 74.898438 69.949219 74.347656 70.558594 73.765625 71.136719 C 73.1875 71.71875 72.578125 72.269531 71.941406 72.792969 C 71.308594 73.3125 70.648438 73.800781 69.964844 74.257812 C 69.28125 74.714844 68.578125 75.136719 67.851562 75.523438 C 67.128906 75.910156 66.386719 76.261719 65.625 76.578125 C 64.867188 76.890625 64.09375 77.167969 63.308594 77.40625 C 62.523438 77.644531 61.726562 77.84375 60.917969 78.003906 C 60.113281 78.164062 59.300781 78.285156 58.484375 78.367188 C 57.664062 78.445312 56.847656 78.488281 56.023438 78.488281 C 55.203125 78.488281 54.382812 78.445312 53.566406 78.367188 C 52.746094 78.285156 51.933594 78.164062 51.128906 78.003906 C 50.324219 77.84375 49.527344 77.644531 48.738281 77.40625 C 47.953125 77.167969 47.179688 76.890625 46.421875 76.578125 C 45.664062 76.261719 44.921875 75.910156 44.195312 75.523438 C 43.472656 75.136719 42.765625 74.714844 42.082031 74.257812 C 41.398438 73.800781 40.742188 73.3125 40.105469 72.792969 C 39.46875 72.269531 38.863281 71.71875 38.28125 71.136719 C 37.699219 70.558594 37.148438 69.949219 36.628906 69.3125 C 36.105469 68.679688 35.617188 68.019531 35.160156 67.335938 C 34.703125 66.652344 34.28125 65.949219 33.894531 65.222656 C 33.507812 64.5 33.15625 63.757812 32.839844 62.996094 C 32.527344 62.238281 32.25 61.464844 32.011719 60.679688 C 31.773438 59.890625 31.574219 59.097656 31.414062 58.289062 C 31.253906 57.484375 31.132812 56.671875 31.050781 55.855469 C 30.972656 55.035156 30.929688 54.214844 30.929688 53.394531 C 30.929688 52.574219 30.972656 51.753906 31.050781 50.933594 C 31.132812 50.117188 31.253906 49.304688 31.414062 48.5 C 31.574219 47.695312 31.773438 46.898438 32.011719 46.109375 C 32.25 45.324219 32.527344 44.550781 32.839844 43.792969 C 33.15625 43.03125 33.507812 42.289062 33.894531 41.566406 C 34.28125 40.839844 34.703125 40.136719 35.160156 39.453125 C 35.617188 38.769531 36.105469 38.113281 36.628906 37.476562 C 37.148438 36.839844 37.699219 36.234375 38.28125 35.652344 C 38.863281 35.070312 39.46875 34.519531 40.105469 33.996094 C 40.742188 33.476562 41.398438 32.988281 42.082031 32.53125 C 42.765625 32.074219 43.472656 31.652344 44.195312 31.265625 C 44.921875 30.878906 45.664062 30.527344 46.421875 30.210938 C 47.179688 29.898438 47.953125 29.621094 48.738281 29.382812 C 49.527344 29.144531 50.324219 28.945312 51.128906 28.785156 C 51.933594 28.625 52.746094 28.503906 53.566406 28.421875 C 54.382812 28.34375 55.203125 28.300781 56.023438 28.300781 Z M 56.023438 28.300781 " fill-opacity="1" fill-rule="nonzero"/><path fill="#2d8cfe" d="M 56.023438 35.472656 C 56.609375 35.472656 57.195312 35.5 57.78125 35.558594 C 58.363281 35.617188 58.945312 35.703125 59.519531 35.816406 C 60.097656 35.929688 60.664062 36.074219 61.226562 36.242188 C 61.789062 36.414062 62.339844 36.609375 62.882812 36.835938 C 63.425781 37.058594 63.957031 37.3125 64.472656 37.585938 C 64.992188 37.863281 65.492188 38.164062 65.980469 38.492188 C 66.46875 38.816406 66.941406 39.167969 67.394531 39.539062 C 67.847656 39.914062 68.28125 40.304688 68.699219 40.722656 C 69.113281 41.136719 69.507812 41.570312 69.878906 42.023438 C 70.25 42.476562 70.601562 42.949219 70.925781 43.4375 C 71.253906 43.925781 71.554688 44.429688 71.832031 44.945312 C 72.109375 45.464844 72.359375 45.992188 72.582031 46.535156 C 72.808594 47.078125 73.003906 47.628906 73.175781 48.191406 C 73.347656 48.753906 73.488281 49.324219 73.601562 49.898438 C 73.71875 50.472656 73.804688 51.054688 73.859375 51.636719 C 73.917969 52.222656 73.949219 52.808594 73.949219 53.394531 C 73.949219 53.980469 73.917969 54.566406 73.859375 55.152344 C 73.804688 55.734375 73.71875 56.316406 73.601562 56.890625 C 73.488281 57.46875 73.347656 58.035156 73.175781 58.597656 C 73.003906 59.160156 72.808594 59.710938 72.582031 60.253906 C 72.359375 60.796875 72.109375 61.324219 71.832031 61.84375 C 71.554688 62.363281 71.253906 62.863281 70.925781 63.351562 C 70.601562 63.839844 70.25 64.3125 69.878906 64.765625 C 69.507812 65.21875 69.113281 65.652344 68.699219 66.070312 C 68.28125 66.484375 67.847656 66.878906 67.394531 67.25 C 66.941406 67.621094 66.46875 67.972656 65.980469 68.296875 C 65.492188 68.625 64.992188 68.925781 64.472656 69.203125 C 63.957031 69.476562 63.425781 69.730469 62.882812 69.953125 C 62.339844 70.179688 61.789062 70.375 61.226562 70.546875 C 60.664062 70.714844 60.097656 70.859375 59.519531 70.972656 C 58.945312 71.089844 58.363281 71.175781 57.78125 71.230469 C 57.195312 71.289062 56.609375 71.316406 56.023438 71.316406 C 55.4375 71.316406 54.851562 71.289062 54.265625 71.230469 C 53.683594 71.175781 53.101562 71.089844 52.527344 70.972656 C 51.953125 70.859375 51.382812 70.714844 50.820312 70.546875 C 50.257812 70.375 49.707031 70.179688 49.164062 69.953125 C 48.621094 69.730469 48.09375 69.476562 47.574219 69.203125 C 47.058594 68.925781 46.554688 68.625 46.066406 68.296875 C 45.578125 67.972656 45.109375 67.621094 44.652344 67.25 C 44.199219 66.878906 43.765625 66.484375 43.351562 66.070312 C 42.933594 65.652344 42.542969 65.21875 42.167969 64.765625 C 41.796875 64.3125 41.449219 63.839844 41.121094 63.351562 C 40.796875 62.863281 40.492188 62.363281 40.21875 61.84375 C 39.941406 61.324219 39.691406 60.796875 39.464844 60.253906 C 39.242188 59.710938 39.042969 59.160156 38.871094 58.597656 C 38.703125 58.035156 38.558594 57.46875 38.445312 56.890625 C 38.332031 56.316406 38.246094 55.734375 38.1875 55.152344 C 38.128906 54.566406 38.101562 53.980469 38.101562 53.394531 C 38.101562 52.808594 38.128906 52.222656 38.1875 51.636719 C 38.246094 51.054688 38.332031 50.472656 38.445312 49.898438 C 38.558594 49.324219 38.703125 48.753906 38.871094 48.191406 C 39.042969 47.628906 39.242188 47.078125 39.464844 46.535156 C 39.691406 45.992188 39.941406 45.464844 40.21875 44.945312 C 40.492188 44.429688 40.796875 43.925781 41.121094 43.4375 C 41.449219 42.949219 41.796875 42.476562 42.167969 42.023438 C 42.542969 41.570312 42.933594 41.136719 43.351562 40.722656 C 43.765625 40.304688 44.199219 39.914062 44.652344 39.539062 C 45.109375 39.167969 45.578125 38.816406 46.066406 38.492188 C 46.554688 38.164062 47.058594 37.863281 47.574219 37.585938 C 48.09375 37.3125 48.621094 37.058594 49.164062 36.835938 C 49.707031 36.609375 50.257812 36.414062 50.820312 36.242188 C 51.382812 36.074219 51.953125 35.929688 52.527344 35.816406 C 53.101562 35.703125 53.683594 35.617188 54.265625 35.558594 C 54.851562 35.5 55.4375 35.472656 56.023438 35.472656 Z M 56.023438 35.472656 " fill-opacity="1" fill-rule="nonzero"/><path fill="#ffffff" d="M 56.023438 49.808594 C 56.5 49.808594 56.957031 49.902344 57.394531 50.082031 C 57.835938 50.265625 58.222656 50.523438 58.558594 50.859375 C 58.894531 51.195312 59.152344 51.582031 59.335938 52.023438 C 59.519531 52.460938 59.609375 52.917969 59.609375 53.394531 C 59.609375 53.871094 59.519531 54.328125 59.335938 54.765625 C 59.152344 55.207031 58.894531 55.59375 58.558594 55.929688 C 58.222656 56.265625 57.835938 56.523438 57.394531 56.707031 C 56.957031 56.886719 56.5 56.980469 56.023438 56.980469 C 55.550781 56.980469 55.089844 56.886719 54.652344 56.707031 C 54.214844 56.523438 53.824219 56.265625 53.488281 55.929688 C 53.152344 55.59375 52.894531 55.207031 52.710938 54.765625 C 52.53125 54.328125 52.441406 53.871094 52.441406 53.394531 C 52.441406 52.917969 52.53125 52.460938 52.710938 52.023438 C 52.894531 51.582031 53.152344 51.195312 53.488281 50.859375 C 53.824219 50.523438 54.214844 50.265625 54.652344 50.082031 C 55.089844 49.902344 55.550781 49.808594 56.023438 49.808594 Z M 56.023438 49.808594 " fill-opacity="1" fill-rule="nonzero"/><path fill="#ffffff" d="M 32.097656 5.253906 L 41.003906 20.847656 C 28.726562 26.527344 20.175781 38.984375 20.175781 53.394531 L 2.253906 53.394531 C 2.253906 32.335938 14.425781 14.070312 32.097656 5.253906 Z M 32.097656 5.253906 " fill-opacity="1" fill-rule="nonzero"/><path fill="#000000" d="M 29.140625 53.394531 C 29.140625 68.21875 41.203125 80.28125 56.023438 80.28125 C 70.847656 80.28125 82.910156 68.21875 82.910156 53.394531 C 82.910156 38.570312 70.847656 26.511719 56.023438 26.511719 C 41.203125 26.511719 29.140625 38.570312 29.140625 53.394531 Z M 79.324219 53.394531 C 79.324219 66.246094 68.875 76.695312 56.023438 76.695312 C 43.171875 76.695312 32.722656 66.246094 32.722656 53.394531 C 32.722656 40.542969 43.171875 30.09375 56.023438 30.09375 C 68.875 30.09375 79.324219 40.542969 79.324219 53.394531 Z M 79.324219 53.394531 " fill-opacity="1" fill-rule="nonzero"/><path fill="#000000" d="M 36.308594 53.394531 C 36.308594 64.273438 45.144531 73.109375 56.023438 73.109375 C 66.902344 73.109375 75.738281 64.273438 75.738281 53.394531 C 75.738281 42.515625 66.902344 33.679688 56.023438 33.679688 C 45.144531 33.679688 36.308594 42.515625 36.308594 53.394531 Z M 72.15625 53.394531 C 72.15625 62.285156 64.914062 69.527344 56.023438 69.527344 C 47.132812 69.527344 39.894531 62.285156 39.894531 53.394531 C 39.894531 44.503906 47.132812 37.265625 56.023438 37.265625 C 64.914062 37.265625 72.15625 44.503906 72.15625 53.394531 Z M 72.15625 53.394531 " fill-opacity="1" fill-rule="nonzero"/><path fill="#000000" d="M 50.648438 53.394531 C 50.648438 56.351562 53.066406 58.773438 56.023438 58.773438 C 58.980469 58.773438 61.402344 56.351562 61.402344 53.394531 C 61.402344 50.4375 58.980469 48.019531 56.023438 48.019531 C 53.066406 48.019531 50.648438 50.4375 50.648438 53.394531 Z M 57.816406 53.394531 C 57.816406 54.378906 57.011719 55.1875 56.023438 55.1875 C 55.039062 55.1875 54.230469 54.378906 54.230469 53.394531 C 54.230469 52.410156 55.039062 51.601562 56.023438 51.601562 C 57.011719 51.601562 57.816406 52.410156 57.816406 53.394531 Z M 57.816406 53.394531 " fill-opacity="1" fill-rule="nonzero"/><path fill="#000000" d="M 88.285156 53.394531 C 88.285156 55.367188 89.898438 56.980469 91.871094 56.980469 C 93.84375 56.980469 95.457031 55.367188 95.457031 53.394531 C 95.457031 51.421875 93.84375 49.808594 91.871094 49.808594 C 89.898438 49.808594 88.285156 51.421875 88.285156 53.394531 Z M 88.285156 53.394531 " fill-opacity="1" fill-rule="nonzero"/><path fill="#000000" d="M 78.839844 81.285156 C 80.238281 82.679688 82.515625 82.679688 83.914062 81.285156 C 84.613281 80.585938 84.953125 79.671875 84.953125 78.757812 C 84.953125 77.84375 84.59375 76.929688 83.914062 76.230469 C 82.515625 74.832031 80.238281 74.832031 78.839844 76.230469 C 77.441406 77.628906 77.441406 79.902344 78.839844 81.300781 Z M 78.839844 81.285156 " fill-opacity="1" fill-rule="nonzero"/><path fill="#000000" d="M 56.023438 21.132812 C 57.996094 21.132812 59.609375 19.519531 59.609375 17.546875 C 59.609375 15.578125 57.996094 13.964844 56.023438 13.964844 C 54.050781 13.964844 52.441406 15.578125 52.441406 17.546875 C 52.441406 19.519531 54.050781 21.132812 56.023438 21.132812 Z M 56.023438 21.132812 " fill-opacity="1" fill-rule="nonzero"/><path fill="#000000" d="M 52.441406 89.242188 C 52.441406 91.214844 54.050781 92.824219 56.023438 92.824219 C 57.996094 92.824219 59.609375 91.214844 59.609375 89.242188 C 59.609375 87.269531 57.996094 85.65625 56.023438 85.65625 C 54.050781 85.65625 52.441406 87.269531 52.441406 89.242188 Z M 52.441406 89.242188 " fill-opacity="1" fill-rule="nonzero"/><path fill="#000000" d="M 78.839844 30.578125 C 80.238281 31.976562 82.515625 31.976562 83.914062 30.578125 C 84.613281 29.878906 84.953125 28.964844 84.953125 28.050781 C 84.953125 27.136719 84.59375 26.222656 83.914062 25.523438 C 82.515625 24.125 80.238281 24.125 78.839844 25.523438 C 77.441406 26.921875 77.441406 29.199219 78.839844 30.597656 Z M 78.839844 30.578125 " fill-opacity="1" fill-rule="nonzero"/><path fill="#000000" d="M 34.265625 78.738281 C 34.265625 77.824219 33.90625 76.910156 33.226562 76.210938 C 31.828125 74.8125 29.550781 74.8125 28.152344 76.210938 C 26.753906 77.609375 26.753906 79.886719 28.152344 81.285156 C 29.550781 82.679688 31.828125 82.679688 33.226562 81.285156 C 33.925781 80.585938 34.265625 79.671875 34.265625 78.757812 Z M 34.265625 78.738281 " fill-opacity="1" fill-rule="nonzero"/><g clip-path="url(#9775188793)"><path fill="#000000" d="M 31.289062 3.65625 C 12.273438 13.140625 0.460938 32.210938 0.460938 53.394531 C 0.460938 54.378906 1.269531 55.1875 2.253906 55.1875 L 7.683594 55.1875 C 8.636719 81.050781 29.945312 101.789062 56.023438 101.789062 C 82.101562 101.789062 104.417969 80.082031 104.417969 53.394531 C 104.417969 26.707031 82.710938 5 56.023438 5 C 49.175781 5 42.582031 6.417969 36.398438 9.179688 L 33.636719 4.355469 C 33.171875 3.53125 32.132812 3.210938 31.289062 3.640625 Z M 56.023438 8.585938 C 80.742188 8.585938 100.832031 28.679688 100.832031 53.394531 C 100.832031 78.109375 80.742188 98.203125 56.023438 98.203125 C 31.308594 98.203125 12.203125 79.0625 11.269531 55.1875 L 20.175781 55.1875 C 21.164062 55.1875 21.96875 54.378906 21.96875 53.394531 C 21.96875 40.167969 29.730469 28.035156 41.757812 22.476562 C 42.207031 22.261719 42.5625 21.867188 42.707031 21.402344 C 42.761719 21.222656 42.796875 21.042969 42.796875 20.863281 C 42.796875 20.558594 42.726562 20.253906 42.5625 19.96875 L 38.207031 12.332031 C 43.820312 9.878906 49.804688 8.605469 56.042969 8.605469 Z M 38.511719 20.074219 C 26.753906 26.277344 19.066406 38.320312 18.4375 51.601562 L 4.082031 51.601562 C 4.710938 33.050781 15.015625 16.472656 31.398438 7.636719 Z M 38.511719 20.074219 " fill-opacity="1" fill-rule="nonzero"/></g><path fill="#000000" d="M 18.007812 29.71875 C 17.488281 30.558594 17.738281 31.652344 18.582031 32.191406 C 19.425781 32.710938 20.535156 32.460938 21.054688 31.617188 C 23.996094 26.902344 27.777344 22.890625 32.292969 19.699219 C 32.796875 19.359375 33.046875 18.804688 33.046875 18.230469 C 33.046875 17.871094 32.9375 17.511719 32.722656 17.191406 C 32.148438 16.382812 31.039062 16.1875 30.234375 16.757812 C 25.320312 20.21875 21.21875 24.59375 18.027344 29.699219 Z M 18.007812 29.71875 " fill-opacity="1" fill-rule="nonzero"/></svg>