<svg xmlns="http://www.w3.org/2000/svg" xmlns:xlink="http://www.w3.org/1999/xlink" width="140" zoomAndPan="magnify" viewBox="0 0 104.88 104.999996" height="140" preserveAspectRatio="xMidYMid meet" version="1.0"><defs><clipPath id="b020331b78"><path d="M 0 0.0585938 L 104.089844 0.0585938 L 104.089844 104.148438 L 0 104.148438 Z M 0 0.0585938 " clip-rule="nonzero"/></clipPath><clipPath id="5f2de0f3c7"><path d="M 52.042969 0.0585938 C 23.300781 0.0585938 0 23.359375 0 52.105469 C 0 80.847656 23.300781 104.148438 52.042969 104.148438 C 80.789062 104.148438 104.089844 80.847656 104.089844 52.105469 C 104.089844 23.359375 80.789062 0.0585938 52.042969 0.0585938 Z M 52.042969 0.0585938 " clip-rule="nonzero"/></clipPath><clipPath id="1e0c8c8f74"><path d="M 4.121094 4.179688 L 99.96875 4.179688 L 99.96875 100.027344 L 4.121094 100.027344 Z M 4.121094 4.179688 " clip-rule="nonzero"/></clipPath><clipPath id="e0c4aa83dc"><path d="M 52.042969 4.179688 C 25.574219 4.179688 4.121094 25.636719 4.121094 52.105469 C 4.121094 78.574219 25.574219 100.027344 52.042969 100.027344 C 78.511719 100.027344 99.96875 78.574219 99.96875 52.105469 C 99.96875 25.636719 78.511719 4.179688 52.042969 4.179688 Z M 52.042969 4.179688 " clip-rule="nonzero"/></clipPath><clipPath id="ea2d528872"><path d="M 36.230469 37.25 L 67.855469 37.25 L 67.855469 68.875 L 36.230469 68.875 Z M 36.230469 37.25 " clip-rule="nonzero"/></clipPath><clipPath id="ce56f8d5b7"><path d="M 52.042969 37.25 C 43.3125 37.25 36.230469 44.328125 36.230469 53.0625 C 36.230469 61.796875 43.3125 68.875 52.042969 68.875 C 60.777344 68.875 67.855469 61.796875 67.855469 53.0625 C 67.855469 44.328125 60.777344 37.25 52.042969 37.25 Z M 52.042969 37.25 " clip-rule="nonzero"/></clipPath><clipPath id="0ceb420add"><path d="M 40.308594 41.402344 L 63.78125 41.402344 L 63.78125 64.875 L 40.308594 64.875 Z M 40.308594 41.402344 " clip-rule="nonzero"/></clipPath><clipPath id="8588488905"><path d="M 52.042969 41.402344 C 45.5625 41.402344 40.308594 46.65625 40.308594 53.140625 C 40.308594 59.621094 45.5625 64.875 52.042969 64.875 C 58.527344 64.875 63.78125 59.621094 63.78125 53.140625 C 63.78125 46.65625 58.527344 41.402344 52.042969 41.402344 Z M 52.042969 41.402344 " clip-rule="nonzero"/></clipPath><clipPath id="9c1c7b7d6c"><path d="M 65.308594 18.28125 L 100.582031 18.28125 L 100.582031 87.863281 L 65.308594 87.863281 Z M 65.308594 18.28125 " clip-rule="nonzero"/></clipPath><clipPath id="02d62a1085"><path d="M 100.582031 53.066406 L 65.308594 87.851562 L 65.308594 18.28125 Z M 100.582031 53.066406 " clip-rule="nonzero"/></clipPath><clipPath id="fb8bc6583b"><path d="M 2.582031 18.261719 L 37.855469 18.261719 L 37.855469 87.84375 L 2.582031 87.84375 Z M 2.582031 18.261719 " clip-rule="nonzero"/></clipPath><clipPath id="607845d566"><path d="M 2.582031 53.058594 L 37.855469 18.273438 L 37.855469 87.84375 Z M 2.582031 53.058594 " clip-rule="nonzero"/></clipPath><clipPath id="fbde556340"><path d="M 8.875 28.535156 L 33.730469 28.535156 L 33.730469 77.566406 L 8.875 77.566406 Z M 8.875 28.535156 " clip-rule="nonzero"/></clipPath><clipPath id="60315ceec7"><path d="M 8.875 53.054688 L 33.730469 28.542969 L 33.730469 77.566406 Z M 8.875 53.054688 " clip-rule="nonzero"/></clipPath><clipPath id="514506e453"><path d="M 69.84375 28.558594 L 94.703125 28.558594 L 94.703125 77.589844 L 69.84375 77.589844 Z M 69.84375 28.558594 " clip-rule="nonzero"/></clipPath><clipPath id="7c78d4560c"><path d="M 94.703125 53.070312 L 69.84375 77.582031 L 69.84375 28.558594 Z M 94.703125 53.070312 " clip-rule="nonzero"/></clipPath></defs><g clip-path="url(#b020331b78)"><g clip-path="url(#5f2de0f3c7)"><path fill="#000000" d="M 0 0.0585938 L 104.089844 0.0585938 L 104.089844 104.148438 L 0 104.148438 Z M 0 0.0585938 " fill-opacity="1" fill-rule="nonzero"/></g></g><g clip-path="url(#1e0c8c8f74)"><g clip-path="url(#e0c4aa83dc)"><path fill="#2d8cfe" d="M 4.121094 4.179688 L 99.96875 4.179688 L 99.96875 100.027344 L 4.121094 100.027344 Z M 4.121094 4.179688 " fill-opacity="1" fill-rule="nonzero"/></g></g><g clip-path="url(#ea2d528872)"><g clip-path="url(#ce56f8d5b7)"><path fill="#000000" d="M 36.230469 37.25 L 67.855469 37.25 L 67.855469 68.875 L 36.230469 68.875 Z M 36.230469 37.25 " fill-opacity="1" fill-rule="nonzero"/></g></g><g clip-path="url(#0ceb420add)"><g clip-path="url(#8588488905)"><path fill="#dde5ee" d="M 40.308594 41.402344 L 63.78125 41.402344 L 63.78125 64.875 L 40.308594 64.875 Z M 40.308594 41.402344 " fill-opacity="1" fill-rule="nonzero"/></g></g><g clip-path="url(#9c1c7b7d6c)"><g clip-path="url(#02d62a1085)"><path fill="#000000" d="M 100.582031 18.28125 L 100.582031 87.863281 L 65.308594 87.863281 L 65.308594 18.28125 Z M 100.582031 18.28125 " fill-opacity="1" fill-rule="nonzero"/></g></g><g clip-path="url(#fb8bc6583b)"><g clip-path="url(#607845d566)"><path fill="#000000" d="M 2.582031 87.84375 L 2.582031 18.261719 L 37.855469 18.261719 L 37.855469 87.84375 Z M 2.582031 87.84375 " fill-opacity="1" fill-rule="nonzero"/></g></g><g clip-path="url(#fbde556340)"><g clip-path="url(#60315ceec7)"><path fill="#ffffff" d="M 8.875 77.566406 L 8.875 28.535156 L 33.730469 28.535156 L 33.730469 77.566406 Z M 8.875 77.566406 " fill-opacity="1" fill-rule="nonzero"/></g></g><g clip-path="url(#514506e453)"><g clip-path="url(#7c78d4560c)"><path fill="#ffffff" d="M 94.703125 28.558594 L 94.703125 77.589844 L 69.84375 77.589844 L 69.84375 28.558594 Z M 94.703125 28.558594 " fill-opacity="1" fill-rule="nonzero"/></g></g></svg>