<svg xmlns="http://www.w3.org/2000/svg" xmlns:xlink="http://www.w3.org/1999/xlink" width="140" zoomAndPan="magnify" viewBox="0 0 104.88 104.999996" height="140" preserveAspectRatio="xMidYMid meet" version="1.0"><defs><clipPath id="6c9ede6603"><path d="M 0 0.0585938 L 104.761719 0.0585938 L 104.761719 104.9375 L 0 104.9375 Z M 0 0.0585938 " clip-rule="nonzero"/></clipPath><clipPath id="4a111bd3a8"><path d="M 52.441406 0.0585938 C 23.476562 0.0585938 0 23.539062 0 52.5 C 0 81.460938 23.476562 104.941406 52.441406 104.941406 C 81.402344 104.941406 104.878906 81.460938 104.878906 52.5 C 104.878906 23.539062 81.402344 0.0585938 52.441406 0.0585938 Z M 52.441406 0.0585938 " clip-rule="nonzero"/></clipPath><clipPath id="7cc22fe7f4"><path d="M 4.152344 4.210938 L 100.730469 4.210938 L 100.730469 100.789062 L 4.152344 100.789062 Z M 4.152344 4.210938 " clip-rule="nonzero"/></clipPath><clipPath id="3ec7affc14"><path d="M 52.441406 4.210938 C 25.769531 4.210938 4.152344 25.832031 4.152344 52.5 C 4.152344 79.167969 25.769531 100.789062 52.441406 100.789062 C 79.109375 100.789062 100.730469 79.167969 100.730469 52.5 C 100.730469 25.832031 79.109375 4.210938 52.441406 4.210938 Z M 52.441406 4.210938 " clip-rule="nonzero"/></clipPath><clipPath id="db431de604"><path d="M 0 0.0585938 L 79 0.0585938 L 79 104 L 0 104 Z M 0 0.0585938 " clip-rule="nonzero"/></clipPath><clipPath id="f0c6d36ae0"><path d="M 27 0.0585938 L 104.761719 0.0585938 L 104.761719 104 L 27 104 Z M 27 0.0585938 " clip-rule="nonzero"/></clipPath><clipPath id="6b687e0c2a"><path d="M 27.578125 35.539062 L 76.816406 35.539062 L 76.816406 101.707031 L 27.578125 101.707031 Z M 27.578125 35.539062 " clip-rule="nonzero"/></clipPath><clipPath id="852820ea92"><path d="M 52.199219 35.648438 L 76.816406 68.675781 L 60.304688 68.675781 L 60.304688 101.707031 L 44.089844 101.707031 L 44.089844 68.675781 L 27.578125 68.675781 Z M 52.199219 35.648438 " clip-rule="nonzero"/></clipPath><clipPath id="be5aaa539c"><path d="M 36.019531 40.746094 L 68.378906 40.746094 L 68.378906 100.789062 L 36.019531 100.789062 Z M 36.019531 40.746094 " clip-rule="nonzero"/></clipPath><clipPath id="13219c4bf5"><path d="M 52.199219 40.75 L 68.378906 64.246094 L 56.628906 64.246094 L 56.628906 100.789062 L 47.769531 100.789062 L 47.769531 64.246094 L 36.019531 64.246094 Z M 52.199219 40.75 " clip-rule="nonzero"/></clipPath></defs><g clip-path="url(#6c9ede6603)"><g clip-path="url(#4a111bd3a8)"><path fill="#000000" d="M 0 0.0585938 L 104.878906 0.0585938 L 104.878906 104.941406 L 0 104.941406 Z M 0 0.0585938 " fill-opacity="1" fill-rule="nonzero"/></g></g><g clip-path="url(#7cc22fe7f4)"><g clip-path="url(#3ec7affc14)"><path fill="#2d8cfe" d="M 4.152344 4.210938 L 100.730469 4.210938 L 100.730469 100.789062 L 4.152344 100.789062 Z M 4.152344 4.210938 " fill-opacity="1" fill-rule="nonzero"/></g></g><g clip-path="url(#db431de604)"><path stroke-linecap="butt" transform="matrix(0.382937, -0.643875, 0.643875, 0.382937, 6.698071, 77.075538)" fill="none" stroke-linejoin="miter" d="M 0.00140297 2.997941 L 116.109985 3.001976 " stroke="#000000" stroke-width="6" stroke-opacity="1" stroke-miterlimit="4"/></g><g clip-path="url(#f0c6d36ae0)"><path stroke-linecap="butt" transform="matrix(0.374571, 0.648777, -0.648777, 0.374571, 55.122526, 2.793754)" fill="none" stroke-linejoin="miter" d="M 0.00030207 3.000814 L 114.536944 3.000518 " stroke="#000000" stroke-width="6" stroke-opacity="1" stroke-miterlimit="4"/></g><g clip-path="url(#6b687e0c2a)"><g clip-path="url(#852820ea92)"><path fill="#000000" d="M 76.816406 101.707031 L 27.578125 101.707031 L 27.578125 35.730469 L 76.816406 35.730469 Z M 76.816406 101.707031 " fill-opacity="1" fill-rule="nonzero"/></g></g><g clip-path="url(#be5aaa539c)"><g clip-path="url(#13219c4bf5)"><path fill="#ffffff" d="M 68.378906 100.789062 L 36.019531 100.789062 L 36.019531 40.746094 L 68.378906 40.746094 Z M 68.378906 100.789062 " fill-opacity="1" fill-rule="nonzero"/></g></g></svg>