<svg xmlns="http://www.w3.org/2000/svg" xmlns:xlink="http://www.w3.org/1999/xlink" width="140" zoomAndPan="magnify" viewBox="0 0 104.88 104.999996" height="140" preserveAspectRatio="xMidYMid meet" version="1.0"><defs><clipPath id="9a9b4646bf"><path d="M 0.390625 0.449219 L 104.488281 0.449219 L 104.488281 104.550781 L 0.390625 104.550781 Z M 0.390625 0.449219 " clip-rule="nonzero"/></clipPath><clipPath id="021c0af735"><path d="M 52.441406 0.449219 C 23.695312 0.449219 0.390625 23.753906 0.390625 52.5 C 0.390625 81.246094 23.695312 104.550781 52.441406 104.550781 C 81.1875 104.550781 104.488281 81.246094 104.488281 52.5 C 104.488281 23.753906 81.1875 0.449219 52.441406 0.449219 Z M 52.441406 0.449219 " clip-rule="nonzero"/></clipPath><clipPath id="a1a06394bc"><path d="M 3.859375 3.921875 L 101.019531 3.921875 L 101.019531 101.078125 L 3.859375 101.078125 Z M 3.859375 3.921875 " clip-rule="nonzero"/></clipPath><clipPath id="3c670374db"><path d="M 52.441406 3.921875 C 25.609375 3.921875 3.859375 25.671875 3.859375 52.5 C 3.859375 79.328125 25.609375 101.078125 52.441406 101.078125 C 79.269531 101.078125 101.019531 79.328125 101.019531 52.5 C 101.019531 25.671875 79.269531 3.921875 52.441406 3.921875 Z M 52.441406 3.921875 " clip-rule="nonzero"/></clipPath><clipPath id="0dd161f429"><path d="M 26 27 L 80 27 L 80 80.792969 L 26 80.792969 Z M 26 27 " clip-rule="nonzero"/></clipPath><clipPath id="fb85297d8d"><path d="M 50.289062 27 L 80 27 L 80 56.820312 L 50.289062 56.820312 Z M 50.289062 27 " clip-rule="nonzero"/></clipPath><clipPath id="c152c23e6e"><path d="M 51 45 L 63 45 L 63 56.820312 L 51 56.820312 Z M 51 45 " clip-rule="nonzero"/></clipPath><clipPath id="e09411b5a3"><path d="M 50.289062 33 L 74 33 L 74 56.820312 L 50.289062 56.820312 Z M 50.289062 33 " clip-rule="nonzero"/></clipPath></defs><g clip-path="url(#9a9b4646bf)"><g clip-path="url(#021c0af735)"><path fill="#2d8cfe" d="M 0.390625 0.449219 L 104.488281 0.449219 L 104.488281 104.550781 L 0.390625 104.550781 Z M 0.390625 0.449219 " fill-opacity="1" fill-rule="nonzero"/></g></g><g clip-path="url(#a1a06394bc)"><g clip-path="url(#3c670374db)"><path fill="#2d8cfe" d="M 3.859375 3.921875 L 101.019531 3.921875 L 101.019531 101.078125 L 3.859375 101.078125 Z M 3.859375 3.921875 " fill-opacity="1" fill-rule="nonzero"/></g></g><g clip-path="url(#0dd161f429)"><path fill="#000000" d="M 78.777344 70.902344 L 70.554688 62.648438 C 69.320312 61.40625 67.3125 61.40625 66.074219 62.648438 L 62.152344 66.585938 C 56.203125 63.042969 44.003906 50.804688 40.476562 44.820312 L 44.394531 40.882812 C 45.632812 39.644531 45.632812 37.625 44.394531 36.386719 L 36.183594 28.140625 C 34.945312 26.898438 32.929688 26.898438 31.691406 28.140625 C 25.328125 34.539062 24.578125 44.671875 29.980469 51.929688 C 29.988281 51.941406 39.375 65.363281 52.238281 75 C 53.960938 76.007812 58.09375 80.75 65.9375 80.75 C 70.757812 80.75 75.375 78.832031 78.777344 75.414062 C 80.015625 74.160156 80.015625 72.15625 78.777344 70.902344 Z M 78.777344 70.902344 " fill-opacity="1" fill-rule="nonzero"/></g><path fill="#000000" d="M 66.148438 54.710938 C 66.730469 54.710938 67.203125 54.234375 67.203125 53.648438 C 67.203125 46.042969 61.042969 39.855469 53.464844 39.855469 C 52.882812 39.855469 52.40625 40.332031 52.40625 40.917969 C 52.40625 41.5 52.882812 41.976562 53.464844 41.976562 C 59.878906 41.976562 65.089844 47.207031 65.089844 53.648438 C 65.089844 54.234375 65.554688 54.710938 66.148438 54.710938 Z M 66.148438 54.710938 " fill-opacity="1" fill-rule="nonzero"/><path fill="#000000" d="M 52.070312 45.085938 C 51.488281 45.085938 51.011719 45.5625 51.011719 46.148438 C 51.011719 46.730469 51.488281 47.207031 52.070312 47.207031 C 56.371094 47.207031 59.871094 50.722656 59.871094 55.039062 C 59.871094 55.625 60.34375 56.101562 60.925781 56.101562 C 61.507812 56.101562 61.984375 55.625 61.984375 55.039062 C 61.984375 49.554688 57.535156 45.085938 52.070312 45.085938 Z M 52.070312 45.085938 " fill-opacity="1" fill-rule="nonzero"/><path fill="#000000" d="M 51.679688 35.492188 C 62.640625 35.492188 71.550781 44.4375 71.550781 55.441406 C 71.550781 56.027344 72.023438 56.503906 72.605469 56.503906 C 73.1875 56.503906 73.664062 56.027344 73.664062 55.441406 C 73.664062 43.273438 63.800781 33.371094 51.679688 33.371094 C 51.097656 33.371094 50.621094 33.847656 50.621094 34.433594 C 50.621094 35.015625 51.097656 35.492188 51.679688 35.492188 Z M 51.679688 35.492188 " fill-opacity="1" fill-rule="nonzero"/><g clip-path="url(#fb85297d8d)"><path fill="#ffffff" d="M 79.054688 70.953125 L 70.789062 62.6875 C 69.546875 61.445312 67.527344 61.445312 66.285156 62.6875 L 62.34375 66.628906 C 56.363281 63.082031 44.101562 50.832031 40.554688 44.839844 L 44.496094 40.898438 C 45.738281 39.65625 45.738281 37.636719 44.496094 36.394531 L 36.242188 28.140625 C 35 26.898438 32.96875 26.898438 31.726562 28.140625 C 25.332031 34.546875 24.578125 44.691406 30.007812 51.957031 C 30.015625 51.96875 39.449219 65.40625 52.378906 75.050781 C 54.109375 76.0625 58.265625 80.808594 66.144531 80.808594 C 70.988281 80.808594 75.632812 78.886719 79.054688 75.464844 C 80.296875 74.214844 80.296875 72.207031 79.054688 70.953125 Z M 79.054688 70.953125 " fill-opacity="1" fill-rule="nonzero"/></g><path fill="#ffffff" d="M 66.359375 54.742188 C 66.941406 54.742188 67.421875 54.261719 67.421875 53.679688 C 67.421875 46.0625 61.226562 39.871094 53.609375 39.871094 C 53.027344 39.871094 52.546875 40.347656 52.546875 40.929688 C 52.546875 41.515625 53.027344 41.992188 53.609375 41.992188 C 60.058594 41.992188 65.296875 47.230469 65.296875 53.679688 C 65.296875 54.261719 65.765625 54.742188 66.359375 54.742188 Z M 66.359375 54.742188 " fill-opacity="1" fill-rule="nonzero"/><g clip-path="url(#c152c23e6e)"><path fill="#ffffff" d="M 52.207031 45.105469 C 51.625 45.105469 51.148438 45.585938 51.148438 46.167969 C 51.148438 46.753906 51.625 47.230469 52.207031 47.230469 C 56.53125 47.230469 60.046875 50.746094 60.046875 55.070312 C 60.046875 55.65625 60.527344 56.132812 61.109375 56.132812 C 61.695312 56.132812 62.171875 55.65625 62.171875 55.070312 C 62.171875 49.578125 57.699219 45.105469 52.207031 45.105469 Z M 52.207031 45.105469 " fill-opacity="1" fill-rule="nonzero"/></g><g clip-path="url(#e09411b5a3)"><path fill="#ffffff" d="M 51.816406 35.503906 C 62.832031 35.503906 71.785156 44.457031 71.785156 55.472656 C 71.785156 56.058594 72.265625 56.535156 72.847656 56.535156 C 73.433594 56.535156 73.910156 56.058594 73.910156 55.472656 C 73.910156 43.289062 64 33.378906 51.816406 33.378906 C 51.230469 33.378906 50.753906 33.855469 50.753906 34.441406 C 50.753906 35.023438 51.230469 35.503906 51.816406 35.503906 Z M 51.816406 35.503906 " fill-opacity="1" fill-rule="nonzero"/></g></svg>