<svg xmlns="http://www.w3.org/2000/svg" xmlns:xlink="http://www.w3.org/1999/xlink" width="140" zoomAndPan="magnify" viewBox="0 0 104.88 104.999996" height="140" preserveAspectRatio="xMidYMid meet" version="1.0"><defs><clipPath id="21dad58635"><path d="M 2.21875 2.210938 L 104.265625 2.210938 L 104.265625 104.257812 L 2.21875 104.257812 Z M 2.21875 2.210938 " clip-rule="nonzero"/></clipPath><clipPath id="50880a6f86"><path d="M 53.242188 2.210938 C 25.0625 2.210938 2.21875 25.054688 2.21875 53.234375 C 2.21875 81.414062 25.0625 104.257812 53.242188 104.257812 C 81.421875 104.257812 104.265625 81.414062 104.265625 53.234375 C 104.265625 25.054688 81.421875 2.210938 53.242188 2.210938 Z M 53.242188 2.210938 " clip-rule="nonzero"/></clipPath><clipPath id="2a47b1dbcd"><path d="M 53.242188 50.398438 L 85.300781 50.398438 L 85.300781 57.542969 L 53.242188 57.542969 Z M 53.242188 50.398438 " clip-rule="nonzero"/></clipPath><clipPath id="fedad7ae78"><path d="M 0.613281 0.742188 L 103.996094 0.742188 L 103.996094 104.121094 L 0.613281 104.121094 Z M 0.613281 0.742188 " clip-rule="nonzero"/></clipPath><clipPath id="e8169472e0"><path d="M 18.382812 49.664062 L 25.8125 49.664062 L 25.8125 56.808594 L 18.382812 56.808594 Z M 18.382812 49.664062 " clip-rule="nonzero"/></clipPath><clipPath id="65a1ad08ea"><path d="M 27.242188 50.398438 L 52.507812 50.398438 L 52.507812 57.542969 L 27.242188 57.542969 Z M 27.242188 50.398438 " clip-rule="nonzero"/></clipPath><clipPath id="50e0e6a75c"><path d="M 15.703125 47.269531 L 89.121094 47.269531 L 89.121094 57.757812 L 15.703125 57.757812 Z M 15.703125 47.269531 " clip-rule="nonzero"/></clipPath></defs><g clip-path="url(#21dad58635)"><g clip-path="url(#50880a6f86)"><path fill="#2d8cfe" d="M 2.21875 2.210938 L 104.265625 2.210938 L 104.265625 104.257812 L 2.21875 104.257812 Z M 2.21875 2.210938 " fill-opacity="1" fill-rule="nonzero"/></g></g><g clip-path="url(#2a47b1dbcd)"><path fill="#2d8cfe" d="M 53.242188 50.398438 L 85.304688 50.398438 L 85.304688 57.542969 L 53.242188 57.542969 Z M 53.242188 50.398438 " fill-opacity="1" fill-rule="nonzero"/></g><g clip-path="url(#fedad7ae78)"><path fill="#000000" d="M 88.855469 15.882812 C 79.09375 6.117188 66.109375 0.742188 52.304688 0.742188 C 38.5 0.742188 25.515625 6.117188 15.753906 15.882812 C 5.992188 25.644531 0.613281 38.625 0.613281 52.429688 C 0.613281 66.238281 5.992188 79.21875 15.753906 88.980469 C 25.515625 98.746094 38.5 104.121094 52.304688 104.121094 C 66.109375 104.121094 79.09375 98.746094 88.855469 88.980469 C 98.617188 79.21875 103.996094 66.238281 103.996094 52.429688 C 103.996094 38.625 98.617188 25.644531 88.855469 15.882812 Z M 86.496094 86.625 C 77.363281 95.757812 65.222656 100.789062 52.304688 100.789062 C 39.386719 100.789062 27.246094 95.757812 18.113281 86.625 C 8.976562 77.492188 3.949219 65.347656 3.949219 52.429688 C 3.949219 39.515625 8.976562 27.371094 18.113281 18.238281 C 27.246094 9.105469 39.386719 4.074219 52.304688 4.074219 C 65.222656 4.074219 77.363281 9.105469 86.496094 18.238281 C 95.632812 27.371094 100.660156 39.515625 100.660156 52.429688 C 100.660156 65.347656 95.632812 77.492188 86.496094 86.625 Z M 86.496094 86.625 " fill-opacity="1" fill-rule="nonzero"/></g><path fill="#000000" d="M 84.140625 20.597656 C 75.636719 12.09375 64.332031 7.410156 52.304688 7.410156 C 40.277344 7.410156 28.972656 12.09375 20.46875 20.597656 C 11.96875 29.101562 7.285156 40.40625 7.285156 52.429688 C 7.285156 64.457031 11.96875 75.761719 20.46875 84.265625 C 28.972656 92.769531 40.277344 97.453125 52.304688 97.453125 C 64.332031 97.453125 75.636719 92.769531 84.140625 84.265625 C 92.640625 75.761719 97.324219 64.457031 97.324219 52.429688 C 97.324219 40.40625 92.640625 29.101562 84.140625 20.597656 Z M 10.617188 52.429688 C 10.617188 29.445312 29.320312 10.746094 52.304688 10.746094 C 63.199219 10.746094 73.128906 14.949219 80.5625 21.816406 L 54.949219 47.429688 L 18.957031 47.429688 C 18.035156 47.429688 17.289062 48.175781 17.289062 49.097656 L 17.289062 55.765625 C 17.289062 56.6875 18.035156 57.433594 18.957031 57.433594 L 44.945312 57.433594 L 21.6875 80.691406 C 14.820312 73.257812 10.617188 63.328125 10.617188 52.429688 Z M 56.328125 50.765625 L 73.980469 50.765625 L 73.980469 54.097656 L 52.996094 54.097656 Z M 51.613281 50.765625 L 48.28125 54.097656 L 27.292969 54.097656 L 27.292969 50.765625 Z M 23.957031 50.765625 L 23.957031 54.097656 L 20.625 54.097656 L 20.625 50.765625 Z M 52.304688 94.117188 C 41.410156 94.117188 31.480469 89.914062 24.046875 83.046875 L 49.660156 57.433594 L 85.652344 57.433594 C 86.574219 57.433594 87.320312 56.6875 87.320312 55.765625 L 87.320312 49.097656 C 87.320312 48.175781 86.574219 47.429688 85.652344 47.429688 L 59.664062 47.429688 L 82.921875 24.171875 C 89.789062 31.605469 93.992188 41.535156 93.992188 52.429688 C 93.992188 75.417969 75.289062 94.117188 52.304688 94.117188 Z M 77.316406 54.097656 L 77.316406 50.765625 L 83.984375 50.765625 L 83.984375 54.097656 Z M 77.316406 54.097656 " fill-opacity="1" fill-rule="nonzero"/><path fill="#000000" d="M 23.957031 45.761719 C 24.878906 45.761719 25.625 45.015625 25.625 44.09375 L 25.625 42.425781 C 25.625 41.507812 26.375 40.757812 27.292969 40.757812 L 37.296875 40.757812 C 40.054688 40.757812 42.300781 38.515625 42.300781 35.757812 C 42.300781 33 40.054688 30.753906 37.296875 30.753906 L 32.296875 30.753906 C 31.375 30.753906 30.628906 30.007812 30.628906 29.085938 C 30.628906 28.167969 31.375 27.421875 32.296875 27.421875 L 47.300781 27.421875 C 48.222656 27.421875 48.96875 26.671875 48.96875 25.753906 C 48.96875 24.832031 48.222656 24.085938 47.300781 24.085938 L 32.296875 24.085938 C 29.535156 24.085938 27.292969 26.328125 27.292969 29.085938 C 27.292969 31.84375 29.535156 34.089844 32.296875 34.089844 L 37.296875 34.089844 C 38.21875 34.089844 38.964844 34.835938 38.964844 35.757812 C 38.964844 36.675781 38.21875 37.425781 37.296875 37.425781 L 27.292969 37.425781 C 24.535156 37.425781 22.289062 39.667969 22.289062 42.425781 L 22.289062 44.09375 C 22.289062 45.015625 23.039062 45.761719 23.957031 45.761719 Z M 23.957031 45.761719 " fill-opacity="1" fill-rule="nonzero"/><g clip-path="url(#e8169472e0)"><path fill="#2d8cfe" d="M 18.382812 49.664062 L 25.804688 49.664062 L 25.804688 56.808594 L 18.382812 56.808594 Z M 18.382812 49.664062 " fill-opacity="1" fill-rule="nonzero"/></g><g clip-path="url(#65a1ad08ea)"><path fill="#ffffff" d="M 27.242188 50.398438 L 52.492188 50.398438 L 52.492188 57.542969 L 27.242188 57.542969 Z M 27.242188 50.398438 " fill-opacity="1" fill-rule="nonzero"/></g><g clip-path="url(#50e0e6a75c)"><path fill="#000000" d="M 89.011719 16.054688 C 79.246094 6.292969 66.265625 0.914062 52.460938 0.914062 C 38.652344 0.914062 25.671875 6.292969 15.910156 16.054688 C 6.148438 25.820312 0.769531 38.800781 0.769531 52.605469 C 0.769531 66.414062 6.148438 79.394531 15.910156 89.15625 C 25.671875 98.917969 38.652344 104.296875 52.460938 104.296875 C 66.265625 104.296875 79.246094 98.917969 89.011719 89.15625 C 98.773438 79.394531 104.152344 66.414062 104.152344 52.605469 C 104.152344 38.800781 98.773438 25.820312 89.011719 16.054688 Z M 86.652344 86.800781 C 77.519531 95.933594 65.375 100.960938 52.460938 100.960938 C 39.542969 100.960938 27.402344 95.933594 18.265625 86.800781 C 9.132812 77.664062 4.105469 65.523438 4.105469 52.605469 C 4.105469 39.691406 9.132812 27.546875 18.265625 18.414062 C 27.402344 9.28125 39.542969 4.25 52.460938 4.25 C 65.375 4.25 77.519531 9.28125 86.652344 18.414062 C 95.785156 27.546875 100.816406 39.691406 100.816406 52.605469 C 100.816406 65.523438 95.785156 77.664062 86.652344 86.800781 Z M 86.652344 86.800781 " fill-opacity="1" fill-rule="nonzero"/><path fill="#000000" d="M 84.296875 20.769531 C 75.792969 12.269531 64.488281 7.585938 52.460938 7.585938 C 40.433594 7.585938 29.128906 12.269531 20.625 20.769531 C 12.121094 29.273438 7.4375 40.578125 7.4375 52.605469 C 7.4375 64.632812 12.121094 75.9375 20.625 84.441406 C 29.128906 92.945312 40.433594 97.628906 52.460938 97.628906 C 64.488281 97.628906 75.792969 92.945312 84.296875 84.441406 C 92.796875 75.9375 97.480469 64.632812 97.480469 52.605469 C 97.480469 40.578125 92.796875 29.273438 84.296875 20.769531 Z M 10.773438 52.605469 C 10.773438 29.621094 29.476562 10.921875 52.460938 10.921875 C 63.355469 10.921875 73.285156 15.121094 80.71875 21.988281 L 55.105469 47.605469 L 19.113281 47.605469 C 18.191406 47.605469 17.445312 48.351562 17.445312 49.269531 L 17.445312 55.941406 C 17.445312 56.863281 18.191406 57.609375 19.113281 57.609375 L 45.101562 57.609375 L 21.84375 80.867188 C 14.976562 73.429688 10.773438 63.5 10.773438 52.605469 Z M 56.484375 50.9375 L 74.136719 50.9375 L 74.136719 54.273438 L 53.148438 54.273438 Z M 51.769531 50.9375 L 48.4375 54.273438 L 27.449219 54.273438 L 27.449219 50.9375 Z M 24.113281 50.9375 L 24.113281 54.273438 L 20.777344 54.273438 L 20.777344 50.9375 Z M 52.460938 94.292969 C 41.566406 94.292969 31.636719 90.089844 24.203125 83.222656 L 49.816406 57.609375 L 85.808594 57.609375 C 86.730469 57.609375 87.476562 56.863281 87.476562 55.941406 L 87.476562 49.269531 C 87.476562 48.351562 86.730469 47.605469 85.808594 47.605469 L 59.820312 47.605469 L 83.078125 24.347656 C 89.945312 31.78125 94.148438 41.710938 94.148438 52.605469 C 94.148438 75.59375 75.445312 94.292969 52.460938 94.292969 Z M 77.472656 54.273438 L 77.472656 50.9375 L 84.140625 50.9375 L 84.140625 54.273438 Z M 77.472656 54.273438 " fill-opacity="1" fill-rule="nonzero"/></g></svg>