<svg xmlns="http://www.w3.org/2000/svg" xmlns:xlink="http://www.w3.org/1999/xlink" width="140" zoomAndPan="magnify" viewBox="0 0 104.88 104.999996" height="140" preserveAspectRatio="xMidYMid meet" version="1.0"><defs><clipPath id="511b35821f"><path d="M 0.417969 0.480469 L 104.460938 0.480469 L 104.460938 104.519531 L 0.417969 104.519531 Z M 0.417969 0.480469 " clip-rule="nonzero"/></clipPath><clipPath id="6917ae3f0b"><path d="M 52.441406 0.480469 C 23.710938 0.480469 0.417969 23.769531 0.417969 52.5 C 0.417969 81.230469 23.710938 104.519531 52.441406 104.519531 C 81.171875 104.519531 104.460938 81.230469 104.460938 52.5 C 104.460938 23.769531 81.171875 0.480469 52.441406 0.480469 Z M 52.441406 0.480469 " clip-rule="nonzero"/></clipPath><clipPath id="813c550403"><path d="M 4.636719 4.695312 L 100.246094 4.695312 L 100.246094 100.304688 L 4.636719 100.304688 Z M 4.636719 4.695312 " clip-rule="nonzero"/></clipPath><clipPath id="3953cd174d"><path d="M 52.441406 4.695312 C 26.039062 4.695312 4.636719 26.097656 4.636719 52.5 C 4.636719 78.902344 26.039062 100.304688 52.441406 100.304688 C 78.839844 100.304688 100.246094 78.902344 100.246094 52.5 C 100.246094 26.097656 78.839844 4.695312 52.441406 4.695312 Z M 52.441406 4.695312 " clip-rule="nonzero"/></clipPath><clipPath id="ccabc42a37"><path d="M 22.972656 20.925781 L 82 20.925781 L 82 80 L 22.972656 80 Z M 22.972656 20.925781 " clip-rule="nonzero"/></clipPath><clipPath id="57124422f2"><path d="M 22.972656 48 L 82 48 L 82 53 L 22.972656 53 Z M 22.972656 48 " clip-rule="nonzero"/></clipPath></defs><g clip-path="url(#511b35821f)"><g clip-path="url(#6917ae3f0b)"><path fill="#191a1d" d="M 0.417969 0.480469 L 104.460938 0.480469 L 104.460938 104.519531 L 0.417969 104.519531 Z M 0.417969 0.480469 " fill-opacity="1" fill-rule="nonzero"/></g></g><g clip-path="url(#813c550403)"><g clip-path="url(#3953cd174d)"><path fill="#2d8cfe" d="M 4.636719 4.695312 L 100.246094 4.695312 L 100.246094 100.304688 L 4.636719 100.304688 Z M 4.636719 4.695312 " fill-opacity="1" fill-rule="nonzero"/></g></g><path fill="#000000" d="M 41.65625 41.902344 C 41.722656 41.839844 41.152344 39.273438 41.132812 38.957031 C 41.082031 37.847656 41.1875 36.730469 41.441406 35.648438 C 41.925781 33.578125 43.105469 31.9375 44.957031 30.859375 C 44.519531 30.894531 44.242188 30.308594 44.40625 29.898438 C 44.566406 29.484375 44.980469 29.234375 45.378906 29.035156 C 49.648438 26.875 55.101562 26.71875 59.078125 29.386719 C 62.890625 31.941406 64.792969 37.300781 62.933594 41.449219 C 62.820312 41.699219 62.917969 41.996094 63.164062 42.113281 C 64.003906 42.496094 64.476562 43.613281 64.265625 44.554688 C 64.046875 45.519531 63.320312 46.277344 62.480469 46.820312 C 62.476562 46.820312 62.476562 46.820312 62.476562 46.820312 C 62.296875 46.9375 62.09375 47.015625 61.875 47.015625 L 42.992188 47.015625 C 42.808594 47.015625 42.625 46.976562 42.472656 46.878906 C 42.441406 46.859375 42.410156 46.839844 42.378906 46.824219 C 41.578125 46.4375 40.957031 45.679688 40.75 44.8125 C 40.503906 43.777344 40.863281 42.621094 41.65625 41.902344 " fill-opacity="1" fill-rule="nonzero"/><path fill="#000000" d="M 70.71875 72.054688 C 70.746094 72.777344 70.160156 73.375 69.4375 73.375 L 35.433594 73.375 C 34.695312 73.375 34.109375 72.75 34.152344 72.011719 C 34.207031 71.105469 34.3125 70.207031 34.488281 69.316406 C 34.949219 67.070312 35.953125 64.863281 37.695312 63.367188 C 39.910156 61.460938 43.003906 60.933594 45.582031 59.671875 C 46.507812 59.21875 47.25 58.429688 47.527344 57.433594 C 47.953125 55.882812 47.035156 54.789062 46.035156 53.757812 L 58.917969 53.757812 C 58.027344 54.578125 57.085938 55.382812 57.453125 57.042969 C 57.605469 57.742188 57.972656 58.386719 58.488281 58.886719 C 59.761719 60.128906 61.515625 60.539062 63.144531 61.144531 C 65.453125 61.996094 67.664062 63.355469 69.007812 65.421875 C 70.125 67.144531 70.53125 69.171875 70.675781 71.25 C 70.695312 71.515625 70.707031 71.785156 70.71875 72.054688 " fill-opacity="1" fill-rule="nonzero"/><g clip-path="url(#ccabc42a37)"><path fill="#000000" d="M 27.648438 76.671875 C 26.820312 76.671875 26.148438 76 26.148438 75.171875 L 26.148438 64.148438 L 22.972656 64.148438 L 22.972656 75.171875 C 22.972656 77.75 25.070312 79.847656 27.648438 79.847656 L 38.671875 79.847656 L 38.671875 76.671875 Z M 78.722656 64.148438 L 78.722656 75.171875 C 78.722656 76 78.046875 76.671875 77.21875 76.671875 L 66.195312 76.671875 L 66.195312 79.847656 L 77.21875 79.847656 C 79.800781 79.847656 81.898438 77.75 81.898438 75.171875 L 81.898438 64.148438 Z M 77.21875 20.925781 L 66.195312 20.925781 L 66.195312 24.101562 L 77.21875 24.101562 C 78.046875 24.101562 78.722656 24.773438 78.722656 25.601562 L 78.722656 36.625 L 81.898438 36.625 L 81.898438 25.601562 C 81.898438 23.019531 79.800781 20.925781 77.21875 20.925781 Z M 27.648438 20.925781 C 25.070312 20.925781 22.972656 23.019531 22.972656 25.601562 L 22.972656 36.625 L 26.148438 36.625 L 26.148438 25.601562 C 26.148438 24.773438 26.820312 24.101562 27.648438 24.101562 L 38.671875 24.101562 L 38.671875 20.925781 L 27.648438 20.925781 " fill-opacity="1" fill-rule="nonzero"/></g><g clip-path="url(#57124422f2)"><path fill="#000000" d="M 81.898438 48.621094 L 81.898438 52.152344 L 22.972656 52.152344 L 22.972656 48.621094 L 81.898438 48.621094 " fill-opacity="1" fill-rule="nonzero"/></g></svg>