<svg xmlns="http://www.w3.org/2000/svg" xmlns:xlink="http://www.w3.org/1999/xlink" width="140" zoomAndPan="magnify" viewBox="0 0 104.88 104.999996" height="140" preserveAspectRatio="xMidYMid meet" version="1.0"><defs><clipPath id="f3f633a382"><path d="M 0.402344 0.460938 L 104.480469 0.460938 L 104.480469 104.539062 L 0.402344 104.539062 Z M 0.402344 0.460938 " clip-rule="nonzero"/></clipPath><clipPath id="1e230e1b7b"><path d="M 52.441406 0.460938 C 23.699219 0.460938 0.402344 23.757812 0.402344 52.5 C 0.402344 81.242188 23.699219 104.539062 52.441406 104.539062 C 81.179688 104.539062 104.480469 81.242188 104.480469 52.5 C 104.480469 23.757812 81.179688 0.460938 52.441406 0.460938 Z M 52.441406 0.460938 " clip-rule="nonzero"/></clipPath><clipPath id="34a1f2a8b3"><path d="M 4.574219 4.824219 L 100.664062 4.824219 L 100.664062 100.175781 L 4.574219 100.175781 Z M 4.574219 4.824219 " clip-rule="nonzero"/></clipPath><clipPath id="9f58ebe996"><path d="M 52.441406 4.824219 C 26.003906 4.824219 4.574219 26.171875 4.574219 52.5 C 4.574219 78.828125 26.003906 100.175781 52.441406 100.175781 C 78.875 100.175781 100.308594 78.828125 100.308594 52.5 C 100.308594 26.171875 78.875 4.824219 52.441406 4.824219 Z M 52.441406 4.824219 " clip-rule="nonzero"/></clipPath><clipPath id="e9ccaaca6c"><path d="M 47 25.128906 L 87 25.128906 L 87 64 L 47 64 Z M 47 25.128906 " clip-rule="nonzero"/></clipPath><clipPath id="3e02de90bc"><path d="M 16.421875 37 L 64 37 L 64 72 L 16.421875 72 Z M 16.421875 37 " clip-rule="nonzero"/></clipPath><clipPath id="8d378dc503"><path d="M 32 62 L 50 62 L 50 79.816406 L 32 79.816406 Z M 32 62 " clip-rule="nonzero"/></clipPath></defs><g clip-path="url(#f3f633a382)"><g clip-path="url(#1e230e1b7b)"><path fill="#2d8cfe" d="M 0.402344 0.460938 L 104.480469 0.460938 L 104.480469 104.539062 L 0.402344 104.539062 Z M 0.402344 0.460938 " fill-opacity="1" fill-rule="nonzero"/></g></g><g clip-path="url(#34a1f2a8b3)"><g clip-path="url(#9f58ebe996)"><path fill="#2d8cfe" d="M 4.574219 4.824219 L 100.292969 4.824219 L 100.292969 100.175781 L 4.574219 100.175781 Z M 4.574219 4.824219 " fill-opacity="1" fill-rule="nonzero"/></g></g><path fill="#000000" d="M 58.292969 26.257812 C 60.753906 26.988281 62.148438 29.570312 61.417969 32.027344 C 60.6875 34.476562 58.101562 35.875 55.648438 35.144531 C 53.195312 34.414062 51.796875 31.835938 52.527344 29.382812 C 53.257812 26.925781 55.839844 25.53125 58.292969 26.257812 Z M 58.292969 26.257812 " fill-opacity="1" fill-rule="evenodd"/><g clip-path="url(#e9ccaaca6c)"><path fill="#000000" d="M 67.171875 25.5 C 66.117188 25.800781 65.507812 26.898438 65.804688 27.953125 L 67.101562 32.554688 L 62.238281 35.691406 L 58.242188 38.003906 C 58.074219 38.097656 57.917969 38.210938 57.789062 38.351562 L 53.34375 43.332031 L 48.730469 44.46875 C 46.113281 45.121094 47.164062 49.054688 49.757812 48.308594 L 54.914062 47.023438 C 55.265625 46.925781 55.589844 46.738281 55.84375 46.472656 L 58.878906 42.984375 L 64.933594 51.152344 C 65.148438 51.4375 65.421875 51.664062 65.734375 51.824219 L 71.550781 55.125 L 71.917969 60.820312 C 72.121094 63.917969 76.671875 63.6875 76.417969 60.59375 L 75.785156 52.929688 C 75.621094 52.296875 75.191406 51.765625 74.617188 51.460938 L 69.757812 48.675781 L 77.472656 47.109375 L 83.542969 50.082031 C 86.4375 51.433594 88.351562 46.976562 85.375 45.800781 L 78.617188 42.535156 C 78.183594 42.347656 77.695312 42.296875 77.222656 42.390625 L 70.191406 43.820312 L 65.839844 38.09375 L 70.464844 35.109375 C 71.1875 34.644531 71.53125 33.757812 71.308594 32.929688 L 69.640625 26.925781 C 69.367188 25.835938 68.25 25.1875 67.171875 25.5 Z M 67.171875 25.5 " fill-opacity="1" fill-rule="nonzero"/></g><g clip-path="url(#3e02de90bc)"><path fill="#000000" d="M 57.140625 58.007812 C 58.332031 58.03125 59.460938 58.941406 59.9375 59.800781 C 60.824219 61.386719 60.527344 63.25 59.238281 63.996094 C 57.941406 64.746094 56.160156 64.082031 55.25 62.511719 C 54.34375 60.941406 54.664062 59.0625 55.953125 58.316406 C 56.34375 58.09375 56.746094 58.003906 57.140625 58.007812 Z M 22.121094 41.839844 L 28.316406 41.839844 C 29.664062 41.839844 30.507812 42.335938 31.441406 43.09375 L 41.082031 50.945312 C 41.617188 51.382812 41.59375 52.199219 40.898438 52.199219 L 22.121094 52.199219 C 21.4375 52.199219 20.871094 51.636719 20.871094 50.945312 L 20.871094 43.09375 C 20.871094 42.402344 21.4375 41.839844 22.121094 41.839844 Z M 16.441406 37.515625 L 16.441406 71.046875 L 29.867188 71.046875 C 29.867188 64.832031 34.898438 59.792969 41.109375 59.792969 C 44.089844 59.792969 46.949219 60.980469 49.054688 63.089844 C 51.160156 65.199219 52.347656 68.0625 52.347656 71.046875 L 59.875 71.046875 C 61.691406 71.046875 63.152344 69.324219 63.152344 67.199219 L 63.152344 58.082031 C 63.152344 56.527344 61.863281 55.644531 60.351562 55.273438 L 52.136719 53.289062 C 49.914062 52.75 48.9375 52.171875 47.417969 50.636719 L 34.640625 39.808594 C 33.0625 38.214844 31.660156 37.515625 29.414062 37.515625 Z M 16.441406 37.515625 " fill-opacity="1" fill-rule="nonzero"/></g><g clip-path="url(#8d378dc503)"><path fill="#000000" d="M 41.101562 74.265625 C 42.886719 74.265625 44.324219 72.824219 44.324219 71.046875 C 44.324219 69.265625 42.886719 67.820312 41.101562 67.820312 C 39.324219 67.820312 37.882812 69.265625 37.882812 71.046875 C 37.882812 72.824219 39.324219 74.265625 41.101562 74.265625 Z M 41.101562 79.636719 C 36.363281 79.636719 32.519531 75.792969 32.519531 71.046875 C 32.519531 66.296875 36.363281 62.445312 41.101562 62.445312 C 43.382812 62.445312 45.570312 63.355469 47.175781 64.964844 C 48.792969 66.578125 49.695312 68.769531 49.695312 71.046875 C 49.695312 75.792969 45.847656 79.636719 41.101562 79.636719 Z M 41.101562 79.636719 " fill-opacity="1" fill-rule="nonzero"/></g></svg>