<svg xmlns="http://www.w3.org/2000/svg" xmlns:xlink="http://www.w3.org/1999/xlink" width="600" zoomAndPan="magnify" viewBox="0 0 450 637.499986" height="850" preserveAspectRatio="xMidYMid meet" version="1.0"><defs><filter x="0%" y="0%" width="100%" height="100%" id="bacfff9e17"><feColorMatrix values="0 0 0 0 1 0 0 0 0 1 0 0 0 0 1 0 0 0 1 0" color-interpolation-filters="sRGB"/></filter><clipPath id="cf5ab8ff45"><path d="M 3 25 L 449.824219 25 L 449.824219 625 L 3 625 Z M 3 25 " clip-rule="nonzero"/></clipPath><mask id="7664093a21"><g filter="url(#bacfff9e17)"><rect x="-45" width="540" fill="#000000" y="-63.749999" height="764.999983" fill-opacity="0.39"/></g></mask><clipPath id="9653afc872"><path d="M 233 414 L 446.660156 414 L 446.660156 599.839844 L 233 599.839844 Z M 233 414 " clip-rule="nonzero"/></clipPath><clipPath id="cff5834669"><path d="M 0.761719 356 L 116 356 L 116 455 L 0.761719 455 Z M 0.761719 356 " clip-rule="nonzero"/></clipPath><clipPath id="cb6f7112d1"><path d="M 165 1.058594 L 279 1.058594 L 279 50 L 165 50 Z M 165 1.058594 " clip-rule="nonzero"/></clipPath><clipPath id="65fb9c0fcc"><rect x="0" width="447" y="0" height="600"/></clipPath><clipPath id="f58fe0e302"><path d="M 299.171875 66.8125 L 304.546875 66.8125 L 304.546875 79.8125 L 299.171875 79.8125 Z M 299.171875 66.8125 " clip-rule="nonzero"/></clipPath></defs><g clip-path="url(#cf5ab8ff45)"><g mask="url(#7664093a21)"><g transform="matrix(1, 0, 0, 1, 3, 25)"><g clip-path="url(#65fb9c0fcc)"><path fill="#2d8cfe" d="M 215.429688 112.691406 L 267.207031 202.371094 L 215.429688 292.050781 L 111.878906 292.050781 L 60.101562 202.371094 L 111.878906 112.691406 L 215.429688 112.691406 M 217.046875 109.894531 L 110.261719 109.894531 L 56.867188 202.371094 L 110.261719 294.851562 L 217.046875 294.851562 L 270.441406 202.371094 Z M 217.046875 109.894531 " fill-opacity="1" fill-rule="nonzero"/><g clip-path="url(#9653afc872)"><path fill="#2d8cfe" d="M 391.789062 417.5 L 443.566406 507.179688 L 391.789062 596.859375 L 288.238281 596.859375 L 236.460938 507.179688 L 288.238281 417.5 L 391.789062 417.5 M 393.40625 414.703125 L 286.617188 414.703125 L 233.226562 507.179688 L 286.617188 599.660156 L 393.40625 599.660156 L 446.796875 507.179688 Z M 393.40625 414.703125 " fill-opacity="1" fill-rule="nonzero"/></g><path fill="#2d8cfe" d="M 273.890625 202.371094 C 273.890625 202.867188 273.839844 203.359375 273.742188 203.84375 C 273.648438 204.328125 273.503906 204.800781 273.316406 205.257812 C 273.125 205.714844 272.894531 206.152344 272.617188 206.5625 C 272.34375 206.972656 272.03125 207.355469 271.679688 207.707031 C 271.328125 208.054688 270.949219 208.367188 270.535156 208.644531 C 270.125 208.917969 269.691406 209.152344 269.230469 209.339844 C 268.773438 209.53125 268.304688 209.671875 267.816406 209.769531 C 267.332031 209.867188 266.839844 209.914062 266.347656 209.914062 C 265.851562 209.914062 265.359375 209.867188 264.875 209.769531 C 264.386719 209.671875 263.917969 209.53125 263.460938 209.339844 C 263 209.152344 262.566406 208.917969 262.15625 208.644531 C 261.742188 208.367188 261.363281 208.054688 261.011719 207.707031 C 260.660156 207.355469 260.347656 206.972656 260.074219 206.5625 C 259.796875 206.152344 259.566406 205.714844 259.375 205.257812 C 259.1875 204.800781 259.042969 204.328125 258.949219 203.84375 C 258.851562 203.359375 258.800781 202.867188 258.800781 202.371094 C 258.800781 201.875 258.851562 201.386719 258.949219 200.898438 C 259.042969 200.414062 259.1875 199.941406 259.375 199.484375 C 259.566406 199.027344 259.796875 198.59375 260.074219 198.179688 C 260.347656 197.769531 260.660156 197.386719 261.011719 197.039062 C 261.363281 196.6875 261.742188 196.375 262.15625 196.101562 C 262.566406 195.824219 263 195.59375 263.460938 195.402344 C 263.917969 195.214844 264.386719 195.070312 264.875 194.972656 C 265.359375 194.878906 265.851562 194.828125 266.347656 194.828125 C 266.839844 194.828125 267.332031 194.878906 267.816406 194.972656 C 268.304688 195.070312 268.773438 195.214844 269.230469 195.402344 C 269.691406 195.59375 270.125 195.824219 270.535156 196.101562 C 270.949219 196.375 271.328125 196.6875 271.679688 197.039062 C 272.03125 197.386719 272.34375 197.769531 272.617188 198.179688 C 272.894531 198.59375 273.125 199.027344 273.316406 199.484375 C 273.503906 199.941406 273.648438 200.414062 273.742188 200.898438 C 273.839844 201.386719 273.890625 201.875 273.890625 202.371094 Z M 273.890625 202.371094 " fill-opacity="1" fill-rule="nonzero"/><path fill="#2d8cfe" d="M 223.175781 111.054688 C 223.175781 111.550781 223.125 112.042969 223.03125 112.527344 C 222.933594 113.011719 222.789062 113.484375 222.601562 113.941406 C 222.410156 114.398438 222.179688 114.835938 221.902344 115.246094 C 221.628906 115.660156 221.316406 116.039062 220.964844 116.390625 C 220.617188 116.738281 220.234375 117.050781 219.824219 117.328125 C 219.410156 117.601562 218.976562 117.835938 218.519531 118.023438 C 218.0625 118.214844 217.589844 118.359375 217.101562 118.453125 C 216.617188 118.550781 216.128906 118.597656 215.632812 118.597656 C 215.136719 118.597656 214.644531 118.550781 214.160156 118.453125 C 213.675781 118.359375 213.203125 118.214844 212.746094 118.023438 C 212.289062 117.835938 211.851562 117.601562 211.441406 117.328125 C 211.027344 117.050781 210.648438 116.738281 210.296875 116.390625 C 209.949219 116.039062 209.636719 115.660156 209.359375 115.246094 C 209.085938 114.835938 208.851562 114.398438 208.664062 113.941406 C 208.472656 113.484375 208.332031 113.011719 208.234375 112.527344 C 208.136719 112.042969 208.089844 111.550781 208.089844 111.054688 C 208.089844 110.5625 208.136719 110.070312 208.234375 109.585938 C 208.332031 109.097656 208.472656 108.628906 208.664062 108.167969 C 208.851562 107.710938 209.085938 107.277344 209.359375 106.867188 C 209.636719 106.453125 209.949219 106.074219 210.296875 105.722656 C 210.648438 105.371094 211.027344 105.058594 211.441406 104.785156 C 211.851562 104.507812 212.289062 104.277344 212.746094 104.085938 C 213.203125 103.898438 213.675781 103.753906 214.160156 103.65625 C 214.644531 103.5625 215.136719 103.511719 215.632812 103.511719 C 216.128906 103.511719 216.617188 103.5625 217.101562 103.65625 C 217.589844 103.753906 218.0625 103.898438 218.519531 104.085938 C 218.976562 104.277344 219.410156 104.507812 219.824219 104.785156 C 220.234375 105.058594 220.617188 105.371094 220.964844 105.722656 C 221.316406 106.074219 221.628906 106.453125 221.902344 106.867188 C 222.179688 107.277344 222.410156 107.710938 222.601562 108.167969 C 222.789062 108.628906 222.933594 109.097656 223.03125 109.585938 C 223.125 110.070312 223.175781 110.5625 223.175781 111.054688 Z M 223.175781 111.054688 " fill-opacity="1" fill-rule="nonzero"/><path fill="#2d8cfe" d="M 215.429688 312.980469 L 267.207031 402.660156 L 215.429688 492.339844 L 111.878906 492.339844 L 60.101562 402.660156 L 111.878906 312.980469 L 215.429688 312.980469 M 217.046875 310.179688 L 110.261719 310.179688 L 56.867188 402.660156 L 110.261719 495.136719 L 217.046875 495.136719 L 270.441406 402.660156 Z M 217.046875 310.179688 " fill-opacity="1" fill-rule="nonzero"/><path fill="#2d8cfe" d="M 222.855469 312.648438 C 222.855469 313.140625 222.804688 313.632812 222.710938 314.117188 C 222.613281 314.605469 222.46875 315.074219 222.28125 315.53125 C 222.089844 315.992188 221.859375 316.425781 221.582031 316.835938 C 221.308594 317.25 220.996094 317.628906 220.644531 317.980469 C 220.296875 318.332031 219.914062 318.644531 219.503906 318.917969 C 219.089844 319.195312 218.65625 319.425781 218.199219 319.617188 C 217.742188 319.804688 217.269531 319.949219 216.78125 320.042969 C 216.296875 320.140625 215.808594 320.191406 215.3125 320.191406 C 214.816406 320.191406 214.324219 320.140625 213.839844 320.042969 C 213.355469 319.949219 212.882812 319.804688 212.425781 319.617188 C 211.96875 319.425781 211.53125 319.195312 211.121094 318.917969 C 210.710938 318.644531 210.328125 318.332031 209.976562 317.980469 C 209.628906 317.628906 209.316406 317.25 209.039062 316.835938 C 208.765625 316.425781 208.53125 315.992188 208.34375 315.53125 C 208.152344 315.074219 208.011719 314.605469 207.914062 314.117188 C 207.816406 313.632812 207.769531 313.140625 207.769531 312.648438 C 207.769531 312.152344 207.816406 311.660156 207.914062 311.175781 C 208.011719 310.6875 208.152344 310.21875 208.34375 309.761719 C 208.53125 309.300781 208.765625 308.867188 209.039062 308.457031 C 209.316406 308.042969 209.628906 307.664062 209.976562 307.3125 C 210.328125 306.960938 210.710938 306.648438 211.121094 306.375 C 211.53125 306.097656 211.96875 305.867188 212.425781 305.675781 C 212.882812 305.488281 213.355469 305.34375 213.839844 305.25 C 214.324219 305.152344 214.816406 305.105469 215.3125 305.105469 C 215.808594 305.105469 216.296875 305.152344 216.78125 305.25 C 217.269531 305.34375 217.742188 305.488281 218.199219 305.675781 C 218.65625 305.867188 219.089844 306.097656 219.503906 306.375 C 219.914062 306.648438 220.296875 306.960938 220.644531 307.3125 C 220.996094 307.664062 221.308594 308.042969 221.582031 308.457031 C 221.859375 308.867188 222.089844 309.300781 222.28125 309.761719 C 222.46875 310.21875 222.613281 310.6875 222.710938 311.175781 C 222.804688 311.660156 222.855469 312.152344 222.855469 312.648438 Z M 222.855469 312.648438 " fill-opacity="1" fill-rule="nonzero"/><path fill="#2d8cfe" d="M 274.476562 402.660156 C 274.476562 403.152344 274.425781 403.644531 274.332031 404.128906 C 274.234375 404.617188 274.089844 405.085938 273.902344 405.546875 C 273.710938 406.003906 273.480469 406.4375 273.203125 406.847656 C 272.929688 407.261719 272.617188 407.640625 272.265625 407.992188 C 271.914062 408.34375 271.535156 408.65625 271.121094 408.929688 C 270.710938 409.207031 270.277344 409.4375 269.820312 409.628906 C 269.359375 409.816406 268.890625 409.960938 268.402344 410.058594 C 267.917969 410.152344 267.425781 410.203125 266.933594 410.203125 C 266.4375 410.203125 265.945312 410.152344 265.460938 410.058594 C 264.976562 409.960938 264.503906 409.816406 264.046875 409.628906 C 263.589844 409.4375 263.152344 409.207031 262.742188 408.929688 C 262.328125 408.65625 261.949219 408.34375 261.597656 407.992188 C 261.25 407.640625 260.9375 407.261719 260.660156 406.847656 C 260.386719 406.4375 260.152344 406.003906 259.964844 405.546875 C 259.773438 405.085938 259.628906 404.617188 259.535156 404.128906 C 259.4375 403.644531 259.390625 403.152344 259.390625 402.660156 C 259.390625 402.164062 259.4375 401.671875 259.535156 401.1875 C 259.628906 400.703125 259.773438 400.230469 259.964844 399.773438 C 260.152344 399.316406 260.386719 398.878906 260.660156 398.46875 C 260.9375 398.054688 261.25 397.675781 261.597656 397.324219 C 261.949219 396.976562 262.328125 396.664062 262.742188 396.386719 C 263.152344 396.113281 263.589844 395.878906 264.046875 395.691406 C 264.503906 395.5 264.976562 395.355469 265.460938 395.261719 C 265.945312 395.164062 266.4375 395.117188 266.933594 395.117188 C 267.425781 395.117188 267.917969 395.164062 268.402344 395.261719 C 268.890625 395.355469 269.359375 395.5 269.820312 395.691406 C 270.277344 395.878906 270.710938 396.113281 271.121094 396.386719 C 271.535156 396.664062 271.914062 396.976562 272.265625 397.324219 C 272.617188 397.675781 272.929688 398.054688 273.203125 398.46875 C 273.480469 398.878906 273.710938 399.316406 273.902344 399.773438 C 274.089844 400.230469 274.234375 400.703125 274.332031 401.1875 C 274.425781 401.671875 274.476562 402.164062 274.476562 402.660156 Z M 274.476562 402.660156 " fill-opacity="1" fill-rule="nonzero"/><path fill="#2d8cfe" d="M 294.566406 416.007812 C 294.566406 416.503906 294.519531 416.996094 294.421875 417.480469 C 294.324219 417.964844 294.179688 418.4375 293.992188 418.894531 C 293.800781 419.351562 293.570312 419.789062 293.296875 420.199219 C 293.019531 420.609375 292.707031 420.992188 292.355469 421.34375 C 292.007812 421.691406 291.625 422.003906 291.214844 422.28125 C 290.800781 422.554688 290.367188 422.789062 289.910156 422.976562 C 289.453125 423.167969 288.980469 423.308594 288.496094 423.40625 C 288.007812 423.503906 287.519531 423.550781 287.023438 423.550781 C 286.527344 423.550781 286.039062 423.503906 285.550781 423.40625 C 285.066406 423.308594 284.59375 423.167969 284.136719 422.976562 C 283.679688 422.789062 283.246094 422.554688 282.832031 422.28125 C 282.421875 422.003906 282.039062 421.691406 281.6875 421.34375 C 281.339844 420.992188 281.027344 420.609375 280.75 420.199219 C 280.476562 419.789062 280.242188 419.351562 280.054688 418.894531 C 279.863281 418.4375 279.722656 417.964844 279.625 417.480469 C 279.527344 416.996094 279.480469 416.503906 279.480469 416.007812 C 279.480469 415.511719 279.527344 415.023438 279.625 414.535156 C 279.722656 414.050781 279.863281 413.578125 280.054688 413.121094 C 280.242188 412.664062 280.476562 412.230469 280.75 411.816406 C 281.027344 411.40625 281.339844 411.023438 281.6875 410.675781 C 282.039062 410.324219 282.421875 410.011719 282.832031 409.738281 C 283.246094 409.460938 283.679688 409.230469 284.136719 409.039062 C 284.59375 408.851562 285.066406 408.707031 285.550781 408.609375 C 286.039062 408.511719 286.527344 408.464844 287.023438 408.464844 C 287.519531 408.464844 288.007812 408.511719 288.496094 408.609375 C 288.980469 408.707031 289.453125 408.851562 289.910156 409.039062 C 290.367188 409.230469 290.800781 409.460938 291.214844 409.738281 C 291.625 410.011719 292.007812 410.324219 292.355469 410.675781 C 292.707031 411.023438 293.019531 411.40625 293.296875 411.816406 C 293.570312 412.230469 293.800781 412.664062 293.992188 413.121094 C 294.179688 413.578125 294.324219 414.050781 294.421875 414.535156 C 294.519531 415.023438 294.566406 415.511719 294.566406 416.007812 Z M 294.566406 416.007812 " fill-opacity="1" fill-rule="nonzero"/><path fill="#2d8cfe" d="M 399.667969 416.183594 C 399.667969 416.679688 399.621094 417.167969 399.523438 417.652344 C 399.429688 418.140625 399.285156 418.613281 399.09375 419.070312 C 398.90625 419.527344 398.671875 419.960938 398.398438 420.375 C 398.125 420.785156 397.8125 421.167969 397.460938 421.515625 C 397.109375 421.867188 396.730469 422.179688 396.316406 422.453125 C 395.90625 422.730469 395.472656 422.960938 395.011719 423.152344 C 394.554688 423.339844 394.082031 423.484375 393.597656 423.582031 C 393.113281 423.675781 392.621094 423.726562 392.125 423.726562 C 391.632812 423.726562 391.140625 423.675781 390.65625 423.582031 C 390.167969 423.484375 389.699219 423.339844 389.238281 423.152344 C 388.78125 422.960938 388.347656 422.730469 387.9375 422.453125 C 387.523438 422.179688 387.144531 421.867188 386.792969 421.515625 C 386.441406 421.167969 386.128906 420.785156 385.855469 420.375 C 385.578125 419.960938 385.347656 419.527344 385.15625 419.070312 C 384.96875 418.613281 384.824219 418.140625 384.726562 417.652344 C 384.632812 417.167969 384.582031 416.679688 384.582031 416.183594 C 384.582031 415.6875 384.632812 415.195312 384.726562 414.710938 C 384.824219 414.226562 384.96875 413.753906 385.15625 413.296875 C 385.347656 412.839844 385.578125 412.402344 385.855469 411.992188 C 386.128906 411.578125 386.441406 411.199219 386.792969 410.847656 C 387.144531 410.5 387.523438 410.1875 387.9375 409.910156 C 388.347656 409.636719 388.78125 409.402344 389.238281 409.214844 C 389.699219 409.023438 390.167969 408.882812 390.65625 408.785156 C 391.140625 408.6875 391.632812 408.640625 392.125 408.640625 C 392.621094 408.640625 393.113281 408.6875 393.597656 408.785156 C 394.082031 408.882812 394.554688 409.023438 395.011719 409.214844 C 395.472656 409.402344 395.90625 409.636719 396.316406 409.910156 C 396.730469 410.1875 397.109375 410.5 397.460938 410.847656 C 397.8125 411.199219 398.125 411.578125 398.398438 411.992188 C 398.671875 412.402344 398.90625 412.839844 399.09375 413.296875 C 399.285156 413.753906 399.429688 414.226562 399.523438 414.710938 C 399.621094 415.195312 399.667969 415.6875 399.667969 416.183594 Z M 399.667969 416.183594 " fill-opacity="1" fill-rule="nonzero"/><path fill="#2d8cfe" d="M 316.121094 342.617188 L 316.46875 342.617188 C 316.464844 342.558594 316.464844 342.5 316.464844 342.441406 C 316.464844 342.367188 316.46875 342.292969 316.472656 342.21875 L 316.121094 342.21875 C 316.117188 342.292969 316.113281 342.367188 316.113281 342.441406 C 316.109375 342.5 316.113281 342.558594 316.121094 342.617188 Z M 316.121094 342.617188 " fill-opacity="1" fill-rule="nonzero"/><path fill="#2d8cfe" d="M 311.519531 405.378906 L 283.164062 405.378906 L 270.488281 383.421875 C 270.28125 383.542969 270.058594 383.640625 269.824219 383.707031 L 282.75 406.097656 L 311.933594 406.097656 L 324.914062 383.609375 C 324.691406 383.515625 324.480469 383.398438 324.289062 383.257812 Z M 311.519531 405.378906 " fill-opacity="1" fill-rule="nonzero"/><path fill="#2d8cfe" d="M 283.164062 356.261719 L 294.855469 356.261719 L 295.269531 355.546875 L 282.75 355.546875 L 269.824219 377.933594 C 270.058594 378.003906 270.28125 378.097656 270.488281 378.21875 Z M 283.164062 356.261719 " fill-opacity="1" fill-rule="nonzero"/><path fill="#2d8cfe" d="M 324.289062 378.386719 C 324.480469 378.246094 324.691406 378.125 324.917969 378.035156 L 319.824219 369.214844 L 319.410156 369.929688 Z M 324.289062 378.386719 " fill-opacity="1" fill-rule="nonzero"/><path fill="#2d8cfe" d="M 319.179688 369.53125 L 319.59375 368.8125 L 311.933594 355.546875 L 295.730469 355.546875 L 295.316406 356.261719 L 311.519531 356.261719 Z M 319.179688 369.53125 " fill-opacity="1" fill-rule="nonzero"/><path fill="#2d8cfe" d="M 303.199219 342.617188 L 316.121094 342.617188 C 316.117188 342.558594 316.113281 342.5 316.113281 342.441406 C 316.113281 342.367188 316.117188 342.292969 316.121094 342.21875 L 302.96875 342.21875 L 295.269531 355.546875 L 295.730469 355.546875 Z M 303.199219 342.617188 " fill-opacity="1" fill-rule="nonzero"/><path fill="#2d8cfe" d="M 319.1875 370.3125 L 319.410156 369.929688 L 319.179688 369.53125 L 318.957031 369.914062 L 303.199219 369.914062 L 295.316406 356.261719 L 294.859375 356.261719 L 302.96875 370.3125 Z M 319.1875 370.3125 " fill-opacity="1" fill-rule="nonzero"/><path fill="#2d8cfe" d="M 326.839844 356.261719 L 319.59375 368.8125 L 319.824219 369.214844 L 327.296875 356.265625 L 320.699219 344.835938 C 320.589844 344.914062 320.476562 344.980469 320.355469 345.042969 Z M 326.839844 356.261719 " fill-opacity="1" fill-rule="nonzero"/><path fill="#2d8cfe" d="M 319.179688 369.53125 L 319.410156 369.929688 L 319.824219 369.210938 L 319.59375 368.8125 Z M 319.179688 369.53125 " fill-opacity="1" fill-rule="nonzero"/><path fill="#2d8cfe" d="M 295.316406 356.261719 L 295.730469 355.546875 L 295.269531 355.546875 L 294.859375 356.261719 Z M 295.316406 356.261719 " fill-opacity="1" fill-rule="nonzero"/><path fill="#2d8cfe" d="M 319.03125 345.363281 C 319.511719 345.363281 319.960938 345.246094 320.359375 345.039062 L 320.183594 344.738281 C 319.839844 344.910156 319.445312 345.015625 319.035156 345.015625 C 317.675781 345.015625 316.5625 343.953125 316.472656 342.617188 L 316.121094 342.617188 C 316.210938 344.144531 317.480469 345.363281 319.03125 345.363281 Z M 319.03125 345.363281 " fill-opacity="1" fill-rule="nonzero"/><path fill="#2d8cfe" d="M 319.03125 339.867188 C 320.449219 339.867188 321.601562 341.019531 321.601562 342.441406 C 321.601562 343.300781 321.175781 344.0625 320.523438 344.53125 L 320.703125 344.835938 C 321.457031 344.308594 321.953125 343.429688 321.953125 342.441406 C 321.953125 340.828125 320.644531 339.519531 319.035156 339.519531 C 317.5 339.519531 316.238281 340.710938 316.125 342.21875 L 316.476562 342.21875 C 316.585938 340.902344 317.691406 339.867188 319.03125 339.867188 Z M 319.03125 339.867188 " fill-opacity="1" fill-rule="nonzero"/><path fill="#2d8cfe" d="M 320.183594 344.738281 L 320.355469 345.039062 C 320.472656 344.976562 320.589844 344.910156 320.699219 344.835938 L 320.523438 344.53125 C 320.414062 344.605469 320.300781 344.675781 320.183594 344.738281 Z M 320.183594 344.738281 " fill-opacity="1" fill-rule="nonzero"/><path fill="#2d8cfe" d="M 323.566406 380.820312 C 323.566406 380.011719 323.953125 379.292969 324.558594 378.839844 L 324.292969 378.386719 C 323.539062 378.933594 323.039062 379.820312 323.039062 380.824219 C 323.039062 381.828125 323.535156 382.714844 324.292969 383.261719 L 324.558594 382.804688 C 323.953125 382.347656 323.566406 381.628906 323.566406 380.820312 Z M 323.566406 380.820312 " fill-opacity="1" fill-rule="nonzero"/><path fill="#2d8cfe" d="M 326.046875 377.8125 C 325.648438 377.8125 325.265625 377.894531 324.917969 378.035156 L 325.183594 378.496094 C 325.453125 378.398438 325.746094 378.339844 326.046875 378.339844 C 327.417969 378.339844 328.53125 379.453125 328.53125 380.824219 C 328.53125 382.195312 327.417969 383.308594 326.046875 383.308594 C 325.742188 383.308594 325.453125 383.25 325.183594 383.148438 L 324.917969 383.609375 C 325.265625 383.753906 325.648438 383.832031 326.046875 383.832031 C 327.707031 383.832031 329.058594 382.484375 329.058594 380.824219 C 329.058594 379.164062 327.707031 377.8125 326.046875 377.8125 Z M 326.046875 377.8125 " fill-opacity="1" fill-rule="nonzero"/><path fill="#2d8cfe" d="M 324.554688 378.839844 C 324.742188 378.699219 324.957031 378.578125 325.183594 378.496094 L 324.917969 378.035156 C 324.695312 378.125 324.484375 378.246094 324.289062 378.382812 Z M 324.554688 378.839844 " fill-opacity="1" fill-rule="nonzero"/><path fill="#2d8cfe" d="M 324.558594 382.800781 L 324.292969 383.257812 C 324.484375 383.398438 324.695312 383.515625 324.921875 383.605469 L 325.1875 383.144531 C 324.957031 383.0625 324.746094 382.945312 324.558594 382.800781 Z M 324.558594 382.800781 " fill-opacity="1" fill-rule="nonzero"/><path fill="#2d8cfe" d="M 271.992188 380.820312 C 271.992188 379.710938 271.386719 378.738281 270.488281 378.21875 L 270.226562 378.671875 C 270.96875 379.101562 271.46875 379.902344 271.46875 380.820312 C 271.46875 381.738281 270.964844 382.539062 270.226562 382.96875 L 270.488281 383.421875 C 271.386719 382.902344 271.992188 381.933594 271.992188 380.820312 Z M 271.992188 380.820312 " fill-opacity="1" fill-rule="nonzero"/><path fill="#2d8cfe" d="M 268.988281 383.304688 C 267.617188 383.304688 266.503906 382.191406 266.503906 380.820312 C 266.503906 379.449219 267.617188 378.335938 268.988281 378.335938 C 269.179688 378.335938 269.371094 378.363281 269.550781 378.402344 L 269.824219 377.933594 C 269.558594 377.855469 269.277344 377.8125 268.988281 377.8125 C 267.328125 377.8125 265.976562 379.160156 265.976562 380.820312 C 265.976562 382.480469 267.328125 383.832031 268.988281 383.832031 C 269.277344 383.832031 269.558594 383.785156 269.824219 383.710938 L 269.550781 383.238281 C 269.371094 383.28125 269.179688 383.304688 268.988281 383.304688 Z M 268.988281 383.304688 " fill-opacity="1" fill-rule="nonzero"/><path fill="#2d8cfe" d="M 270.226562 378.671875 L 270.488281 378.21875 C 270.28125 378.097656 270.058594 378 269.824219 377.933594 L 269.550781 378.40625 C 269.792969 378.460938 270.019531 378.550781 270.226562 378.671875 Z M 270.226562 378.671875 " fill-opacity="1" fill-rule="nonzero"/><path fill="#2d8cfe" d="M 270.226562 382.96875 C 270.019531 383.089844 269.792969 383.179688 269.550781 383.238281 L 269.824219 383.707031 C 270.058594 383.636719 270.28125 383.542969 270.488281 383.421875 Z M 270.226562 382.96875 " fill-opacity="1" fill-rule="nonzero"/><path fill="#2d8cfe" d="M 212.851562 568.898438 L 184.496094 568.898438 L 171.820312 546.941406 C 171.613281 547.0625 171.390625 547.15625 171.15625 547.226562 L 184.082031 569.617188 L 213.265625 569.617188 L 226.25 547.128906 C 226.027344 547.035156 225.816406 546.917969 225.621094 546.777344 Z M 212.851562 568.898438 " fill-opacity="1" fill-rule="nonzero"/><path fill="#2d8cfe" d="M 184.496094 519.78125 L 196.1875 519.78125 L 196.605469 519.066406 L 184.082031 519.066406 L 171.15625 541.453125 C 171.394531 541.523438 171.613281 541.617188 171.820312 541.738281 Z M 184.496094 519.78125 " fill-opacity="1" fill-rule="nonzero"/><path fill="#2d8cfe" d="M 225.625 541.902344 C 225.816406 541.761719 226.027344 541.644531 226.25 541.554688 L 221.15625 532.730469 L 220.742188 533.445312 Z M 225.625 541.902344 " fill-opacity="1" fill-rule="nonzero"/><path fill="#2d8cfe" d="M 220.511719 533.046875 L 220.925781 532.332031 L 213.269531 519.066406 L 197.066406 519.066406 L 196.648438 519.78125 L 212.851562 519.78125 Z M 220.511719 533.046875 " fill-opacity="1" fill-rule="nonzero"/><path fill="#2d8cfe" d="M 204.53125 506.132812 L 217.453125 506.132812 C 217.449219 506.074219 217.445312 506.019531 217.445312 505.960938 C 217.445312 505.886719 217.449219 505.808594 217.457031 505.734375 L 204.300781 505.734375 L 196.605469 519.066406 L 197.066406 519.066406 Z M 204.53125 506.132812 " fill-opacity="1" fill-rule="nonzero"/><path fill="#2d8cfe" d="M 220.519531 533.832031 L 220.742188 533.445312 L 220.511719 533.046875 L 220.289062 533.433594 L 204.53125 533.433594 L 196.648438 519.78125 L 196.1875 519.78125 L 204.300781 533.832031 Z M 220.519531 533.832031 " fill-opacity="1" fill-rule="nonzero"/><path fill="#2d8cfe" d="M 228.171875 519.78125 L 220.925781 532.332031 L 221.15625 532.730469 L 228.628906 519.78125 L 222.03125 508.355469 C 221.925781 508.429688 221.808594 508.496094 221.6875 508.558594 Z M 228.171875 519.78125 " fill-opacity="1" fill-rule="nonzero"/><path fill="#2d8cfe" d="M 220.511719 533.046875 L 220.742188 533.445312 L 221.15625 532.730469 L 220.925781 532.332031 Z M 220.511719 533.046875 " fill-opacity="1" fill-rule="nonzero"/><path fill="#2d8cfe" d="M 196.648438 519.78125 L 197.066406 519.066406 L 196.605469 519.066406 L 196.1875 519.78125 Z M 196.648438 519.78125 " fill-opacity="1" fill-rule="nonzero"/><path fill="#2d8cfe" d="M 220.363281 508.882812 C 220.84375 508.882812 221.292969 508.765625 221.691406 508.558594 L 221.519531 508.253906 C 221.171875 508.429688 220.78125 508.527344 220.367188 508.527344 C 219.011719 508.527344 217.894531 507.46875 217.804688 506.132812 L 217.457031 506.132812 C 217.542969 507.664062 218.8125 508.882812 220.363281 508.882812 Z M 220.363281 508.882812 " fill-opacity="1" fill-rule="nonzero"/><path fill="#2d8cfe" d="M 220.363281 503.386719 C 221.785156 503.386719 222.9375 504.539062 222.9375 505.960938 C 222.9375 506.820312 222.507812 507.582031 221.859375 508.050781 L 222.035156 508.355469 C 222.789062 507.828125 223.289062 506.949219 223.289062 505.960938 C 223.289062 504.347656 221.976562 503.039062 220.367188 503.039062 C 218.832031 503.039062 217.574219 504.230469 217.457031 505.734375 L 217.808594 505.734375 C 217.917969 504.421875 219.019531 503.386719 220.363281 503.386719 Z M 220.363281 503.386719 " fill-opacity="1" fill-rule="nonzero"/><path fill="#2d8cfe" d="M 221.515625 508.253906 L 221.6875 508.558594 C 221.808594 508.496094 221.921875 508.429688 222.03125 508.355469 L 221.855469 508.050781 C 221.75 508.125 221.636719 508.195312 221.515625 508.253906 Z M 221.515625 508.253906 " fill-opacity="1" fill-rule="nonzero"/><path fill="#2d8cfe" d="M 224.894531 544.339844 C 224.894531 543.53125 225.285156 542.8125 225.886719 542.359375 L 225.625 541.90625 C 224.867188 542.453125 224.371094 543.339844 224.371094 544.34375 C 224.371094 545.347656 224.867188 546.234375 225.625 546.78125 L 225.886719 546.324219 C 225.289062 545.867188 224.894531 545.148438 224.894531 544.339844 Z M 224.894531 544.339844 " fill-opacity="1" fill-rule="nonzero"/><path fill="#2d8cfe" d="M 227.378906 541.332031 C 226.980469 541.332031 226.597656 541.410156 226.25 541.554688 L 226.515625 542.015625 C 226.785156 541.914062 227.078125 541.855469 227.378906 541.855469 C 228.75 541.855469 229.863281 542.96875 229.863281 544.339844 C 229.863281 545.710938 228.75 546.824219 227.378906 546.824219 C 227.074219 546.824219 226.785156 546.765625 226.515625 546.664062 L 226.25 547.128906 C 226.597656 547.269531 226.980469 547.351562 227.378906 547.351562 C 229.039062 547.351562 230.390625 546 230.390625 544.339844 C 230.390625 542.679688 229.039062 541.332031 227.378906 541.332031 Z M 227.378906 541.332031 " fill-opacity="1" fill-rule="nonzero"/><path fill="#2d8cfe" d="M 225.886719 542.359375 C 226.078125 542.21875 226.289062 542.097656 226.515625 542.015625 L 226.25 541.554688 C 226.027344 541.644531 225.816406 541.761719 225.625 541.902344 Z M 225.886719 542.359375 " fill-opacity="1" fill-rule="nonzero"/><path fill="#2d8cfe" d="M 225.886719 546.320312 L 225.625 546.777344 C 225.816406 546.917969 226.027344 547.035156 226.25 547.125 L 226.515625 546.664062 C 226.289062 546.582031 226.078125 546.464844 225.886719 546.320312 Z M 225.886719 546.320312 " fill-opacity="1" fill-rule="nonzero"/><path fill="#2d8cfe" d="M 173.328125 544.339844 C 173.328125 543.230469 172.71875 542.257812 171.820312 541.738281 L 171.558594 542.191406 C 172.300781 542.621094 172.800781 543.421875 172.800781 544.339844 C 172.800781 545.257812 172.300781 546.058594 171.558594 546.488281 L 171.820312 546.941406 C 172.71875 546.421875 173.328125 545.453125 173.328125 544.339844 Z M 173.328125 544.339844 " fill-opacity="1" fill-rule="nonzero"/><path fill="#2d8cfe" d="M 170.320312 546.824219 C 168.949219 546.824219 167.835938 545.710938 167.835938 544.339844 C 167.835938 542.96875 168.949219 541.855469 170.320312 541.855469 C 170.515625 541.855469 170.703125 541.882812 170.886719 541.921875 L 171.15625 541.449219 C 170.890625 541.375 170.609375 541.332031 170.320312 541.332031 C 168.660156 541.332031 167.308594 542.679688 167.308594 544.339844 C 167.308594 546 168.660156 547.351562 170.320312 547.351562 C 170.613281 547.351562 170.890625 547.304688 171.15625 547.230469 L 170.886719 546.757812 C 170.703125 546.800781 170.515625 546.824219 170.320312 546.824219 Z M 170.320312 546.824219 " fill-opacity="1" fill-rule="nonzero"/><path fill="#2d8cfe" d="M 171.558594 542.191406 L 171.820312 541.738281 C 171.613281 541.617188 171.390625 541.523438 171.15625 541.453125 L 170.886719 541.925781 C 171.125 541.980469 171.351562 542.070312 171.558594 542.191406 Z M 171.558594 542.191406 " fill-opacity="1" fill-rule="nonzero"/><path fill="#2d8cfe" d="M 171.558594 546.488281 C 171.351562 546.609375 171.125 546.699219 170.886719 546.753906 L 171.15625 547.226562 C 171.394531 547.15625 171.613281 547.0625 171.820312 546.941406 Z M 171.558594 546.488281 " fill-opacity="1" fill-rule="nonzero"/><path fill="#2d8cfe" d="M 279.085938 297.070312 C 278.574219 297.070312 278.101562 296.894531 277.726562 296.601562 L 277.199219 297.515625 C 277.589844 297.792969 278.042969 297.988281 278.535156 298.074219 L 279.113281 297.070312 C 279.101562 297.070312 279.09375 297.070312 279.085938 297.070312 Z M 279.085938 297.070312 " fill-opacity="1" fill-rule="nonzero"/><path fill="#2d8cfe" d="M 277.726562 293.097656 C 278.101562 292.808594 278.574219 292.628906 279.085938 292.628906 C 279.09375 292.628906 279.101562 292.628906 279.113281 292.632812 L 278.53125 291.632812 C 278.039062 291.714844 277.585938 291.90625 277.195312 292.1875 Z M 277.726562 293.097656 " fill-opacity="1" fill-rule="nonzero"/><path fill="#2d8cfe" d="M 196.707031 245.738281 L 250.378906 245.738281 L 277.195312 292.1875 C 277.585938 291.910156 278.039062 291.714844 278.53125 291.632812 L 251.207031 244.304688 L 196.777344 244.304688 C 196.808594 244.484375 196.828125 244.671875 196.828125 244.863281 C 196.828125 245.167969 196.78125 245.457031 196.707031 245.738281 Z M 196.707031 245.738281 " fill-opacity="1" fill-rule="nonzero"/><path fill="#2d8cfe" d="M 250.378906 343.964844 L 193.664062 343.964844 L 165.308594 294.851562 L 192.40625 247.917969 C 191.949219 247.746094 191.539062 247.476562 191.203125 247.128906 L 163.652344 294.851562 L 192.835938 345.402344 L 251.207031 345.402344 L 278.53125 298.074219 C 278.039062 297.992188 277.585938 297.796875 277.191406 297.519531 Z M 250.378906 343.964844 " fill-opacity="1" fill-rule="nonzero"/><path fill="#2d8cfe" d="M 276.863281 294.851562 C 276.863281 294.136719 277.203125 293.507812 277.726562 293.097656 L 277.199219 292.183594 C 276.363281 292.777344 275.816406 293.75 275.816406 294.851562 C 275.816406 295.949219 276.363281 296.921875 277.199219 297.515625 L 277.726562 296.601562 C 277.203125 296.195312 276.863281 295.5625 276.863281 294.851562 Z M 276.863281 294.851562 " fill-opacity="1" fill-rule="nonzero"/><path fill="#2d8cfe" d="M 279.085938 291.578125 C 278.894531 291.578125 278.714844 291.601562 278.53125 291.632812 L 279.109375 292.632812 C 280.324219 292.644531 281.304688 293.636719 281.304688 294.851562 C 281.304688 296.070312 280.324219 297.058594 279.109375 297.074219 L 278.53125 298.074219 C 278.710938 298.105469 278.894531 298.125 279.085938 298.125 C 280.890625 298.125 282.355469 296.660156 282.355469 294.855469 C 282.355469 293.046875 280.890625 291.578125 279.085938 291.578125 Z M 279.085938 291.578125 " fill-opacity="1" fill-rule="nonzero"/><path fill="#2d8cfe" d="M 196.707031 245.738281 L 195.601562 245.738281 C 195.257812 246.527344 194.472656 247.085938 193.558594 247.085938 C 193.34375 247.085938 193.136719 247.050781 192.941406 246.996094 L 192.40625 247.917969 C 192.765625 248.054688 193.152344 248.132812 193.554688 248.132812 C 195.058594 248.132812 196.320312 247.117188 196.707031 245.738281 Z M 196.707031 245.738281 " fill-opacity="1" fill-rule="nonzero"/><path fill="#2d8cfe" d="M 191.335938 244.863281 C 191.335938 243.636719 192.335938 242.640625 193.558594 242.640625 C 194.589844 242.640625 195.457031 243.347656 195.703125 244.304688 L 196.777344 244.304688 C 196.511719 242.765625 195.171875 241.589844 193.558594 241.589844 C 191.753906 241.589844 190.289062 243.058594 190.289062 244.863281 C 190.289062 245.742188 190.636719 246.542969 191.207031 247.128906 L 191.761719 246.164062 C 191.496094 245.800781 191.335938 245.347656 191.335938 244.863281 Z M 191.335938 244.863281 " fill-opacity="1" fill-rule="nonzero"/><path fill="#2d8cfe" d="M 192.40625 247.917969 L 192.941406 246.996094 C 192.460938 246.855469 192.050781 246.558594 191.761719 246.164062 L 191.207031 247.128906 C 191.539062 247.476562 191.949219 247.75 192.40625 247.917969 Z M 192.40625 247.917969 " fill-opacity="1" fill-rule="nonzero"/><path fill="#2d8cfe" d="M 195.777344 244.863281 C 195.777344 245.171875 195.714844 245.46875 195.601562 245.738281 L 196.707031 245.738281 C 196.78125 245.457031 196.828125 245.167969 196.828125 244.863281 C 196.828125 244.667969 196.808594 244.484375 196.777344 244.300781 L 195.703125 244.300781 C 195.75 244.480469 195.777344 244.667969 195.777344 244.863281 Z M 195.777344 244.863281 " fill-opacity="1" fill-rule="nonzero"/><path fill="#2d8cfe" d="M 116.179688 406.234375 C 115.667969 406.234375 115.199219 406.058594 114.820312 405.765625 L 114.292969 406.679688 C 114.683594 406.957031 115.140625 407.152344 115.628906 407.234375 L 116.210938 406.234375 C 116.199219 406.234375 116.191406 406.234375 116.179688 406.234375 Z M 116.179688 406.234375 " fill-opacity="1" fill-rule="nonzero"/><path fill="#2d8cfe" d="M 114.820312 402.261719 C 115.199219 401.96875 115.667969 401.792969 116.179688 401.792969 C 116.1875 401.792969 116.195312 401.792969 116.207031 401.792969 L 115.628906 400.792969 C 115.136719 400.875 114.683594 401.066406 114.289062 401.347656 Z M 114.820312 402.261719 " fill-opacity="1" fill-rule="nonzero"/><path fill="#2d8cfe" d="M 33.800781 354.902344 L 87.472656 354.902344 L 114.289062 401.351562 C 114.683594 401.074219 115.136719 400.878906 115.628906 400.792969 L 88.304688 353.464844 L 33.875 353.464844 C 33.902344 353.648438 33.925781 353.835938 33.925781 354.027344 C 33.925781 354.328125 33.882812 354.621094 33.800781 354.902344 Z M 33.800781 354.902344 " fill-opacity="1" fill-rule="nonzero"/><g clip-path="url(#cff5834669)"><path fill="#2d8cfe" d="M 87.476562 453.128906 L 30.765625 453.128906 L 2.40625 404.015625 L 29.503906 357.085938 C 29.046875 356.910156 28.636719 356.640625 28.300781 356.296875 L 0.75 404.019531 L 29.933594 454.570312 L 88.304688 454.570312 L 115.628906 407.242188 C 115.136719 407.15625 114.683594 406.964844 114.289062 406.683594 Z M 87.476562 453.128906 " fill-opacity="1" fill-rule="nonzero"/></g><path fill="#2d8cfe" d="M 113.960938 404.015625 C 113.960938 403.300781 114.296875 402.667969 114.820312 402.261719 L 114.292969 401.347656 C 113.457031 401.941406 112.910156 402.914062 112.910156 404.015625 C 112.910156 405.113281 113.457031 406.085938 114.292969 406.679688 L 114.820312 405.765625 C 114.296875 405.359375 113.960938 404.726562 113.960938 404.015625 Z M 113.960938 404.015625 " fill-opacity="1" fill-rule="nonzero"/><path fill="#2d8cfe" d="M 116.179688 400.742188 C 115.992188 400.742188 115.808594 400.761719 115.628906 400.792969 L 116.207031 401.796875 C 117.421875 401.808594 118.402344 402.800781 118.402344 404.015625 C 118.402344 405.234375 117.417969 406.222656 116.207031 406.238281 L 115.628906 407.238281 C 115.808594 407.269531 115.992188 407.289062 116.179688 407.289062 C 117.984375 407.289062 119.453125 405.820312 119.453125 404.019531 C 119.453125 402.210938 117.988281 400.742188 116.179688 400.742188 Z M 116.179688 400.742188 " fill-opacity="1" fill-rule="nonzero"/><path fill="#2d8cfe" d="M 33.800781 354.902344 L 32.695312 354.902344 C 32.355469 355.691406 31.566406 356.246094 30.652344 356.246094 C 30.4375 356.246094 30.234375 356.214844 30.035156 356.160156 L 29.5 357.082031 C 29.859375 357.21875 30.246094 357.296875 30.652344 357.296875 C 32.15625 357.296875 33.421875 356.277344 33.800781 354.902344 Z M 33.800781 354.902344 " fill-opacity="1" fill-rule="nonzero"/><path fill="#2d8cfe" d="M 28.433594 354.023438 C 28.433594 352.800781 29.429688 351.804688 30.652344 351.804688 C 31.6875 351.804688 32.550781 352.511719 32.800781 353.464844 L 33.875 353.464844 C 33.605469 351.929688 32.265625 350.753906 30.652344 350.753906 C 28.851562 350.753906 27.382812 352.222656 27.382812 354.023438 C 27.382812 354.90625 27.734375 355.703125 28.300781 356.292969 L 28.859375 355.328125 C 28.59375 354.960938 28.433594 354.511719 28.433594 354.023438 Z M 28.433594 354.023438 " fill-opacity="1" fill-rule="nonzero"/><path fill="#2d8cfe" d="M 29.503906 357.082031 L 30.039062 356.15625 C 29.558594 356.019531 29.148438 355.722656 28.859375 355.328125 L 28.304688 356.292969 C 28.636719 356.640625 29.046875 356.910156 29.503906 357.082031 Z M 29.503906 357.082031 " fill-opacity="1" fill-rule="nonzero"/><path fill="#2d8cfe" d="M 32.875 354.023438 C 32.875 354.335938 32.808594 354.632812 32.695312 354.902344 L 33.800781 354.902344 C 33.878906 354.621094 33.925781 354.328125 33.925781 354.023438 C 33.925781 353.832031 33.902344 353.648438 33.875 353.464844 L 32.800781 353.464844 C 32.847656 353.644531 32.875 353.832031 32.875 354.023438 Z M 32.875 354.023438 " fill-opacity="1" fill-rule="nonzero"/><path fill="#2d8cfe" d="M 159.144531 63.117188 L 186.152344 109.894531 L 157.792969 159.007812 L 101.082031 159.007812 L 72.726562 109.894531 L 101.082031 60.78125 L 154.855469 60.78125 C 154.800781 60.542969 154.765625 60.296875 154.765625 60.042969 C 154.765625 59.804688 154.796875 59.570312 154.84375 59.34375 L 100.253906 59.34375 L 71.070312 109.894531 L 100.253906 160.441406 L 158.621094 160.441406 L 187.804688 109.894531 L 160.355469 62.351562 C 160.019531 62.691406 159.605469 62.953125 159.144531 63.117188 Z M 159.144531 63.117188 " fill-opacity="1" fill-rule="nonzero"/><path fill="#2d8cfe" d="M 247.644531 100.855469 L 193.667969 100.855469 L 166.734375 54.203125 C 166.371094 54.519531 165.945312 54.753906 165.472656 54.890625 L 192.839844 102.292969 L 247.710938 102.292969 C 247.636719 102.019531 247.59375 101.730469 247.59375 101.433594 C 247.59375 101.234375 247.613281 101.042969 247.644531 100.855469 Z M 247.644531 100.855469 " fill-opacity="1" fill-rule="nonzero"/><path fill="#2d8cfe" d="M 251.847656 98.3125 C 252.316406 98.460938 252.734375 98.710938 253.085938 99.039062 L 278.507812 55 C 278 54.964844 277.519531 54.816406 277.101562 54.570312 Z M 251.847656 98.3125 " fill-opacity="1" fill-rule="nonzero"/><g clip-path="url(#cb6f7112d1)"><path fill="#2d8cfe" d="M 193.664062 2.628906 L 250.378906 2.628906 L 277.101562 48.914062 C 277.519531 48.671875 278 48.519531 278.507812 48.484375 L 251.207031 1.195312 L 192.835938 1.195312 L 165.46875 48.597656 C 165.941406 48.730469 166.371094 48.96875 166.730469 49.285156 Z M 193.664062 2.628906 " fill-opacity="1" fill-rule="nonzero"/></g><path fill="#2d8cfe" d="M 158.039062 57.824219 C 159.265625 57.824219 160.261719 58.820312 160.261719 60.046875 C 160.261719 60.550781 160.089844 61.015625 159.804688 61.390625 L 160.355469 62.351562 C 160.945312 61.757812 161.308594 60.945312 161.308594 60.046875 C 161.308594 58.242188 159.839844 56.773438 158.039062 56.773438 C 156.476562 56.773438 155.167969 57.878906 154.84375 59.34375 L 155.933594 59.34375 C 156.226562 58.460938 157.058594 57.824219 158.039062 57.824219 Z M 158.039062 57.824219 " fill-opacity="1" fill-rule="nonzero"/><path fill="#2d8cfe" d="M 158.039062 62.265625 C 157.074219 62.265625 156.25 61.644531 155.949219 60.78125 L 154.855469 60.78125 C 155.191406 62.230469 156.492188 63.316406 158.039062 63.316406 C 158.429688 63.316406 158.800781 63.242188 159.148438 63.117188 L 158.609375 62.1875 C 158.425781 62.238281 158.238281 62.265625 158.039062 62.265625 Z M 158.039062 62.265625 " fill-opacity="1" fill-rule="nonzero"/><path fill="#2d8cfe" d="M 154.855469 60.78125 L 155.945312 60.78125 C 155.863281 60.550781 155.816406 60.304688 155.816406 60.042969 C 155.816406 59.800781 155.859375 59.566406 155.933594 59.34375 L 154.84375 59.34375 C 154.796875 59.570312 154.765625 59.804688 154.765625 60.042969 C 154.769531 60.296875 154.800781 60.542969 154.855469 60.78125 Z M 154.855469 60.78125 " fill-opacity="1" fill-rule="nonzero"/><path fill="#2d8cfe" d="M 158.609375 62.1875 L 159.148438 63.117188 C 159.609375 62.953125 160.019531 62.6875 160.359375 62.351562 L 159.804688 61.390625 C 159.507812 61.777344 159.089844 62.0625 158.609375 62.1875 Z M 158.609375 62.1875 " fill-opacity="1" fill-rule="nonzero"/><path fill="#2d8cfe" d="M 164.582031 53.960938 C 163.359375 53.960938 162.363281 52.964844 162.363281 51.742188 C 162.363281 50.515625 163.359375 49.519531 164.582031 49.519531 C 164.699219 49.519531 164.808594 49.53125 164.921875 49.546875 L 165.472656 48.597656 C 165.1875 48.515625 164.890625 48.46875 164.582031 48.46875 C 162.777344 48.46875 161.3125 49.9375 161.3125 51.742188 C 161.3125 53.542969 162.777344 55.011719 164.582031 55.011719 C 164.890625 55.011719 165.1875 54.964844 165.472656 54.886719 L 164.921875 53.933594 C 164.808594 53.953125 164.699219 53.960938 164.582031 53.960938 Z M 164.582031 53.960938 " fill-opacity="1" fill-rule="nonzero"/><path fill="#2d8cfe" d="M 167.851562 51.742188 C 167.851562 50.761719 167.417969 49.882812 166.730469 49.28125 L 166.191406 50.21875 C 166.570312 50.617188 166.804688 51.152344 166.804688 51.742188 C 166.804688 52.335938 166.570312 52.871094 166.191406 53.269531 L 166.730469 54.207031 C 167.417969 53.601562 167.851562 52.722656 167.851562 51.742188 Z M 167.851562 51.742188 " fill-opacity="1" fill-rule="nonzero"/><path fill="#2d8cfe" d="M 166.191406 53.269531 C 165.859375 53.617188 165.417969 53.855469 164.917969 53.933594 L 165.46875 54.886719 C 165.941406 54.753906 166.371094 54.515625 166.730469 54.199219 Z M 166.191406 53.269531 " fill-opacity="1" fill-rule="nonzero"/><path fill="#2d8cfe" d="M 166.191406 50.214844 L 166.730469 49.28125 C 166.371094 48.964844 165.941406 48.730469 165.472656 48.59375 L 164.921875 49.546875 C 165.417969 49.625 165.859375 49.867188 166.191406 50.214844 Z M 166.191406 50.214844 " fill-opacity="1" fill-rule="nonzero"/><path fill="#2d8cfe" d="M 247.644531 100.855469 L 248.71875 100.855469 C 248.972656 99.910156 249.835938 99.207031 250.863281 99.207031 C 251.015625 99.207031 251.164062 99.222656 251.304688 99.25 L 251.847656 98.308594 C 251.535156 98.207031 251.207031 98.15625 250.863281 98.15625 C 249.253906 98.15625 247.917969 99.324219 247.644531 100.855469 Z M 247.644531 100.855469 " fill-opacity="1" fill-rule="nonzero"/><path fill="#2d8cfe" d="M 253.082031 101.429688 C 253.082031 102.652344 252.085938 103.648438 250.863281 103.648438 C 249.941406 103.648438 249.152344 103.085938 248.816406 102.289062 L 247.710938 102.289062 C 248.089844 103.675781 249.359375 104.699219 250.863281 104.699219 C 252.667969 104.699219 254.136719 103.230469 254.136719 101.429688 C 254.136719 100.484375 253.730469 99.636719 253.089844 99.035156 L 252.542969 99.976562 C 252.878906 100.371094 253.082031 100.875 253.082031 101.429688 Z M 253.082031 101.429688 " fill-opacity="1" fill-rule="nonzero"/><path fill="#2d8cfe" d="M 251.304688 99.253906 C 251.796875 99.351562 252.226562 99.613281 252.542969 99.980469 L 253.089844 99.039062 C 252.738281 98.714844 252.316406 98.460938 251.851562 98.3125 Z M 251.304688 99.253906 " fill-opacity="1" fill-rule="nonzero"/><path fill="#2d8cfe" d="M 248.640625 101.429688 C 248.640625 101.230469 248.671875 101.039062 248.71875 100.855469 L 247.644531 100.855469 C 247.613281 101.042969 247.59375 101.230469 247.59375 101.429688 C 247.59375 101.726562 247.636719 102.015625 247.710938 102.289062 L 248.8125 102.289062 C 248.703125 102.023438 248.640625 101.734375 248.640625 101.429688 Z M 248.640625 101.429688 " fill-opacity="1" fill-rule="nonzero"/><path fill="#2d8cfe" d="M 278.734375 48.46875 C 278.65625 48.46875 278.582031 48.476562 278.507812 48.480469 L 279.128906 49.554688 C 280.167969 49.742188 280.957031 50.648438 280.957031 51.742188 C 280.957031 52.828125 280.167969 53.738281 279.128906 53.925781 L 278.507812 55 C 278.582031 55.007812 278.65625 55.011719 278.734375 55.011719 C 280.539062 55.011719 282.003906 53.542969 282.003906 51.742188 C 282.003906 49.9375 280.539062 48.46875 278.734375 48.46875 Z M 278.734375 48.46875 " fill-opacity="1" fill-rule="nonzero"/><path fill="#2d8cfe" d="M 276.515625 51.742188 C 276.515625 50.921875 276.960938 50.203125 277.625 49.820312 L 277.101562 48.910156 C 276.125 49.476562 275.464844 50.53125 275.464844 51.742188 C 275.464844 52.949219 276.125 54.003906 277.101562 54.570312 L 277.625 53.664062 C 276.960938 53.277344 276.515625 52.5625 276.515625 51.742188 Z M 276.515625 51.742188 " fill-opacity="1" fill-rule="nonzero"/><path fill="#2d8cfe" d="M 277.625 49.820312 C 277.953125 49.628906 278.332031 49.519531 278.734375 49.519531 C 278.871094 49.519531 279 49.535156 279.132812 49.558594 L 278.511719 48.484375 C 278.003906 48.519531 277.523438 48.671875 277.101562 48.914062 Z M 277.625 49.820312 " fill-opacity="1" fill-rule="nonzero"/><path fill="#2d8cfe" d="M 278.734375 53.960938 C 278.332031 53.960938 277.953125 53.851562 277.625 53.664062 L 277.101562 54.570312 C 277.519531 54.816406 278 54.964844 278.507812 55 L 279.128906 53.925781 C 279.003906 53.949219 278.871094 53.960938 278.734375 53.960938 Z M 278.734375 53.960938 " fill-opacity="1" fill-rule="nonzero"/></g></g></g></g><g clip-path="url(#f58fe0e302)"><path fill="#ffffff" d="M 299.171875 66.8125 L 304.546875 66.8125 L 304.546875 79.824219 L 299.171875 79.824219 Z M 299.171875 66.8125 " fill-opacity="1" fill-rule="nonzero"/></g></svg>