<svg xmlns="http://www.w3.org/2000/svg" xmlns:xlink="http://www.w3.org/1999/xlink" width="1300" zoomAndPan="magnify" viewBox="0 0 974.88 179.999997" height="240" preserveAspectRatio="xMidYMid meet" version="1.0"><defs><clipPath id="c40f522c25"><path d="M 3.015625 29.75 L 969 29.75 L 969 166.234375 L 3.015625 166.234375 Z M 3.015625 29.75 " clip-rule="nonzero"/></clipPath></defs><g clip-path="url(#c40f522c25)"><path fill="#ffffff" d="M 912.59375 156.457031 C 918.851562 162.714844 927.316406 166.027344 935.785156 166.027344 C 944.25 166.027344 952.714844 162.714844 958.972656 156.457031 C 971.859375 143.574219 971.859375 122.59375 958.972656 109.707031 C 952.714844 103.449219 944.25 100.136719 935.785156 100.136719 C 929.15625 100.136719 922.53125 102.347656 916.640625 106.394531 L 864.003906 53.386719 L -95.285156 53.386719 C -97.863281 40.136719 -109.640625 29.828125 -123.628906 29.828125 C -139.828125 29.828125 -152.710938 42.714844 -152.710938 58.910156 C -152.710938 75.105469 -139.828125 87.988281 -123.628906 87.988281 C -109.640625 87.988281 -97.863281 77.683594 -95.285156 64.429688 L 859.21875 64.429688 L 908.910156 114.125 C 900.078125 127.007812 901.179688 145.046875 912.59375 156.457031 Z M 951.242188 117.808594 C 959.710938 126.273438 959.710938 140.261719 951.242188 148.726562 C 947.195312 152.777344 941.671875 154.984375 935.785156 154.984375 C 929.894531 154.984375 924.371094 152.777344 920.324219 148.726562 C 911.855469 140.261719 911.855469 126.273438 920.324219 117.808594 C 924.371094 113.757812 929.894531 111.550781 935.785156 111.550781 C 941.671875 111.179688 947.195312 113.757812 951.242188 117.808594 Z M 951.242188 117.808594 " fill-opacity="1" fill-rule="nonzero"/></g></svg>