<svg xmlns="http://www.w3.org/2000/svg" xmlns:xlink="http://www.w3.org/1999/xlink" width="600" zoomAndPan="magnify" viewBox="0 0 450 449.999984" height="600" preserveAspectRatio="xMidYMid meet" version="1.0"><defs><clipPath id="c82b9db01f"><path d="M 4.351562 42.867188 L 445.351562 42.867188 L 445.351562 407.367188 L 4.351562 407.367188 Z M 4.351562 42.867188 " clip-rule="nonzero"/></clipPath></defs><g clip-path="url(#c82b9db01f)"><path fill="#2d8cfe" d="M 110.742188 407.132812 C 83.722656 407.132812 59.261719 397.398438 37.367188 377.933594 C 15.472656 358.46875 4.523438 327.882812 4.523438 286.171875 C 4.523438 250.488281 10.578125 217.121094 22.691406 186.070312 C 35.269531 155.019531 52.042969 127.445312 73.007812 103.34375 C 94.4375 78.78125 118.195312 58.621094 144.285156 42.867188 L 184.816406 63.71875 C 176.429688 71.136719 166.414062 82.488281 154.769531 97.785156 C 143.121094 112.613281 132.40625 130.226562 122.621094 150.617188 C 113.304688 171.007812 107.949219 193.019531 106.550781 216.65625 C 134.035156 218.046875 157.097656 227.085938 175.730469 243.769531 C 194.832031 260.453125 204.382812 282.003906 204.382812 308.417969 C 204.382812 339.003906 195.066406 363.105469 176.429688 380.714844 C 157.796875 398.324219 135.898438 407.132812 110.742188 407.132812 Z M 350.4375 407.132812 C 323.882812 407.132812 299.65625 397.398438 277.761719 377.933594 C 256.328125 358.46875 245.613281 327.882812 245.613281 286.171875 C 245.613281 250.488281 251.671875 217.121094 263.785156 186.070312 C 276.363281 155.019531 293.132812 127.445312 314.097656 103.34375 C 335.0625 78.78125 358.355469 58.621094 383.980469 42.867188 L 424.511719 63.71875 C 416.125 71.136719 406.109375 82.488281 394.460938 97.785156 C 382.816406 112.613281 372.332031 130.226562 363.015625 150.617188 C 354.164062 171.007812 349.039062 193.019531 347.640625 216.65625 C 374.195312 218.046875 397.023438 227.085938 416.125 243.769531 C 435.691406 260.453125 445.476562 282.003906 445.476562 308.417969 C 445.476562 339.003906 435.925781 363.105469 416.824219 380.714844 C 397.722656 398.324219 375.59375 407.132812 350.4375 407.132812 Z M 350.4375 407.132812 " fill-opacity="1" fill-rule="nonzero"/></g></svg>