<svg xmlns="http://www.w3.org/2000/svg" xmlns:xlink="http://www.w3.org/1999/xlink" width="440" zoomAndPan="magnify" viewBox="0 0 330 72" height="96" preserveAspectRatio="xMidYMid meet" version="1.0"><path stroke-linecap="butt" transform="matrix(0.75, 0, 0, 0.75, 95.21497, -1.499998)" fill="none" stroke-linejoin="miter" d="M -0.00016891 1.999997 L 168.317546 1.999997 " stroke="#5271ff" stroke-width="4" stroke-opacity="1" stroke-miterlimit="4"/><path fill="#5271ff" d="M 163.457031 0.0234375 C 162.914062 0.0234375 162.472656 0.460938 162.472656 1.007812 C 162.472656 1.550781 162.914062 1.992188 163.457031 1.992188 L 328.777344 1.992188 C 329.320312 1.992188 329.761719 1.550781 329.761719 1.007812 C 329.761719 0.464844 329.320312 0.0234375 328.777344 0.0234375 Z M 163.457031 0.0234375 " fill-opacity="1" fill-rule="nonzero"/><path fill="#5271ff" d="M 166.503906 71.808594 C 167.046875 71.808594 167.488281 71.367188 167.488281 70.820312 C 167.488281 70.277344 167.046875 69.835938 166.503906 69.835938 L 1.183594 69.835938 C 0.640625 69.835938 0.199219 70.277344 0.199219 70.820312 C 0.199219 71.363281 0.640625 71.804688 1.183594 71.804688 L 2.320312 71.808594 Z M 166.503906 71.808594 " fill-opacity="1" fill-rule="nonzero"/><path fill="#5271ff" d="M 166.503906 0.0234375 C 167.046875 0.0234375 167.488281 0.460938 167.488281 1.007812 C 167.488281 1.550781 167.046875 1.992188 166.503906 1.992188 L 1.183594 1.992188 C 0.640625 1.992188 0.199219 1.550781 0.199219 1.007812 C 0.199219 0.464844 0.640625 0.0234375 1.183594 0.0234375 Z M 166.503906 0.0234375 " fill-opacity="1" fill-rule="nonzero"/><path fill="#5271ff" d="M 163.457031 71.808594 C 162.914062 71.808594 162.472656 71.367188 162.472656 70.820312 C 162.472656 70.277344 162.914062 69.835938 163.457031 69.835938 L 328.777344 69.835938 C 329.320312 69.835938 329.761719 70.277344 329.761719 70.820312 C 329.761719 71.363281 329.320312 71.804688 328.777344 71.804688 L 327.644531 71.808594 Z M 163.457031 71.808594 " fill-opacity="1" fill-rule="nonzero"/><path fill="#5271ff" d="M 1.359375 0.0546875 L 1.226562 0.0625 C 0.957031 0.105469 0.742188 0.230469 0.578125 0.4375 C 0.464844 0.613281 0.410156 0.726562 0.410156 0.777344 C 0.386719 0.859375 0.375 0.945312 0.375 1.039062 L 0.375 22.257812 L 2.34375 22.257812 L 2.34375 1.039062 C 2.289062 0.4375 1.960938 0.109375 1.359375 0.0546875 Z M 1.359375 0.0546875 " fill-opacity="1" fill-rule="nonzero"/><path fill="#5271ff" d="M 328.601562 0.0546875 L 328.46875 0.0625 C 328.199219 0.105469 327.984375 0.230469 327.824219 0.4375 C 327.710938 0.613281 327.652344 0.726562 327.652344 0.777344 C 327.628906 0.859375 327.617188 0.945312 327.617188 1.039062 L 327.617188 22.257812 L 329.585938 22.257812 L 329.585938 1.039062 C 329.53125 0.4375 329.203125 0.109375 328.601562 0.0546875 Z M 328.601562 0.0546875 " fill-opacity="1" fill-rule="nonzero"/><path fill="#5271ff" d="M 0.375 49.570312 L 0.375 70.789062 C 0.429688 71.390625 0.757812 71.71875 1.359375 71.773438 C 1.960938 71.71875 2.289062 71.390625 2.34375 70.789062 L 2.34375 49.570312 Z M 0.375 49.570312 " fill-opacity="1" fill-rule="nonzero"/><path fill="#5271ff" d="M 327.617188 49.570312 L 327.617188 70.789062 C 327.675781 71.390625 328.003906 71.71875 328.601562 71.773438 C 329.203125 71.71875 329.53125 71.390625 329.585938 70.789062 L 329.585938 49.570312 Z M 327.617188 49.570312 " fill-opacity="1" fill-rule="nonzero"/></svg>