<svg xmlns="http://www.w3.org/2000/svg" xmlns:xlink="http://www.w3.org/1999/xlink" width="140" zoomAndPan="magnify" viewBox="0 0 104.88 104.999996" height="140" preserveAspectRatio="xMidYMid meet" version="1.0"><defs><clipPath id="cc0d2b7c0f"><path d="M 0.359375 0.777344 L 104.523438 0.777344 L 104.523438 104.9375 L 0.359375 104.9375 Z M 0.359375 0.777344 " clip-rule="nonzero"/></clipPath><clipPath id="e05bf8d1ff"><path d="M 52.441406 0.777344 C 23.675781 0.777344 0.359375 24.09375 0.359375 52.859375 C 0.359375 81.621094 23.675781 104.941406 52.441406 104.941406 C 81.203125 104.941406 104.523438 81.621094 104.523438 52.859375 C 104.523438 24.09375 81.203125 0.777344 52.441406 0.777344 Z M 52.441406 0.777344 " clip-rule="nonzero"/></clipPath><clipPath id="fcfc29e10e"><path d="M 3.832031 4.25 L 101.046875 4.25 L 101.046875 101.46875 L 3.832031 101.46875 Z M 3.832031 4.25 " clip-rule="nonzero"/></clipPath><clipPath id="4a9f4f20a1"><path d="M 52.441406 4.25 C 25.59375 4.25 3.832031 26.011719 3.832031 52.859375 C 3.832031 79.703125 25.59375 101.46875 52.441406 101.46875 C 79.285156 101.46875 101.046875 79.703125 101.046875 52.859375 C 101.046875 26.011719 79.285156 4.25 52.441406 4.25 Z M 52.441406 4.25 " clip-rule="nonzero"/></clipPath><clipPath id="85ef8764d5"><path d="M 33.648438 21.011719 L 71.800781 21.011719 L 71.800781 84.597656 L 33.648438 84.597656 Z M 33.648438 21.011719 " clip-rule="nonzero"/></clipPath><clipPath id="36d121d0a7"><path d="M 38.773438 29.875 L 66.105469 29.875 L 66.105469 72.105469 L 38.773438 72.105469 Z M 38.773438 29.875 " clip-rule="nonzero"/></clipPath></defs><g clip-path="url(#cc0d2b7c0f)"><g clip-path="url(#e05bf8d1ff)"><path fill="#dde5ee" d="M 0.359375 0.777344 L 104.523438 0.777344 L 104.523438 104.941406 L 0.359375 104.941406 Z M 0.359375 0.777344 " fill-opacity="1" fill-rule="nonzero"/></g></g><g clip-path="url(#fcfc29e10e)"><g clip-path="url(#4a9f4f20a1)"><path fill="#dde5ee" d="M 3.832031 4.25 L 101.046875 4.25 L 101.046875 101.46875 L 3.832031 101.46875 Z M 3.832031 4.25 " fill-opacity="1" fill-rule="nonzero"/></g></g><g clip-path="url(#85ef8764d5)"><path fill="#000000" d="M 39.523438 21.011719 C 39.523438 21.011719 33.652344 21.011719 33.652344 26.792969 L 33.652344 78.816406 C 33.652344 84.597656 39.523438 84.597656 39.523438 84.597656 L 65.929688 84.597656 C 65.929688 84.597656 71.800781 84.597656 71.800781 78.816406 L 71.800781 26.792969 C 71.800781 21.011719 65.929688 21.011719 65.929688 21.011719 Z M 36.886719 28.007812 L 36.886719 73.789062 L 68.566406 73.789062 L 68.566406 28.007812 Z M 52.726562 81.707031 C 53.941406 81.707031 54.925781 80.738281 54.925781 79.539062 C 54.925781 78.34375 53.941406 77.371094 52.726562 77.371094 C 51.511719 77.371094 50.527344 78.34375 50.527344 79.539062 C 50.527344 80.738281 51.511719 81.707031 52.726562 81.707031 Z M 46.039062 23.902344 C 45.679688 23.902344 45.390625 24.179688 45.390625 24.539062 L 45.390625 24.707031 C 45.390625 25.0625 45.683594 25.347656 46.039062 25.347656 L 59.414062 25.347656 C 59.773438 25.347656 60.0625 25.066406 60.0625 24.707031 L 60.0625 24.539062 C 60.0625 24.1875 59.769531 23.902344 59.414062 23.902344 Z M 46.039062 23.902344 " fill-opacity="1" fill-rule="evenodd"/></g><g clip-path="url(#36d121d0a7)"><path fill="#787878" d="M 38.773438 29.875 L 66.105469 29.875 L 66.105469 72.15625 L 38.773438 72.15625 Z M 38.773438 29.875 " fill-opacity="1" fill-rule="nonzero"/></g></svg>