<svg xmlns="http://www.w3.org/2000/svg" xmlns:xlink="http://www.w3.org/1999/xlink" width="140" zoomAndPan="magnify" viewBox="0 0 104.88 104.999996" height="140" preserveAspectRatio="xMidYMid meet" version="1.0"><defs><clipPath id="2129a0fe2c"><path d="M 0 0.0585938 L 104.761719 0.0585938 L 104.761719 104.9375 L 0 104.9375 Z M 0 0.0585938 " clip-rule="nonzero"/></clipPath><clipPath id="7412c534e6"><path d="M 52.441406 0.0585938 C 23.476562 0.0585938 0 23.539062 0 52.5 C 0 81.460938 23.476562 104.941406 52.441406 104.941406 C 81.402344 104.941406 104.878906 81.460938 104.878906 52.5 C 104.878906 23.539062 81.402344 0.0585938 52.441406 0.0585938 Z M 52.441406 0.0585938 " clip-rule="nonzero"/></clipPath><clipPath id="0c801d8938"><path d="M 4.152344 4.210938 L 100.730469 4.210938 L 100.730469 100.789062 L 4.152344 100.789062 Z M 4.152344 4.210938 " clip-rule="nonzero"/></clipPath><clipPath id="acf132a3d8"><path d="M 52.441406 4.210938 C 25.769531 4.210938 4.152344 25.832031 4.152344 52.5 C 4.152344 79.167969 25.769531 100.789062 52.441406 100.789062 C 79.109375 100.789062 100.730469 79.167969 100.730469 52.5 C 100.730469 25.832031 79.109375 4.210938 52.441406 4.210938 Z M 52.441406 4.210938 " clip-rule="nonzero"/></clipPath><clipPath id="a2b5a6086f"><path d="M 0 0.0585938 L 81 0.0585938 L 81 104.9375 L 0 104.9375 Z M 0 0.0585938 " clip-rule="nonzero"/></clipPath><clipPath id="dbcdac706e"><path d="M 26 0.0585938 L 104.761719 0.0585938 L 104.761719 104.9375 L 26 104.9375 Z M 26 0.0585938 " clip-rule="nonzero"/></clipPath><clipPath id="a537aee977"><path d="M 27.578125 35.539062 L 76.820312 35.539062 L 76.820312 101.707031 L 27.578125 101.707031 Z M 27.578125 35.539062 " clip-rule="nonzero"/></clipPath><clipPath id="cf69e68b8d"><path d="M 52.199219 35.652344 L 76.820312 68.679688 L 60.304688 68.679688 L 60.304688 101.707031 L 44.09375 101.707031 L 44.09375 68.679688 L 27.578125 68.679688 Z M 52.199219 35.652344 " clip-rule="nonzero"/></clipPath><clipPath id="5dd16e3816"><path d="M 36.023438 40.734375 L 68.382812 40.734375 L 68.382812 100.777344 L 36.023438 100.777344 Z M 36.023438 40.734375 " clip-rule="nonzero"/></clipPath><clipPath id="263f60cd6b"><path d="M 52.203125 40.738281 L 68.382812 64.238281 L 56.632812 64.238281 L 56.632812 100.777344 L 47.773438 100.777344 L 47.773438 64.238281 L 36.023438 64.238281 Z M 52.203125 40.738281 " clip-rule="nonzero"/></clipPath></defs><g clip-path="url(#2129a0fe2c)"><g clip-path="url(#7412c534e6)"><path fill="#000000" d="M 0 0.0585938 L 104.878906 0.0585938 L 104.878906 104.941406 L 0 104.941406 Z M 0 0.0585938 " fill-opacity="1" fill-rule="nonzero"/></g></g><g clip-path="url(#0c801d8938)"><g clip-path="url(#acf132a3d8)"><path fill="#dde5ee" d="M 4.152344 4.210938 L 100.730469 4.210938 L 100.730469 100.789062 L 4.152344 100.789062 Z M 4.152344 4.210938 " fill-opacity="1" fill-rule="nonzero"/></g></g><g clip-path="url(#a2b5a6086f)"><path stroke-linecap="butt" transform="matrix(0.608721, -1.023511, 1.023511, 0.608721, 6.579373, 77.001091)" fill="none" stroke-linejoin="miter" d="M -0.000755594 1.999086 L 73.044146 1.999951 " stroke="#000000" stroke-width="4" stroke-opacity="1" stroke-miterlimit="4"/></g><g clip-path="url(#dbcdac706e)"><path stroke-linecap="butt" transform="matrix(0.595423, 1.031303, -1.031303, 0.595423, 55.237925, 2.728145)" fill="none" stroke-linejoin="miter" d="M -0.000549711 1.999234 L 72.055492 2.000687 " stroke="#000000" stroke-width="4" stroke-opacity="1" stroke-miterlimit="4"/></g><g clip-path="url(#a537aee977)"><g clip-path="url(#cf69e68b8d)"><path fill="#000000" d="M 76.820312 101.707031 L 27.578125 101.707031 L 27.578125 35.730469 L 76.820312 35.730469 Z M 76.820312 101.707031 " fill-opacity="1" fill-rule="nonzero"/></g></g><g clip-path="url(#5dd16e3816)"><g clip-path="url(#263f60cd6b)"><path fill="#2d8cfe" d="M 68.382812 100.777344 L 36.023438 100.777344 L 36.023438 40.734375 L 68.382812 40.734375 Z M 68.382812 100.777344 " fill-opacity="1" fill-rule="nonzero"/></g></g></svg>