<svg xmlns="http://www.w3.org/2000/svg" xmlns:xlink="http://www.w3.org/1999/xlink" width="140" zoomAndPan="magnify" viewBox="0 0 104.88 104.999996" height="140" preserveAspectRatio="xMidYMid meet" version="1.0"><defs><clipPath id="8936fc3040"><path d="M 0.464844 0.523438 L 104.414062 0.523438 L 104.414062 104.476562 L 0.464844 104.476562 Z M 0.464844 0.523438 " clip-rule="nonzero"/></clipPath><clipPath id="b6b6c56aa5"><path d="M 52.441406 0.523438 C 23.734375 0.523438 0.464844 23.792969 0.464844 52.5 C 0.464844 81.207031 23.734375 104.476562 52.441406 104.476562 C 81.144531 104.476562 104.414062 81.207031 104.414062 52.5 C 104.414062 23.792969 81.144531 0.523438 52.441406 0.523438 Z M 52.441406 0.523438 " clip-rule="nonzero"/></clipPath><clipPath id="0e9e247514"><path d="M 4.578125 4.636719 L 100.300781 4.636719 L 100.300781 100.363281 L 4.578125 100.363281 Z M 4.578125 4.636719 " clip-rule="nonzero"/></clipPath><clipPath id="ea9f10d2c5"><path d="M 52.441406 4.636719 C 26.007812 4.636719 4.578125 26.066406 4.578125 52.5 C 4.578125 78.933594 26.007812 100.363281 52.441406 100.363281 C 78.875 100.363281 100.300781 78.933594 100.300781 52.5 C 100.300781 26.066406 78.875 4.636719 52.441406 4.636719 Z M 52.441406 4.636719 " clip-rule="nonzero"/></clipPath><clipPath id="aed92faffc"><path d="M 34 59 L 72 59 L 72 91.601562 L 34 91.601562 Z M 34 59 " clip-rule="nonzero"/></clipPath><clipPath id="a832778897"><path d="M 40 13.691406 L 66 13.691406 L 66 38 L 40 38 Z M 40 13.691406 " clip-rule="nonzero"/></clipPath></defs><g clip-path="url(#8936fc3040)"><g clip-path="url(#b6b6c56aa5)"><path fill="#dde5ee" d="M 0.464844 0.523438 L 104.414062 0.523438 L 104.414062 104.476562 L 0.464844 104.476562 Z M 0.464844 0.523438 " fill-opacity="1" fill-rule="nonzero"/></g></g><g clip-path="url(#0e9e247514)"><g clip-path="url(#ea9f10d2c5)"><path fill="#dde5ee" d="M 4.578125 4.636719 L 100.300781 4.636719 L 100.300781 100.363281 L 4.578125 100.363281 Z M 4.578125 4.636719 " fill-opacity="1" fill-rule="nonzero"/></g></g><g clip-path="url(#aed92faffc)"><path fill="#000000" d="M 54.25 91.601562 L 52.199219 91.601562 C 42.53125 91.601562 34.691406 83.714844 34.691406 74.050781 L 34.691406 60.738281 C 34.691406 60.238281 35.101562 59.828125 35.605469 59.828125 C 36.105469 59.828125 36.515625 60.238281 36.515625 60.738281 L 36.515625 74.050781 C 36.515625 82.710938 43.535156 89.777344 52.199219 89.777344 L 54.25 89.777344 C 62.910156 89.777344 69.933594 82.710938 69.933594 74.050781 L 69.933594 60.738281 C 69.933594 60.238281 70.34375 59.828125 70.84375 59.828125 C 71.34375 59.828125 71.753906 60.238281 71.753906 60.738281 L 71.753906 74.050781 C 71.753906 83.714844 63.914062 91.601562 54.25 91.601562 Z M 54.25 91.601562 " fill-opacity="1" fill-rule="evenodd"/></g><path fill="#000000" d="M 73.851562 72.453125 L 70.84375 72.453125 C 70.34375 72.453125 69.933594 72.042969 69.933594 71.542969 L 69.933594 60.738281 C 69.933594 60.238281 70.34375 59.828125 70.84375 59.828125 L 73.851562 59.828125 C 76.039062 59.828125 77.820312 61.605469 77.820312 63.746094 L 77.820312 68.488281 C 77.820312 70.675781 76.039062 72.453125 73.851562 72.453125 Z M 71.753906 70.628906 L 73.851562 70.628906 C 75.039062 70.628906 75.996094 69.671875 75.996094 68.488281 L 75.996094 63.746094 C 75.996094 62.605469 75.039062 61.648438 73.851562 61.648438 L 71.753906 61.648438 Z M 71.753906 70.628906 " fill-opacity="1" fill-rule="evenodd"/><path fill="#000000" d="M 35.605469 72.453125 L 32.550781 72.453125 C 30.40625 72.453125 28.628906 70.675781 28.628906 68.488281 L 28.628906 63.746094 C 28.628906 61.605469 30.40625 59.828125 32.550781 59.828125 L 35.605469 59.828125 C 36.105469 59.828125 36.515625 60.238281 36.515625 60.738281 L 36.515625 71.542969 C 36.515625 72.042969 36.105469 72.453125 35.605469 72.453125 Z M 32.550781 61.648438 C 31.410156 61.648438 30.453125 62.605469 30.453125 63.746094 L 30.453125 68.488281 C 30.453125 69.671875 31.410156 70.628906 32.550781 70.628906 L 34.691406 70.628906 L 34.691406 61.648438 Z M 32.550781 61.648438 " fill-opacity="1" fill-rule="evenodd"/><path fill="#000000" d="M 35.605469 61.648438 C 35.558594 61.648438 35.511719 61.648438 35.511719 61.648438 C 35.011719 61.605469 34.644531 61.148438 34.691406 60.648438 C 34.738281 60.375 35.46875 53.945312 39.796875 51.300781 C 42.121094 49.886719 44.949219 49.84375 48.230469 51.074219 C 48.277344 51.117188 48.324219 51.164062 48.414062 51.164062 C 48.414062 51.210938 50.601562 52.625 53.246094 52.714844 C 55.84375 52.625 58.035156 51.210938 58.035156 51.164062 C 58.078125 51.164062 58.171875 51.117188 58.214844 51.074219 C 61.496094 49.84375 64.324219 49.886719 66.648438 51.300781 C 70.980469 53.945312 71.710938 60.375 71.753906 60.648438 C 71.800781 61.148438 71.4375 61.605469 70.933594 61.648438 C 70.433594 61.695312 70.023438 61.332031 69.933594 60.828125 C 69.933594 60.785156 69.25 55.039062 65.691406 52.851562 C 63.914062 51.800781 61.636719 51.757812 58.945312 52.761719 C 58.445312 53.078125 56.117188 54.445312 53.246094 54.539062 C 50.328125 54.445312 47.957031 53.078125 47.503906 52.761719 C 44.8125 51.757812 42.53125 51.800781 40.753906 52.851562 C 37.199219 55.039062 36.515625 60.785156 36.515625 60.828125 C 36.46875 61.285156 36.058594 61.648438 35.605469 61.648438 Z M 35.605469 61.648438 " fill-opacity="1" fill-rule="evenodd"/><path fill="#000000" d="M 74.671875 61.742188 C 74.171875 61.742188 73.761719 61.375 73.761719 60.828125 L 73.761719 57.363281 C 73.761719 46.058594 64.550781 36.804688 53.199219 36.804688 C 41.894531 36.804688 32.6875 46.058594 32.6875 57.363281 L 32.6875 60.738281 C 32.6875 61.238281 32.277344 61.648438 31.773438 61.648438 C 31.226562 61.648438 30.863281 61.238281 30.863281 60.738281 L 30.863281 57.363281 C 30.863281 45.054688 40.890625 34.980469 53.199219 34.980469 C 65.554688 34.980469 75.585938 45.054688 75.585938 57.363281 L 75.585938 60.828125 C 75.585938 61.375 75.175781 61.742188 74.671875 61.742188 Z M 74.671875 61.742188 " fill-opacity="1" fill-rule="evenodd"/><g clip-path="url(#a832778897)"><path fill="#000000" d="M 58.445312 37.441406 C 57.941406 37.441406 57.53125 37.078125 57.53125 36.53125 L 57.53125 26.089844 C 57.53125 25.589844 57.941406 25.179688 58.445312 25.179688 L 62.410156 25.179688 L 53.199219 15.96875 L 44.039062 25.179688 L 48.003906 25.179688 C 48.503906 25.179688 48.914062 25.589844 48.914062 26.089844 L 48.914062 36.347656 C 48.914062 36.847656 48.503906 37.261719 48.003906 37.261719 C 47.503906 37.261719 47.09375 36.847656 47.09375 36.347656 L 47.09375 27.003906 L 41.847656 27.003906 C 41.484375 27.003906 41.121094 26.773438 40.984375 26.410156 C 40.847656 26.089844 40.9375 25.679688 41.210938 25.40625 L 52.5625 14.054688 C 52.925781 13.691406 53.519531 13.691406 53.882812 14.054688 L 65.234375 25.40625 C 65.511719 25.679688 65.601562 26.089844 65.464844 26.410156 C 65.328125 26.773438 64.960938 27.003906 64.597656 27.003906 L 59.355469 27.003906 L 59.355469 36.53125 C 59.355469 37.078125 58.945312 37.441406 58.445312 37.441406 Z M 58.445312 37.441406 " fill-opacity="1" fill-rule="evenodd"/></g><path fill="#000000" d="M 73.488281 51.210938 C 73.261719 51.210938 73.03125 51.117188 72.847656 50.9375 C 72.484375 50.570312 72.484375 49.980469 72.847656 49.613281 L 82.925781 39.539062 C 83.289062 39.175781 83.882812 39.175781 84.199219 39.539062 L 87.027344 42.320312 L 87.027344 29.371094 L 74.035156 29.371094 L 76.863281 32.152344 C 77.042969 32.335938 77.136719 32.5625 77.136719 32.792969 C 77.136719 33.066406 77.042969 33.292969 76.863281 33.476562 L 68.199219 42.09375 C 67.878906 42.457031 67.289062 42.457031 66.921875 42.09375 C 66.558594 41.726562 66.558594 41.179688 66.921875 40.816406 L 74.902344 32.792969 L 71.207031 29.097656 C 70.933594 28.824219 70.84375 28.414062 70.980469 28.097656 C 71.164062 27.730469 71.480469 27.550781 71.847656 27.550781 L 87.9375 27.550781 C 88.441406 27.550781 88.851562 27.960938 88.851562 28.460938 L 88.851562 44.554688 C 88.851562 44.917969 88.625 45.238281 88.304688 45.375 C 87.9375 45.511719 87.574219 45.464844 87.300781 45.191406 L 83.5625 41.453125 L 74.125 50.9375 C 73.945312 51.117188 73.714844 51.210938 73.488281 51.210938 Z M 73.488281 51.210938 " fill-opacity="1" fill-rule="evenodd"/><path fill="#000000" d="M 32.6875 51.527344 C 32.457031 51.527344 32.230469 51.4375 32.046875 51.300781 L 23.292969 42.546875 L 19.601562 46.242188 C 19.328125 46.515625 18.917969 46.605469 18.597656 46.46875 C 18.234375 46.332031 18.050781 45.96875 18.050781 45.601562 L 18.050781 29.511719 C 18.050781 29.007812 18.460938 28.597656 18.964844 28.597656 L 35.058594 28.597656 C 35.421875 28.597656 35.742188 28.824219 35.878906 29.144531 C 36.015625 29.511719 35.96875 29.921875 35.695312 30.148438 L 31.957031 33.886719 L 39.160156 41.089844 C 39.523438 41.453125 39.523438 42 39.160156 42.367188 C 38.792969 42.730469 38.246094 42.730469 37.882812 42.367188 L 30.042969 34.523438 C 29.675781 34.160156 29.675781 33.613281 30.042969 33.246094 L 32.824219 30.421875 L 19.875 30.421875 L 19.875 43.414062 L 22.65625 40.585938 C 23.019531 40.269531 23.613281 40.269531 23.980469 40.585938 L 33.324219 49.980469 C 33.6875 50.34375 33.6875 50.9375 33.324219 51.300781 C 33.1875 51.4375 32.914062 51.527344 32.6875 51.527344 Z M 32.6875 51.527344 " fill-opacity="1" fill-rule="evenodd"/><path fill="#000000" d="M 48.1875 64.976562 L 41.4375 64.976562 C 40.9375 64.976562 40.527344 64.566406 40.527344 64.066406 C 40.527344 63.5625 40.9375 63.152344 41.4375 63.152344 L 48.1875 63.152344 C 48.6875 63.152344 49.097656 63.5625 49.097656 64.066406 C 49.097656 64.566406 48.6875 64.976562 48.1875 64.976562 Z M 48.1875 64.976562 " fill-opacity="1" fill-rule="evenodd"/><path fill="#000000" d="M 65.007812 64.976562 L 58.261719 64.976562 C 57.757812 64.976562 57.347656 64.566406 57.347656 64.066406 C 57.347656 63.5625 57.757812 63.152344 58.261719 63.152344 L 65.007812 63.152344 C 65.511719 63.152344 65.921875 63.5625 65.921875 64.066406 C 65.921875 64.566406 65.511719 64.976562 65.007812 64.976562 Z M 65.007812 64.976562 " fill-opacity="1" fill-rule="evenodd"/><path fill="#000000" d="M 58.261719 78.472656 C 58.125 78.472656 57.941406 78.425781 57.804688 78.335938 C 52.0625 75.007812 48.960938 78.0625 48.824219 78.199219 C 48.460938 78.515625 47.914062 78.5625 47.546875 78.199219 C 47.183594 77.832031 47.183594 77.285156 47.503906 76.921875 C 47.683594 76.738281 51.695312 72.683594 58.71875 76.738281 C 59.171875 77.011719 59.308594 77.558594 59.082031 78.015625 C 58.898438 78.289062 58.582031 78.472656 58.261719 78.472656 Z M 58.261719 78.472656 " fill-opacity="1" fill-rule="evenodd"/></svg>