<svg xmlns="http://www.w3.org/2000/svg" xmlns:xlink="http://www.w3.org/1999/xlink" width="140" zoomAndPan="magnify" viewBox="0 0 104.88 104.999996" height="140" preserveAspectRatio="xMidYMid meet" version="1.0"><defs><clipPath id="89a97e0e0f"><path d="M 0.417969 0.480469 L 104.460938 0.480469 L 104.460938 104.519531 L 0.417969 104.519531 Z M 0.417969 0.480469 " clip-rule="nonzero"/></clipPath><clipPath id="5f490e822e"><path d="M 52.441406 0.480469 C 23.710938 0.480469 0.417969 23.769531 0.417969 52.5 C 0.417969 81.230469 23.710938 104.519531 52.441406 104.519531 C 81.171875 104.519531 104.460938 81.230469 104.460938 52.5 C 104.460938 23.769531 81.171875 0.480469 52.441406 0.480469 Z M 52.441406 0.480469 " clip-rule="nonzero"/></clipPath><clipPath id="190767e854"><path d="M 4.636719 4.695312 L 100.246094 4.695312 L 100.246094 100.304688 L 4.636719 100.304688 Z M 4.636719 4.695312 " clip-rule="nonzero"/></clipPath><clipPath id="67b1fddc03"><path d="M 52.441406 4.695312 C 26.039062 4.695312 4.636719 26.097656 4.636719 52.5 C 4.636719 78.902344 26.039062 100.304688 52.441406 100.304688 C 78.839844 100.304688 100.246094 78.902344 100.246094 52.5 C 100.246094 26.097656 78.839844 4.695312 52.441406 4.695312 Z M 52.441406 4.695312 " clip-rule="nonzero"/></clipPath><clipPath id="10c46de803"><path d="M 40.53125 27.964844 L 66.273438 27.964844 L 66.273438 66.902344 L 40.53125 66.902344 Z M 40.53125 27.964844 " clip-rule="nonzero"/></clipPath><clipPath id="ba42e764da"><path d="M 23.933594 21.074219 L 83 21.074219 L 83 80 L 23.933594 80 Z M 23.933594 21.074219 " clip-rule="nonzero"/></clipPath><clipPath id="ec9b858877"><path d="M 23.933594 48 L 83 48 L 83 53 L 23.933594 53 Z M 23.933594 48 " clip-rule="nonzero"/></clipPath></defs><g clip-path="url(#89a97e0e0f)"><g clip-path="url(#5f490e822e)"><path fill="#191a1d" d="M 0.417969 0.480469 L 104.460938 0.480469 L 104.460938 104.519531 L 0.417969 104.519531 Z M 0.417969 0.480469 " fill-opacity="1" fill-rule="nonzero"/></g></g><g clip-path="url(#190767e854)"><g clip-path="url(#67b1fddc03)"><path fill="#dde5ee" d="M 4.636719 4.695312 L 100.246094 4.695312 L 100.246094 100.304688 L 4.636719 100.304688 Z M 4.636719 4.695312 " fill-opacity="1" fill-rule="nonzero"/></g></g><g clip-path="url(#10c46de803)"><path fill="#dde5ee" d="M 40.53125 27.964844 L 66.273438 27.964844 L 66.273438 66.878906 L 40.53125 66.878906 Z M 40.53125 27.964844 " fill-opacity="1" fill-rule="nonzero"/></g><path fill="#000000" d="M 42.617188 42.054688 C 42.6875 41.988281 42.113281 39.425781 42.097656 39.105469 C 42.042969 37.996094 42.148438 36.878906 42.402344 35.796875 C 42.890625 33.730469 44.066406 32.089844 45.917969 31.007812 C 45.480469 31.046875 45.203125 30.457031 45.367188 30.046875 C 45.527344 29.632812 45.945312 29.386719 46.339844 29.1875 C 50.613281 27.023438 56.0625 26.867188 60.042969 29.535156 C 63.855469 32.089844 65.757812 37.449219 63.898438 41.597656 C 63.785156 41.847656 63.882812 42.148438 64.125 42.261719 C 64.96875 42.644531 65.441406 43.761719 65.230469 44.707031 C 65.011719 45.667969 64.28125 46.429688 63.441406 46.96875 C 63.441406 46.96875 63.441406 46.96875 63.441406 46.972656 C 63.257812 47.089844 63.054688 47.164062 62.839844 47.164062 L 43.953125 47.164062 C 43.773438 47.164062 43.585938 47.125 43.433594 47.027344 C 43.40625 47.007812 43.375 46.992188 43.339844 46.972656 C 42.539062 46.585938 41.917969 45.832031 41.714844 44.964844 C 41.46875 43.925781 41.828125 42.769531 42.617188 42.054688 " fill-opacity="1" fill-rule="nonzero"/><path fill="#000000" d="M 71.679688 72.203125 C 71.710938 72.929688 71.125 73.527344 70.398438 73.527344 L 36.394531 73.527344 C 35.65625 73.527344 35.074219 72.902344 35.113281 72.160156 C 35.171875 71.257812 35.273438 70.355469 35.453125 69.46875 C 35.910156 67.21875 36.917969 65.011719 38.65625 63.519531 C 40.871094 61.613281 43.964844 61.082031 46.542969 59.820312 C 47.46875 59.371094 48.214844 58.582031 48.488281 57.582031 C 48.917969 56.03125 47.996094 54.941406 46.996094 53.910156 L 59.882812 53.910156 C 58.988281 54.726562 58.046875 55.53125 58.414062 57.191406 C 58.570312 57.894531 58.9375 58.539062 59.453125 59.039062 C 60.726562 60.28125 62.476562 60.691406 64.105469 61.292969 C 66.414062 62.148438 68.625 63.503906 69.96875 65.570312 C 71.089844 67.296875 71.496094 69.324219 71.636719 71.398438 C 71.65625 71.667969 71.667969 71.933594 71.679688 72.203125 " fill-opacity="1" fill-rule="nonzero"/><g clip-path="url(#ba42e764da)"><path fill="#000000" d="M 28.613281 76.824219 C 27.785156 76.824219 27.113281 76.148438 27.113281 75.320312 L 27.113281 64.296875 L 23.933594 64.296875 L 23.933594 75.320312 C 23.933594 77.902344 26.03125 80 28.613281 80 L 39.636719 80 L 39.636719 76.824219 Z M 79.683594 64.296875 L 79.683594 75.320312 C 79.683594 76.148438 79.011719 76.824219 78.183594 76.824219 L 67.160156 76.824219 L 67.160156 80 L 78.183594 80 C 80.761719 80 82.859375 77.902344 82.859375 75.320312 L 82.859375 64.296875 Z M 78.183594 21.074219 L 67.160156 21.074219 L 67.160156 24.25 L 78.183594 24.25 C 79.011719 24.25 79.683594 24.921875 79.683594 25.75 L 79.683594 36.773438 L 82.859375 36.773438 L 82.859375 25.75 C 82.859375 23.171875 80.761719 21.074219 78.183594 21.074219 Z M 28.613281 21.074219 C 26.03125 21.074219 23.933594 23.171875 23.933594 25.75 L 23.933594 36.773438 L 27.113281 36.773438 L 27.113281 25.75 C 27.113281 24.921875 27.785156 24.25 28.613281 24.25 L 39.636719 24.25 L 39.636719 21.074219 L 28.613281 21.074219 " fill-opacity="1" fill-rule="nonzero"/></g><g clip-path="url(#ec9b858877)"><path fill="#000000" d="M 82.859375 48.773438 L 82.859375 52.300781 L 23.933594 52.300781 L 23.933594 48.773438 L 82.859375 48.773438 " fill-opacity="1" fill-rule="nonzero"/></g></svg>