<svg xmlns="http://www.w3.org/2000/svg" xmlns:xlink="http://www.w3.org/1999/xlink" width="140" zoomAndPan="magnify" viewBox="0 0 104.88 104.999996" height="140" preserveAspectRatio="xMidYMid meet" version="1.0"><defs><clipPath id="b27b9487fc"><path d="M 0.472656 0.535156 L 104.40625 0.535156 L 104.40625 104.464844 L 0.472656 104.464844 Z M 0.472656 0.535156 " clip-rule="nonzero"/></clipPath><clipPath id="d3de88d4e6"><path d="M 52.441406 0.535156 C 23.742188 0.535156 0.472656 23.800781 0.472656 52.5 C 0.472656 81.199219 23.742188 104.464844 52.441406 104.464844 C 81.140625 104.464844 104.40625 81.199219 104.40625 52.5 C 104.40625 23.800781 81.140625 0.535156 52.441406 0.535156 Z M 52.441406 0.535156 " clip-rule="nonzero"/></clipPath><clipPath id="08e8a8adac"><path d="M 4.585938 4.648438 L 100.292969 4.648438 L 100.292969 100.351562 L 4.585938 100.351562 Z M 4.585938 4.648438 " clip-rule="nonzero"/></clipPath><clipPath id="b267db8f81"><path d="M 52.441406 4.648438 C 26.011719 4.648438 4.585938 26.070312 4.585938 52.5 C 4.585938 78.929688 26.011719 100.351562 52.441406 100.351562 C 78.867188 100.351562 100.292969 78.929688 100.292969 52.5 C 100.292969 26.070312 78.867188 4.648438 52.441406 4.648438 Z M 52.441406 4.648438 " clip-rule="nonzero"/></clipPath><clipPath id="ab2a6e97c0"><path d="M 30.300781 19.394531 L 73.515625 19.394531 L 73.515625 85.351562 L 30.300781 85.351562 Z M 30.300781 19.394531 " clip-rule="nonzero"/></clipPath><clipPath id="fc2e46eafb"><path d="M 39 19.394531 L 73.515625 19.394531 L 73.515625 85.351562 L 39 85.351562 Z M 39 19.394531 " clip-rule="nonzero"/></clipPath></defs><g clip-path="url(#b27b9487fc)"><g clip-path="url(#d3de88d4e6)"><path fill="#dde5ee" d="M 0.472656 0.535156 L 104.40625 0.535156 L 104.40625 104.464844 L 0.472656 104.464844 Z M 0.472656 0.535156 " fill-opacity="1" fill-rule="nonzero"/></g></g><g clip-path="url(#08e8a8adac)"><g clip-path="url(#b267db8f81)"><path fill="#dde5ee" d="M 4.585938 4.648438 L 100.292969 4.648438 L 100.292969 100.351562 L 4.585938 100.351562 Z M 4.585938 4.648438 " fill-opacity="1" fill-rule="nonzero"/></g></g><g clip-path="url(#ab2a6e97c0)"><path fill="#000000" d="M 115.425781 46.503906 L 58.242188 -10.011719 C 56.585938 -11.648438 54.375 -12.558594 52.035156 -12.558594 C 49.691406 -12.558594 47.484375 -11.664062 45.828125 -10.011719 L -11.355469 46.503906 C -13.007812 48.136719 -13.929688 50.324219 -13.929688 52.636719 C -13.929688 54.953125 -13.023438 57.136719 -11.355469 58.773438 L 45.828125 115.304688 C 47.484375 116.941406 49.691406 117.851562 52.035156 117.851562 C 54.375 117.851562 56.585938 116.953125 58.242188 115.304688 L 115.425781 58.773438 C 117.078125 57.136719 118 54.953125 118 52.636719 C 118 50.324219 117.09375 48.136719 115.425781 46.503906 Z M 111.28125 54.691406 L 54.097656 111.222656 C 52.984375 112.308594 51.070312 112.308594 49.957031 111.222656 L -7.210938 54.691406 C -8.355469 53.566406 -8.355469 51.726562 -7.210938 50.597656 L 49.957031 -5.917969 C 50.511719 -6.46875 51.246094 -6.773438 52.019531 -6.773438 C 52.796875 -6.773438 53.542969 -6.46875 54.085938 -5.917969 L 111.265625 50.613281 C 112.410156 51.742188 112.410156 53.578125 111.265625 54.707031 Z M 111.28125 54.691406 " fill-opacity="1" fill-rule="nonzero"/></g><g clip-path="url(#fc2e46eafb)"><path fill="#000000" d="M 72.585938 70.378906 C 58.78125 70.378906 55.355469 56.328125 54.949219 54.316406 L 54.949219 29.445312 L 59.441406 33.886719 C 60.011719 34.449219 60.757812 34.738281 61.503906 34.738281 C 62.25 34.738281 62.996094 34.449219 63.566406 33.886719 C 64.710938 32.757812 64.710938 30.921875 63.566406 29.792969 L 54.070312 20.402344 C 53.9375 20.269531 53.777344 20.140625 53.617188 20.039062 C 53.542969 19.996094 53.46875 19.96875 53.394531 19.921875 C 53.308594 19.867188 53.207031 19.824219 53.101562 19.777344 C 53 19.734375 52.914062 19.722656 52.8125 19.691406 C 52.722656 19.664062 52.648438 19.632812 52.5625 19.621094 C 52.179688 19.546875 51.800781 19.546875 51.421875 19.621094 C 51.332031 19.632812 51.246094 19.664062 51.171875 19.691406 C 51.070312 19.722656 50.980469 19.75 50.878906 19.777344 C 50.777344 19.824219 50.6875 19.878906 50.585938 19.921875 C 50.511719 19.96875 50.441406 19.996094 50.367188 20.039062 C 50.207031 20.140625 50.058594 20.269531 49.914062 20.402344 L 40.414062 29.792969 C 39.273438 30.921875 39.273438 32.757812 40.414062 33.886719 C 41.554688 35.015625 43.414062 35.015625 44.554688 33.886719 L 49.050781 29.445312 L 49.050781 82.835938 C 49.050781 84.425781 50.367188 85.730469 51.976562 85.730469 C 53.585938 85.730469 54.902344 84.425781 54.902344 82.835938 L 54.902344 67.671875 C 58.652344 72.34375 64.34375 76.164062 72.539062 76.164062 C 74.148438 76.164062 75.46875 74.863281 75.46875 73.273438 C 75.46875 71.679688 74.148438 70.378906 72.539062 70.378906 Z M 72.585938 70.378906 " fill-opacity="1" fill-rule="nonzero"/></g></svg>