<svg xmlns="http://www.w3.org/2000/svg" xmlns:xlink="http://www.w3.org/1999/xlink" width="140" zoomAndPan="magnify" viewBox="0 0 104.88 104.999996" height="140" preserveAspectRatio="xMidYMid meet" version="1.0"><defs><clipPath id="3612678a26"><path d="M 0.4375 0.496094 L 104.441406 0.496094 L 104.441406 104.503906 L 0.4375 104.503906 Z M 0.4375 0.496094 " clip-rule="nonzero"/></clipPath><clipPath id="94330d54db"><path d="M 52.441406 0.496094 C 23.71875 0.496094 0.4375 23.78125 0.4375 52.5 C 0.4375 81.21875 23.71875 104.503906 52.441406 104.503906 C 81.160156 104.503906 104.441406 81.21875 104.441406 52.5 C 104.441406 23.78125 81.160156 0.496094 52.441406 0.496094 Z M 52.441406 0.496094 " clip-rule="nonzero"/></clipPath><clipPath id="5225daa02e"><path d="M 4.605469 4.859375 L 100.628906 4.859375 L 100.628906 100.140625 L 4.605469 100.140625 Z M 4.605469 4.859375 " clip-rule="nonzero"/></clipPath><clipPath id="1bd4b706ac"><path d="M 52.441406 4.859375 C 26.023438 4.859375 4.605469 26.1875 4.605469 52.5 C 4.605469 78.8125 26.023438 100.140625 52.441406 100.140625 C 78.859375 100.140625 100.273438 78.8125 100.273438 52.5 C 100.273438 26.1875 78.859375 4.859375 52.441406 4.859375 Z M 52.441406 4.859375 " clip-rule="nonzero"/></clipPath><clipPath id="825624022b"><path d="M 60 44 L 90.210938 44 L 90.210938 73 L 60 73 Z M 60 44 " clip-rule="nonzero"/></clipPath><clipPath id="d84a992098"><path d="M 69 66 L 84 66 L 84 79.785156 L 69 79.785156 Z M 69 66 " clip-rule="nonzero"/></clipPath><clipPath id="742dd414f4"><path d="M 16.046875 46 L 60 46 L 60 73 L 16.046875 73 Z M 16.046875 46 " clip-rule="nonzero"/></clipPath><clipPath id="0b24be860b"><path d="M 37 65 L 52 65 L 52 79.785156 L 37 79.785156 Z M 37 65 " clip-rule="nonzero"/></clipPath><clipPath id="4d953fbf57"><path d="M 28 16.109375 L 72 16.109375 L 72 51 L 28 51 Z M 28 16.109375 " clip-rule="nonzero"/></clipPath></defs><g clip-path="url(#3612678a26)"><g clip-path="url(#94330d54db)"><path fill="#dde5ee" d="M 0.4375 0.496094 L 104.441406 0.496094 L 104.441406 104.503906 L 0.4375 104.503906 Z M 0.4375 0.496094 " fill-opacity="1" fill-rule="nonzero"/></g></g><g clip-path="url(#5225daa02e)"><g clip-path="url(#1bd4b706ac)"><path fill="#dde5ee" d="M 4.605469 4.859375 L 100.257812 4.859375 L 100.257812 100.140625 L 4.605469 100.140625 Z M 4.605469 4.859375 " fill-opacity="1" fill-rule="nonzero"/></g></g><g clip-path="url(#825624022b)"><path fill="#000000" d="M 90.21875 72.300781 L 90.21875 54.066406 L 77.894531 54.066406 C 77.328125 54.066406 76.925781 53.5 77.113281 52.960938 L 79.222656 46.828125 C 79.339844 46.488281 79.652344 46.261719 80.007812 46.261719 L 90.21875 46.261719 L 90.21875 44.433594 L 68.769531 44.433594 C 67.386719 44.433594 66.128906 45.242188 65.542969 46.507812 L 61.738281 54.476562 C 61.324219 55.367188 61.050781 58 60.054688 71.015625 C 60.003906 71.707031 60.546875 72.300781 61.238281 72.300781 L 68.160156 72.300781 L 68.160156 72.25 C 68.160156 68.421875 70.683594 64.992188 74.375 64.035156 C 80.03125 62.570312 85.109375 66.816406 85.109375 72.25 L 85.109375 72.300781 Z M 75.191406 54.066406 L 66.582031 54.066406 C 66.105469 54.066406 65.78125 53.574219 65.972656 53.136719 L 68.703125 46.84375 C 68.855469 46.492188 69.203125 46.261719 69.589844 46.261719 L 77.402344 46.261719 C 77.871094 46.261719 78.203125 46.726562 78.046875 47.171875 L 75.835938 53.601562 C 75.738281 53.878906 75.480469 54.066406 75.191406 54.066406 Z M 75.191406 54.066406 " fill-opacity="1" fill-rule="nonzero"/></g><g clip-path="url(#d84a992098)"><path fill="#000000" d="M 76.675781 66.117188 C 72.921875 66.117188 69.875 69.175781 69.875 72.941406 C 69.875 76.710938 72.921875 79.765625 76.675781 79.765625 C 80.425781 79.765625 83.472656 76.710938 83.472656 72.941406 C 83.472656 69.175781 80.425781 66.117188 76.675781 66.117188 Z M 76.671875 75.683594 C 75.160156 75.683594 73.941406 74.457031 73.941406 72.941406 C 73.941406 71.425781 75.160156 70.195312 76.671875 70.195312 C 78.183594 70.195312 79.410156 71.425781 79.410156 72.941406 C 79.410156 74.457031 78.183594 75.683594 76.671875 75.683594 Z M 76.671875 75.683594 " fill-opacity="1" fill-rule="nonzero"/></g><g clip-path="url(#742dd414f4)"><path fill="#000000" d="M 58.226562 61.449219 C 55.304688 59.277344 43.703125 56.773438 40.921875 55.914062 C 40.527344 55.789062 40.171875 55.5625 39.890625 55.257812 L 33.582031 48.394531 C 32.332031 47.039062 30.574219 46.261719 28.738281 46.261719 L 16.050781 46.261719 L 16.050781 72.589844 L 36.292969 72.589844 C 36.292969 67.890625 40.085938 64.082031 44.761719 64.082031 C 49.445312 64.082031 53.238281 67.890625 53.238281 72.589844 L 56.628906 72.589844 C 58.398438 72.589844 58.140625 71 58.25 69.226562 C 58.441406 66.082031 59.941406 62.726562 58.226562 61.449219 Z M 36.386719 55.894531 L 18.53125 55.894531 C 17.902344 55.894531 17.398438 55.386719 17.398438 54.753906 L 17.398438 49.234375 C 17.398438 48.601562 17.902344 48.09375 18.53125 48.09375 L 29.863281 48.09375 C 30.230469 48.09375 30.582031 48.25 30.832031 48.523438 L 36.765625 55.042969 C 37.058594 55.371094 36.828125 55.894531 36.386719 55.894531 Z M 36.386719 55.894531 " fill-opacity="1" fill-rule="nonzero"/></g><g clip-path="url(#0b24be860b)"><path fill="#000000" d="M 44.769531 65.90625 C 41.011719 65.90625 37.964844 68.960938 37.964844 72.726562 C 37.964844 76.496094 41.011719 79.550781 44.769531 79.550781 C 48.515625 79.550781 51.5625 76.496094 51.5625 72.726562 C 51.5625 68.960938 48.515625 65.90625 44.769531 65.90625 Z M 44.765625 75.472656 C 43.253906 75.472656 42.035156 74.242188 42.035156 72.726562 C 42.035156 71.210938 43.253906 69.980469 44.765625 69.980469 C 46.277344 69.980469 47.5 71.210938 47.5 72.726562 C 47.5 74.242188 46.277344 75.472656 44.765625 75.472656 Z M 44.765625 75.472656 " fill-opacity="1" fill-rule="nonzero"/></g><g clip-path="url(#4d953fbf57)"><path fill="#000000" d="M 45.570312 50.164062 L 28.9375 35.589844 L 47.75 40.089844 L 43.179688 19.21875 L 56.121094 37.167969 L 71.617188 16.109375 L 62.25 45.640625 L 59.691406 44.824219 L 64.132812 30.820312 L 56.097656 41.738281 L 48.578125 31.304688 L 51.292969 43.707031 L 38.90625 40.746094 L 47.335938 48.132812 Z M 45.570312 50.164062 " fill-opacity="1" fill-rule="nonzero"/></g></svg>