<svg xmlns="http://www.w3.org/2000/svg" xmlns:xlink="http://www.w3.org/1999/xlink" width="100" zoomAndPan="magnify" viewBox="0 0 75 74.999997" height="100" preserveAspectRatio="xMidYMid meet" version="1.0"><defs><clipPath id="5c4a4ee2a2"><path d="M 0 0.519531 L 73.5 0.519531 L 73.5 74.019531 L 0 74.019531 Z M 0 0.519531 " clip-rule="nonzero"/></clipPath></defs><rect x="-7.5" width="90" fill="#ffffff" y="-7.5" height="89.999996" fill-opacity="1"/><rect x="-7.5" width="90" fill="#000000" y="-7.5" height="89.999996" fill-opacity="1"/><g clip-path="url(#5c4a4ee2a2)"><path fill="#ffffff" d="M 66.648438 52.109375 C 66.484375 55.691406 65.882812 57.636719 65.386719 58.929688 C 64.71875 60.644531 63.921875 61.871094 62.628906 63.15625 C 61.351562 64.441406 60.125 65.234375 58.410156 65.898438 C 57.117188 66.402344 55.164062 67.003906 51.582031 67.171875 C 47.707031 67.34375 46.558594 67.378906 36.738281 67.378906 C 26.925781 67.378906 25.769531 67.34375 21.894531 67.171875 C 18.3125 67.003906 16.367188 66.402344 15.074219 65.898438 C 13.351562 65.234375 12.136719 64.441406 10.851562 63.15625 C 9.554688 61.871094 8.757812 60.644531 8.097656 58.929688 C 7.601562 57.636719 6.992188 55.691406 6.839844 52.109375 C 6.648438 48.234375 6.613281 47.070312 6.613281 37.265625 C 6.613281 27.445312 6.648438 26.289062 6.839844 22.414062 C 6.992188 18.832031 7.601562 16.886719 8.097656 15.582031 C 8.757812 13.871094 9.554688 12.652344 10.851562 11.367188 C 12.136719 10.082031 13.351562 9.285156 15.074219 8.617188 C 16.367188 8.113281 18.3125 7.519531 21.894531 7.347656 C 25.769531 7.179688 26.925781 7.132812 36.738281 7.132812 C 46.558594 7.132812 47.707031 7.179688 51.582031 7.347656 C 55.164062 7.519531 57.117188 8.113281 58.410156 8.617188 C 60.125 9.285156 61.351562 10.082031 62.628906 11.367188 C 63.921875 12.652344 64.71875 13.871094 65.386719 15.582031 C 65.882812 16.886719 66.484375 18.832031 66.648438 22.414062 C 66.828125 26.289062 66.871094 27.445312 66.871094 37.265625 C 66.871094 47.070312 66.828125 48.234375 66.648438 52.109375 Z M 73.261719 22.113281 C 73.082031 18.199219 72.464844 15.523438 71.546875 13.195312 C 70.613281 10.777344 69.363281 8.730469 67.316406 6.679688 C 65.277344 4.640625 63.226562 3.390625 60.8125 2.445312 C 58.472656 1.539062 55.804688 0.914062 51.890625 0.742188 C 47.972656 0.554688 46.722656 0.519531 36.738281 0.519531 C 26.765625 0.519531 25.503906 0.554688 21.585938 0.742188 C 17.679688 0.914062 15.015625 1.539062 12.664062 2.445312 C 10.257812 3.390625 8.210938 4.640625 6.171875 6.679688 C 4.121094 8.730469 2.871094 10.777344 1.929688 13.195312 C 1.019531 15.523438 0.402344 18.199219 0.214844 22.113281 C 0.0429688 26.03125 0 27.28125 0 37.265625 C 0 47.242188 0.0429688 48.492188 0.214844 52.410156 C 0.402344 56.316406 1.019531 58.988281 1.929688 61.328125 C 2.871094 63.738281 4.121094 65.796875 6.171875 67.835938 C 8.210938 69.875 10.257812 71.132812 12.664062 72.074219 C 15.015625 72.984375 17.679688 73.601562 21.585938 73.78125 C 25.503906 73.960938 26.765625 74.003906 36.738281 74.003906 C 46.722656 74.003906 47.972656 73.960938 51.890625 73.78125 C 55.804688 73.601562 58.472656 72.984375 60.8125 72.074219 C 63.226562 71.132812 65.277344 69.875 67.316406 67.835938 C 69.363281 65.796875 70.613281 63.738281 71.546875 61.328125 C 72.464844 58.988281 73.082031 56.316406 73.261719 52.410156 C 73.441406 48.492188 73.484375 47.242188 73.484375 37.265625 C 73.484375 27.28125 73.441406 26.03125 73.261719 22.113281 Z M 73.261719 22.113281 " fill-opacity="1" fill-rule="nonzero"/></g><path fill="#ffffff" d="M 36.738281 49.503906 C 29.976562 49.503906 24.492188 44.027344 24.492188 37.265625 C 24.492188 30.496094 29.976562 25.011719 36.738281 25.011719 C 43.5 25.011719 48.992188 30.496094 48.992188 37.265625 C 48.992188 44.027344 43.5 49.503906 36.738281 49.503906 Z M 36.738281 18.386719 C 26.316406 18.386719 17.878906 26.84375 17.878906 37.265625 C 17.878906 47.679688 26.316406 56.128906 36.738281 56.128906 C 47.160156 56.128906 55.609375 47.679688 55.609375 37.265625 C 55.609375 26.84375 47.160156 18.386719 36.738281 18.386719 Z M 36.738281 18.386719 " fill-opacity="1" fill-rule="nonzero"/></svg>