<svg xmlns="http://www.w3.org/2000/svg" xmlns:xlink="http://www.w3.org/1999/xlink" width="100" zoomAndPan="magnify" viewBox="0 0 75 74.999997" height="100" preserveAspectRatio="xMidYMid meet" version="1.0"><defs><clipPath id="899d4f832c"><path d="M 1.464844 1.464844 L 73.464844 1.464844 L 73.464844 73.464844 L 1.464844 73.464844 Z M 1.464844 1.464844 " clip-rule="nonzero"/></clipPath><clipPath id="34c3b4b4fa"><path d="M 1.464844 5.964844 L 1.464844 69.035156 C 1.464844 71.519531 3.480469 73.535156 5.964844 73.535156 L 69.035156 73.535156 C 71.519531 73.535156 73.535156 71.519531 73.535156 69.035156 L 73.535156 5.964844 C 73.535156 3.480469 71.519531 1.464844 69.035156 1.464844 L 5.964844 1.464844 C 3.480469 1.464844 1.464844 3.480469 1.464844 5.964844 Z M 1.464844 5.964844 " clip-rule="nonzero"/></clipPath></defs><rect x="-7.5" width="90" fill="#ffffff" y="-7.5" height="89.999996" fill-opacity="1"/><rect x="-7.5" width="90" fill="#000000" y="-7.5" height="89.999996" fill-opacity="1"/><g clip-path="url(#899d4f832c)"><g clip-path="url(#34c3b4b4fa)"><path fill="#ffffff" d="M 8.734375 1.464844 L 66.167969 1.464844 C 70.203125 1.464844 73.523438 4.785156 73.523438 8.734375 L 73.523438 66.167969 C 73.523438 70.203125 70.203125 73.523438 66.167969 73.523438 L 8.734375 73.523438 C 4.785156 73.523438 1.464844 70.203125 1.464844 66.167969 L 1.464844 8.734375 C 1.464844 4.785156 4.785156 1.464844 8.734375 1.464844 Z M 37.449219 29.105469 L 50.375 10.800781 L 62.039062 10.800781 L 43.285156 37.449219 L 62.039062 64.191406 L 50.375 64.191406 L 37.449219 45.796875 L 24.617188 64.191406 L 12.953125 64.191406 L 31.617188 37.449219 L 12.953125 10.800781 L 24.617188 10.800781 Z M 37.449219 29.105469 " fill-opacity="1" fill-rule="evenodd"/></g></g></svg>