<svg xmlns="http://www.w3.org/2000/svg" xmlns:xlink="http://www.w3.org/1999/xlink" width="100" zoomAndPan="magnify" viewBox="0 0 75 74.999997" height="100" preserveAspectRatio="xMidYMid meet" version="1.0"><defs><clipPath id="85349fc3e9"><path d="M 0.519531 0.519531 L 74.769531 0.519531 L 74.769531 74.769531 L 0.519531 74.769531 Z M 0.519531 0.519531 " clip-rule="nonzero"/></clipPath><clipPath id="996dc71dc7"><path d="M 9.972656 13.351562 L 65.492188 13.351562 L 65.492188 59.816406 L 9.972656 59.816406 Z M 9.972656 13.351562 " clip-rule="nonzero"/></clipPath><clipPath id="f5fabab889"><path d="M 25.636719 12.148438 L 49.636719 12.148438 L 49.636719 63.148438 L 25.636719 63.148438 Z M 25.636719 12.148438 " clip-rule="nonzero"/></clipPath></defs><rect x="-7.5" width="90" fill="#ffffff" y="-7.5" height="89.999996" fill-opacity="1"/><rect x="-7.5" width="90" fill="#000000" y="-7.5" height="89.999996" fill-opacity="1"/><g clip-path="url(#85349fc3e9)"><path fill="#ffffff" d="M 67.847656 52.632812 C 67.679688 56.253906 67.074219 58.21875 66.574219 59.527344 C 65.898438 61.257812 65.09375 62.496094 63.785156 63.792969 C 62.496094 65.09375 61.257812 65.894531 59.527344 66.5625 C 58.21875 67.074219 56.246094 67.679688 52.625 67.855469 C 48.714844 68.027344 47.554688 68.0625 37.632812 68.0625 C 27.71875 68.0625 26.550781 68.027344 22.636719 67.855469 C 19.019531 67.679688 17.054688 67.074219 15.75 66.5625 C 14.007812 65.894531 12.777344 65.09375 11.480469 63.792969 C 10.171875 62.496094 9.367188 61.257812 8.699219 59.527344 C 8.199219 58.21875 7.582031 56.253906 7.425781 52.632812 C 7.238281 48.722656 7.203125 47.542969 7.203125 37.640625 C 7.203125 27.71875 7.238281 26.550781 7.425781 22.636719 C 7.582031 19.019531 8.199219 17.054688 8.699219 15.738281 C 9.367188 14.007812 10.171875 12.777344 11.480469 11.476562 C 12.777344 10.179688 14.007812 9.375 15.75 8.699219 C 17.054688 8.1875 19.019531 7.589844 22.636719 7.417969 C 26.550781 7.246094 27.71875 7.203125 37.632812 7.203125 C 47.554688 7.203125 48.714844 7.246094 52.625 7.417969 C 56.246094 7.589844 58.21875 8.1875 59.527344 8.699219 C 61.257812 9.375 62.496094 10.179688 63.785156 11.476562 C 65.09375 12.777344 65.898438 14.007812 66.574219 15.738281 C 67.074219 17.054688 67.679688 19.019531 67.847656 22.636719 C 68.027344 26.550781 68.070312 27.71875 68.070312 37.640625 C 68.070312 47.542969 68.027344 48.722656 67.847656 52.632812 Z M 74.527344 22.332031 C 74.347656 18.378906 73.722656 15.675781 72.796875 13.324219 C 71.855469 10.882812 70.589844 8.8125 68.519531 6.742188 C 66.460938 4.683594 64.390625 3.417969 61.949219 2.464844 C 59.589844 1.546875 56.894531 0.917969 52.9375 0.746094 C 48.980469 0.554688 47.71875 0.519531 37.632812 0.519531 C 27.554688 0.519531 26.28125 0.554688 22.328125 0.746094 C 18.378906 0.917969 15.6875 1.546875 13.3125 2.464844 C 10.882812 3.417969 8.8125 4.683594 6.753906 6.742188 C 4.683594 8.8125 3.417969 10.882812 2.46875 13.324219 C 1.550781 15.675781 0.925781 18.378906 0.734375 22.332031 C 0.5625 26.289062 0.519531 27.554688 0.519531 37.640625 C 0.519531 47.71875 0.5625 48.980469 0.734375 52.9375 C 0.925781 56.886719 1.550781 59.585938 2.46875 61.949219 C 3.417969 64.382812 4.683594 66.460938 6.753906 68.519531 C 8.8125 70.582031 10.882812 71.855469 13.3125 72.804688 C 15.6875 73.722656 18.378906 74.347656 22.328125 74.527344 C 26.28125 74.710938 27.554688 74.753906 37.632812 74.753906 C 47.71875 74.753906 48.980469 74.710938 52.9375 74.527344 C 56.894531 74.347656 59.589844 73.722656 61.949219 72.804688 C 64.390625 71.855469 66.460938 70.582031 68.519531 68.519531 C 70.589844 66.460938 71.855469 64.382812 72.796875 61.949219 C 73.722656 59.585938 74.347656 56.886719 74.527344 52.9375 C 74.710938 48.980469 74.753906 47.71875 74.753906 37.640625 C 74.753906 27.554688 74.710938 26.289062 74.527344 22.332031 Z M 74.527344 22.332031 " fill-opacity="1" fill-rule="nonzero"/></g><path fill="#ffffff" d="M 37.632812 50.003906 C 30.804688 50.003906 25.261719 44.472656 25.261719 37.640625 C 25.261719 30.800781 30.804688 25.261719 37.632812 25.261719 C 44.464844 25.261719 50.011719 30.800781 50.011719 37.640625 C 50.011719 44.472656 44.464844 50.003906 37.632812 50.003906 Z M 37.632812 18.570312 C 27.105469 18.570312 18.578125 27.113281 18.578125 37.640625 C 18.578125 48.160156 27.105469 56.695312 37.632812 56.695312 C 48.160156 56.695312 56.695312 48.160156 56.695312 37.640625 C 56.695312 27.113281 48.160156 18.570312 37.632812 18.570312 Z M 37.632812 18.570312 " fill-opacity="1" fill-rule="nonzero"/><g clip-path="url(#996dc71dc7)"><path fill="#000000" d="M 9.972656 13.351562 L 65.511719 13.351562 L 65.511719 59.816406 L 9.972656 59.816406 Z M 9.972656 13.351562 " fill-opacity="1" fill-rule="nonzero"/></g><g clip-path="url(#f5fabab889)"><path fill="#ffffff" d="M 44.101562 20.617188 L 49.636719 20.617188 L 49.636719 12.238281 L 42.566406 12.238281 L 42.566406 12.273438 C 33.273438 12.613281 31.355469 17.839844 31.195312 23.363281 L 31.175781 23.363281 L 31.175781 29.175781 L 25.636719 29.175781 L 25.636719 37.5625 L 31.175781 37.5625 L 31.175781 63.054688 L 41.109375 63.054688 L 41.109375 37.5625 L 48.230469 37.5625 L 49.636719 29.175781 L 41.109375 29.175781 L 41.109375 23.972656 C 41.109375 22.121094 42.34375 20.617188 44.101562 20.617188 Z M 44.101562 20.617188 " fill-opacity="1" fill-rule="nonzero"/></g></svg>