<svg xmlns="http://www.w3.org/2000/svg" xmlns:xlink="http://www.w3.org/1999/xlink" width="140" zoomAndPan="magnify" viewBox="0 0 104.88 104.999996" height="140" preserveAspectRatio="xMidYMid meet" version="1.0"><defs><clipPath id="d5a6e1a30b"><path d="M 0.597656 0.660156 L 104.28125 0.660156 L 104.28125 104.339844 L 0.597656 104.339844 Z M 0.597656 0.660156 " clip-rule="nonzero"/></clipPath><clipPath id="6d2c9a41f9"><path d="M 52.441406 0.660156 C 23.808594 0.660156 0.597656 23.871094 0.597656 52.5 C 0.597656 81.128906 23.808594 104.339844 52.441406 104.339844 C 81.070312 104.339844 104.28125 81.128906 104.28125 52.5 C 104.28125 23.871094 81.070312 0.660156 52.441406 0.660156 Z M 52.441406 0.660156 " clip-rule="nonzero"/></clipPath><clipPath id="c95a976f26"><path d="M 4.054688 4.117188 L 100.824219 4.117188 L 100.824219 100.882812 L 4.054688 100.882812 Z M 4.054688 4.117188 " clip-rule="nonzero"/></clipPath><clipPath id="62eb765222"><path d="M 52.441406 4.117188 C 25.71875 4.117188 4.054688 25.777344 4.054688 52.5 C 4.054688 79.222656 25.71875 100.882812 52.441406 100.882812 C 79.160156 100.882812 100.824219 79.222656 100.824219 52.5 C 100.824219 25.777344 79.160156 4.117188 52.441406 4.117188 Z M 52.441406 4.117188 " clip-rule="nonzero"/></clipPath><clipPath id="6c9dba1333"><path d="M 23.464844 25.773438 L 81.414062 25.773438 L 81.414062 83.71875 L 23.464844 83.71875 Z M 23.464844 25.773438 " clip-rule="nonzero"/></clipPath><clipPath id="e81e01bd56"><path d="M 52.441406 25.773438 C 36.4375 25.773438 23.464844 38.742188 23.464844 54.746094 C 23.464844 70.746094 36.4375 83.71875 52.441406 83.71875 C 68.441406 83.71875 81.414062 70.746094 81.414062 54.746094 C 81.414062 38.742188 68.441406 25.773438 52.441406 25.773438 Z M 52.441406 25.773438 " clip-rule="nonzero"/></clipPath><clipPath id="5cfbd90201"><path d="M 26.808594 29.117188 L 78.070312 29.117188 L 78.070312 80.375 L 26.808594 80.375 Z M 26.808594 29.117188 " clip-rule="nonzero"/></clipPath><clipPath id="d8371d620e"><path d="M 52.441406 29.117188 C 38.285156 29.117188 26.808594 40.589844 26.808594 54.746094 C 26.808594 68.898438 38.285156 80.375 52.441406 80.375 C 66.59375 80.375 78.070312 68.898438 78.070312 54.746094 C 78.070312 40.589844 66.59375 29.117188 52.441406 29.117188 Z M 52.441406 29.117188 " clip-rule="nonzero"/></clipPath><clipPath id="169b0ebda7"><path d="M 54 9.964844 L 86 9.964844 L 86 37 L 54 37 Z M 54 9.964844 " clip-rule="nonzero"/></clipPath><clipPath id="ca599d87f2"><path d="M 21 9.964844 L 51 9.964844 L 51 36 L 21 36 Z M 21 9.964844 " clip-rule="nonzero"/></clipPath><clipPath id="5376c37bc5"><path d="M 6.558594 24 L 32 24 L 32 56 L 6.558594 56 Z M 6.558594 24 " clip-rule="nonzero"/></clipPath><clipPath id="e0ca2167b9"><path d="M 74 26 L 98.511719 26 L 98.511719 56 L 74 56 Z M 74 26 " clip-rule="nonzero"/></clipPath><clipPath id="560ea607c0"><path d="M 46 41 L 90 41 L 90 57.964844 L 46 57.964844 Z M 46 41 " clip-rule="nonzero"/></clipPath></defs><g clip-path="url(#d5a6e1a30b)"><g clip-path="url(#6d2c9a41f9)"><path fill="#000000" d="M 0.597656 0.660156 L 104.28125 0.660156 L 104.28125 104.339844 L 0.597656 104.339844 Z M 0.597656 0.660156 " fill-opacity="1" fill-rule="nonzero"/></g></g><g clip-path="url(#c95a976f26)"><g clip-path="url(#62eb765222)"><path fill="#2d8cfe" d="M 4.054688 4.117188 L 100.824219 4.117188 L 100.824219 100.882812 L 4.054688 100.882812 Z M 4.054688 4.117188 " fill-opacity="1" fill-rule="nonzero"/></g></g><g clip-path="url(#6c9dba1333)"><g clip-path="url(#e81e01bd56)"><path fill="#2d8cfe" d="M 23.464844 25.773438 L 81.414062 25.773438 L 81.414062 83.71875 L 23.464844 83.71875 Z M 23.464844 25.773438 " fill-opacity="1" fill-rule="nonzero"/></g></g><g clip-path="url(#5cfbd90201)"><g clip-path="url(#d8371d620e)"><path fill="#000000" d="M 26.808594 29.117188 L 78.070312 29.117188 L 78.070312 80.375 L 26.808594 80.375 Z M 26.808594 29.117188 " fill-opacity="1" fill-rule="nonzero"/></g></g><g clip-path="url(#169b0ebda7)"><path fill="#000000" d="M 54.261719 9.964844 L 54.261719 28.371094 C 61.375 28.835938 67.75 32.054688 72.324219 36.957031 L 85.386719 23.890625 C 77.445312 15.683594 66.460938 10.441406 54.261719 9.964844 Z M 54.261719 9.964844 " fill-opacity="1" fill-rule="nonzero"/></g><g clip-path="url(#ca599d87f2)"><path fill="#000000" d="M 21.109375 22.296875 L 34.171875 35.359375 C 38.578125 31.359375 44.300781 28.785156 50.621094 28.371094 L 50.621094 9.964844 C 39.222656 10.414062 28.890625 15.015625 21.109375 22.296875 Z M 21.109375 22.296875 " fill-opacity="1" fill-rule="nonzero"/></g><g clip-path="url(#5376c37bc5)"><path fill="#000000" d="M 6.5625 55.652344 L 25.25 55.652344 C 25.25 55.601562 25.25 55.554688 25.25 55.503906 C 25.25 48.832031 27.65625 42.722656 31.640625 37.988281 L 18.542969 24.886719 C 11.128906 33.007812 6.597656 43.804688 6.5625 55.652344 Z M 6.5625 55.652344 " fill-opacity="1" fill-rule="nonzero"/></g><g clip-path="url(#e0ca2167b9)"><path fill="#000000" d="M 98.3125 55.652344 C 98.277344 44.617188 94.34375 34.503906 87.820312 26.605469 L 74.640625 39.792969 C 77.789062 44.230469 79.632812 49.648438 79.632812 55.503906 C 79.632812 55.554688 79.632812 55.601562 79.632812 55.652344 Z M 98.3125 55.652344 " fill-opacity="1" fill-rule="nonzero"/></g><g clip-path="url(#560ea607c0)"><path fill="#dde5ee" d="M 89.40625 41.742188 L 69.34375 46.351562 L 51.660156 50.417969 C 51.175781 50.214844 50.636719 50.097656 50.074219 50.097656 C 47.828125 50.097656 46 51.925781 46 54.171875 C 46 56.421875 47.828125 58.246094 50.074219 58.246094 C 51.371094 58.246094 52.523438 57.636719 53.265625 56.703125 L 70.382812 49.605469 Z M 89.40625 41.742188 " fill-opacity="1" fill-rule="nonzero"/></g></svg>